<svg xmlns="http://www.w3.org/2000/svg" width="50" height="50" viewBox="0 0 50 50" fill="none">
<path d="M25 50C38.8071 50 50 38.8071 50 25C50 11.1929 38.8071 0 25 0C11.1929 0 0 11.1929 0 25C0 38.8071 11.1929 50 25 50Z" fill="url(#paint0_linear_52_57)"/>
<path d="M10.4046 24.7832L27.2399 17.8468C28.9017 17.1243 34.5375 14.8121 34.5375 14.8121C34.5375 14.8121 37.1387 13.8006 36.9219 16.2572C36.8497 17.2688 36.2717 20.8093 35.6936 24.6387L33.8873 35.9827C33.8873 35.9827 33.7428 37.6445 32.5144 37.9335C31.2861 38.2226 29.263 36.922 28.9017 36.633C28.6127 36.4162 23.4826 33.1648 21.604 31.5752C21.0982 31.1416 20.5202 30.2746 21.6763 29.263C24.2774 26.8786 27.3844 23.9162 29.263 22.0376C30.13 21.1705 30.9971 19.1474 27.3844 21.6041L17.1965 28.4682C17.1965 28.4682 16.0404 29.1908 13.8728 28.5405C11.7052 27.8902 9.17628 27.0231 9.17628 27.0231C9.17628 27.0231 7.44217 25.9393 10.4046 24.7832Z" fill="white"/>
<defs>
<linearGradient id="paint0_linear_52_57" x1="33.3353" y1="8.33526" x2="20.8353" y2="37.5" gradientUnits="userSpaceOnUse">
<stop stop-color="#37AEE2"/>
<stop offset="1" stop-color="#1E96C8"/>
</linearGradient>
</defs>
</svg>
