<svg xmlns="http://www.w3.org/2000/svg" width="50" height="50" viewBox="0 0 50 50" fill="none">
<g clip-path="url(#clip0_52_50)">
<path d="M25.0001 50.0001C38.8072 50.0001 50.0001 38.8072 50.0001 25.0001C50.0001 11.193 38.8072 6.10352e-05 25.0001 6.10352e-05C11.193 6.10352e-05 6.10352e-05 11.193 6.10352e-05 25.0001C6.10352e-05 38.8072 11.193 50.0001 25.0001 50.0001Z" fill="#2DAAE1"/>
<path d="M41.0296 15.0554C39.8504 15.5787 38.5838 15.9324 37.2522 16.0914C38.6113 15.2776 39.6524 13.988 40.144 12.4531C38.853 13.2199 37.4401 13.7597 35.9667 14.0491C34.7676 12.771 33.0578 11.973 31.1661 11.973C27.5351 11.973 24.5904 14.9166 24.5904 18.5496C24.5904 19.0644 24.6484 19.5666 24.7598 20.0488C19.2939 19.7741 14.448 17.1559 11.2043 13.1774C10.638 14.1491 10.3138 15.2788 10.3138 16.4841C10.3138 18.7655 11.475 20.7784 13.2394 21.9575C12.1949 21.9252 11.1733 21.6432 10.26 21.1353V21.2184C10.26 24.4051 12.5267 27.0623 15.5355 27.6667C14.9828 27.8181 14.4027 27.8972 13.8026 27.8972C13.3784 27.8972 12.9667 27.8571 12.5646 27.7814C13.4015 30.3934 15.8304 32.2947 18.7075 32.3484C16.4566 34.1128 13.6205 35.1646 10.5401 35.1646C10.0095 35.1646 9.48517 35.1329 8.9704 35.0709C11.8813 36.9374 15.3376 38.0271 19.0518 38.0271C31.1482 38.0271 37.7638 28.0057 37.7638 19.3151C37.7638 19.0298 37.7575 18.7466 37.7438 18.4644C39.0327 17.5321 40.1453 16.3778 41.0296 15.0554Z" fill="white"/>
</g>
</svg>
