<svg width="1000" height="1150" viewBox="0 0 1000 1150" fill="none" xmlns="http://www.w3.org/2000/svg">
<path d="M312.5 107.5L492.5 7.5L682.5 112.5V245L627.5 280V352.5L497.5 422.5L377.5 357.5V275L312.5 237.5V107.5Z" fill="#697498"/>
<path d="M627.5 280L802.5 172.5L992.5 280V497.501L812.5 602.501L627.5 497.501V280Z" fill="#F34849"/>
<path d="M12.5 640L127.5 567.5L192.5 602.5L265 562.5L377.5 640V777.5L312.5 817.5V882.5L192.5 957.5L12.5 842.5V640Z" fill="#302E2E"/>
<path d="M812.5 602.5L737.5 562.5L622.5 640V777.5L687.5 817.5V892.5L807.5 957.5L987.5 842.5V632.5L875 567.5L812.5 602.5Z" fill="#8247E5"/>
<path d="M2.5 275L195 172.5L377.5 275V497.501L192.5 602.501L2.5 492.501V275Z" fill="#1D3062"/>
<path d="M312.5 817.5L500 707.5L687.5 817.5V1027.5L497.5 1142.5L312.5 1032.5V817.5Z" fill="#3E77EA"/>
<path d="M127.3 783.95C128.5 782.75 130.15 782.05 131.9 782.05H290.6C293.5 782.05 294.95 785.55 292.9 787.6L261.55 818.95C260.35 820.15 258.7 820.85 256.95 820.85H98.2498C95.3498 820.85 93.8998 817.35 95.9498 815.3L127.3 783.95Z" fill="url(#paint0_linear_186_254)"/>
<path d="M127.3 666.9C128.55 665.7 130.2 665 131.9 665H290.6C293.5 665 294.95 668.5 292.9 670.55L261.55 701.9C260.35 703.1 258.7 703.8 256.95 703.8H98.2498C95.3498 703.8 93.8998 700.3 95.9498 698.25L127.3 666.9Z" fill="url(#paint1_linear_186_254)"/>
<path d="M261.55 725.05C260.35 723.85 258.7 723.15 256.95 723.15H98.2498C95.3498 723.15 93.8998 726.65 95.9498 728.7L127.3 760.05C128.5 761.25 130.15 761.95 131.9 761.95H290.6C293.5 761.95 294.95 758.45 292.9 756.4L261.55 725.05Z" fill="url(#paint2_linear_186_254)"/>
<path d="M897.305 297.174H727.51V451.496H897.305V297.174Z" fill="white"/>
<path fill-rule="evenodd" clip-rule="evenodd" d="M949.91 387.5C949.91 463.339 888.39 524.815 812.5 524.815C736.61 524.815 675.09 463.339 675.09 387.5C675.09 311.662 736.61 250.183 812.5 250.183C888.39 250.183 949.91 311.662 949.91 387.5ZM773.56 442.146H746.895C741.29 442.146 738.525 442.146 736.835 441.067C735.015 439.886 733.9 437.929 733.765 435.77C733.665 433.78 735.045 431.351 737.815 426.493L803.66 310.51C806.46 305.585 807.88 303.123 809.67 302.212C811.59 301.234 813.885 301.234 815.81 302.212C817.6 303.123 819.02 305.585 821.82 310.51L835.355 334.124L835.425 334.244C838.45 339.528 839.985 342.207 840.655 345.02C841.4 348.089 841.4 351.328 840.655 354.398C839.98 357.231 838.46 359.93 835.39 365.293L800.805 426.392L800.715 426.548C797.67 431.876 796.125 434.576 793.985 436.613C791.655 438.84 788.855 440.458 785.78 441.37C782.98 442.146 779.84 442.146 773.56 442.146ZM840.905 442.146H879.115C884.755 442.146 887.59 442.146 889.28 441.034C891.1 439.853 892.25 437.862 892.35 435.704C892.45 433.779 891.095 431.444 888.44 426.868C888.35 426.712 888.26 426.554 888.165 426.393L869.025 393.671L868.805 393.303C866.115 388.758 864.76 386.462 863.015 385.575C861.09 384.597 858.83 384.597 856.905 385.575C855.15 386.486 853.735 388.881 850.93 393.705L831.86 426.427L831.795 426.539C829 431.355 827.605 433.762 827.705 435.737C827.84 437.896 828.955 439.886 830.78 441.067C832.435 442.146 835.27 442.146 840.905 442.146Z" fill="#E84142"/>
<path d="M843.085 354.982C843.92 351.528 843.92 347.89 843.085 344.436C842.33 341.272 840.63 338.301 837.81 333.378L837.595 333.002V333.002L837.525 332.882V332.88L823.995 309.274C823.99 309.273 823.99 309.272 823.99 309.271C822.61 306.846 821.495 304.89 820.495 303.436C819.5 301.994 818.405 300.728 816.945 299.984V299.983C814.31 298.643 811.17 298.643 808.535 299.983V299.984C807.075 300.728 805.98 301.994 804.985 303.436C803.98 304.891 802.865 306.848 801.485 309.274V309.276L735.645 425.255L735.64 425.259L735.59 425.352C734.25 427.698 733.17 429.595 732.445 431.154C731.72 432.722 731.185 434.281 731.265 435.897L731.27 435.926C731.45 438.854 732.97 441.541 735.475 443.165L735.49 443.173L793.985 436.613L795.71 438.423C795.71 438.422 795.71 438.421 795.715 438.42C798.115 436.129 799.83 433.133 802.67 428.166L802.885 427.789L802.975 427.633L802.98 427.624L837.56 366.536C837.56 366.534 837.56 366.533 837.56 366.531C840.565 361.291 842.31 358.242 843.085 354.982ZM843.085 354.982C843.085 354.983 843.085 354.984 843.085 354.985L840.655 354.398L843.09 354.977C843.09 354.979 843.085 354.98 843.085 354.982ZM890.595 425.602L890.605 425.614L890.66 425.715C891.94 427.918 892.985 429.721 893.69 431.214C894.395 432.718 894.93 434.24 894.85 435.83L890.595 425.602ZM890.595 425.602L889.28 441.034L890.595 425.602ZM890.595 425.602C890.56 425.536 890.52 425.47 890.48 425.402C890.43 425.318 890.38 425.232 890.33 425.141L890.32 425.13L871.18 392.409L871.175 392.399L870.96 392.031V392.03L870.895 391.926C869.605 389.74 868.545 387.955 867.59 386.616C866.625 385.259 865.565 384.067 864.15 383.347C861.515 382.006 858.41 382.006 855.77 383.347L855.755 383.356C854.335 384.094 853.255 385.323 852.265 386.736C851.265 388.159 850.15 390.071 848.77 392.449L890.595 425.602ZM890.595 425.602L848.77 392.449L890.595 425.602ZM894.85 435.83L892.35 435.704L894.85 435.823C894.85 435.825 894.85 435.827 894.85 435.83ZM894.85 435.83C894.705 438.791 893.135 441.511 890.645 443.127L894.85 435.83ZM890.645 443.127C890.65 443.125 890.65 443.124 890.655 443.122L889.28 441.034L890.645 443.127ZM890.645 443.127C890.645 443.129 890.64 443.13 890.64 443.132L889.28 441.034L890.645 443.127ZM890.645 443.127C889.27 444.029 887.63 444.349 885.89 444.498C884.16 444.646 881.955 444.646 879.235 444.646H879.115H840.905H840.79C838.07 444.646 835.865 444.646 834.14 444.502C832.415 444.359 830.78 444.05 829.42 443.165L890.645 443.127ZM889.28 441.034C887.59 442.146 884.755 442.146 879.115 442.146H840.905C835.27 442.146 832.435 442.146 830.78 441.067L889.28 441.034ZM829.42 443.165L830.78 441.067L829.42 443.165ZM829.42 443.165C826.9 441.533 825.395 438.807 825.21 435.893V435.864C825.13 434.246 825.67 432.691 826.405 431.136C827.135 429.59 828.225 427.709 829.57 425.387L829.63 425.285V425.285L829.695 425.172L829.7 425.168L848.77 392.449L829.42 443.165ZM829.42 443.165C829.415 443.163 829.415 443.162 829.415 443.161L830.78 441.067L829.42 443.165ZM830.78 441.067C828.955 439.886 827.84 437.896 827.705 435.737L848.77 392.449L830.78 441.067ZM848.77 392.449L850.93 393.705L848.77 392.446V392.449ZM947.41 387.5C947.41 461.957 887.01 522.315 812.5 522.315C737.99 522.315 677.59 461.957 677.59 387.5C677.59 313.044 737.99 252.683 812.5 252.683C887.01 252.683 947.41 313.044 947.41 387.5Z" stroke="black" stroke-opacity="0.5"/>
<path d="M868.39 705.346C863.96 702.811 858.27 702.811 853.21 705.346L817.8 726.28L793.77 739.605L758.99 760.54C754.56 763.08 748.87 763.08 743.81 760.54L716.62 744.045C712.19 741.505 709.03 736.43 709.03 730.72V699.001C709.03 693.926 711.56 688.851 716.62 685.681L743.81 669.821C748.24 667.281 753.93 667.281 758.99 669.821L786.18 686.316C790.605 688.851 793.77 693.926 793.77 699.636V720.57L817.8 706.616V685.046C817.8 679.971 815.27 674.896 810.21 671.721L759.62 641.906C755.195 639.366 749.5 639.366 744.445 641.906L692.59 672.356C687.53 674.896 685 679.971 685 685.046V744.68C685 749.755 687.53 754.83 692.59 758L743.81 787.82C748.24 790.36 753.93 790.36 758.99 787.82L793.77 767.52L817.8 753.56L852.58 733.26C857.005 730.72 862.7 730.72 867.755 733.26L894.95 749.12C899.375 751.66 902.535 756.735 902.535 762.445V794.165C902.535 799.24 900.01 804.315 894.95 807.485L868.39 823.35C863.96 825.885 858.27 825.885 853.21 823.35L826.02 807.485C821.595 804.95 818.43 799.875 818.43 794.165V773.865L794.4 787.82V808.755C794.4 813.83 796.93 818.905 801.99 822.08L853.21 851.895C857.64 854.434 863.33 854.434 868.39 851.895L919.61 822.08C924.04 819.54 927.2 814.465 927.2 808.755V748.485C927.2 743.41 924.67 738.335 919.61 735.165L868.39 705.346Z" fill="white"/>
<path d="M817.18 776.034V794.164C817.18 800.329 820.585 805.809 825.395 808.569C825.395 808.569 825.395 808.569 825.4 808.569L852.58 824.429L852.615 824.444L852.65 824.464C858.035 827.164 864.175 827.204 869.01 824.429L869.03 824.419L895.59 808.559L895.615 808.544C901.04 805.144 903.785 799.664 903.785 794.164V762.444C903.785 756.279 900.38 750.794 895.575 748.039L895.57 748.034L868.385 732.18L868.35 732.16L868.315 732.145C862.93 729.44 856.795 729.405 851.96 732.174L851.95 732.18L817.17 752.479L793.14 766.439L758.395 786.719C753.67 789.074 748.445 789.034 744.435 786.739C744.435 786.734 744.435 786.734 744.435 786.734L693.235 756.934C688.555 753.989 686.25 749.324 686.25 744.679V685.045C686.25 680.37 688.57 675.77 693.15 673.475L693.185 673.455L693.22 673.435L745.04 643C749.76 640.65 754.985 640.69 758.99 642.985C758.995 642.985 758.995 642.985 759 642.99L809.56 672.79C814.24 675.73 816.55 680.4 816.55 685.045V705.895L795.02 718.4V699.635C795.02 693.475 791.615 687.995 786.815 685.235L759.635 668.75L759.595 668.725L759.55 668.7C754.165 666 748.025 665.96 743.19 668.735L743.18 668.74L715.99 684.6L715.955 684.62C710.525 688.025 707.78 693.5 707.78 699V730.72C707.78 736.879 711.18 742.359 715.985 745.119L743.165 761.609L743.205 761.634L743.25 761.654C748.635 764.359 754.775 764.394 759.61 761.624L759.635 761.609L794.395 740.684L818.405 727.375L818.435 727.354L853.81 706.445C858.53 704.09 863.755 704.13 867.765 706.43L918.965 736.234C923.645 739.174 925.95 743.839 925.95 748.484V808.754C925.95 814.009 923.035 818.674 918.99 820.994L918.985 820.999L867.795 850.794C863.07 853.149 857.845 853.109 853.84 850.814C853.835 850.814 853.835 850.814 853.835 850.809L802.635 821.009C797.96 818.064 795.65 813.399 795.65 808.754V788.539L817.18 776.034Z" stroke="black" stroke-opacity="0.5" stroke-width="0.5"/>
<path fill-rule="evenodd" clip-rule="evenodd" d="M586.39 215.028L497.305 333.176V266.844L586.39 215.028Z" fill="#C8B2F5" stroke="#3441C0" stroke-width="0.01116" stroke-miterlimit="7" stroke-linecap="round" stroke-linejoin="round"/>
<path fill-rule="evenodd" clip-rule="evenodd" d="M408.229 215.028L497.312 333.176V266.844L408.229 215.028Z" fill="#EECBC0" stroke="#3441C0" stroke-width="0.01116" stroke-miterlimit="7" stroke-linecap="round" stroke-linejoin="round"/>
<path fill-rule="evenodd" clip-rule="evenodd" d="M408.208 201.337L497.308 161.72V252.033L408.208 201.337Z" fill="#87A9F0" stroke="#3441C0" stroke-width="0.0111628" stroke-miterlimit="7" stroke-linecap="round" stroke-linejoin="round"/>
<path fill-rule="evenodd" clip-rule="evenodd" d="M586.405 201.337L497.304 161.72V252.033L586.405 201.337Z" fill="#CAB3F5" stroke="#3441C0" stroke-width="0.0111628" stroke-miterlimit="7" stroke-linecap="round" stroke-linejoin="round"/>
<path fill-rule="evenodd" clip-rule="evenodd" d="M408.229 201.334L497.313 61.5332V161.718L408.229 201.334Z" fill="#EECBC0" stroke="#3441C0" stroke-width="0.01116" stroke-miterlimit="7" stroke-linecap="round" stroke-linejoin="round"/>
<path fill-rule="evenodd" clip-rule="evenodd" d="M586.39 201.334L497.305 61.5332V161.718L586.39 201.334Z" fill="#B8FBF6" stroke="#3441C0" stroke-width="0.01116" stroke-miterlimit="7" stroke-linecap="round" stroke-linejoin="round"/>
<path d="M497.5 1060C573.44 1060 635 998.44 635 922.5C635 846.56 573.44 785 497.5 785C421.561 785 360 846.56 360 922.5C360 998.44 421.561 1060 497.5 1060Z" fill="#3468D1"/>
<path d="M632.5 922.5C632.5 997.06 572.06 1057.5 497.5 1057.5C422.941 1057.5 362.5 997.06 362.5 922.5C362.5 847.94 422.941 787.5 497.5 787.5C572.06 787.5 632.5 847.94 632.5 922.5Z" stroke="black" stroke-opacity="0.5"/>
<path fill-rule="evenodd" clip-rule="evenodd" d="M482.168 880.32C484.856 880.32 487.483 881.12 489.718 882.61C491.953 884.105 493.695 886.23 494.723 888.71C495.751 891.195 496.02 893.93 495.495 896.565C494.971 899.2 493.676 901.62 491.775 903.525C489.874 905.425 487.453 906.72 484.816 907.24C482.18 907.765 479.448 907.495 476.964 906.47C474.481 905.44 472.358 903.695 470.865 901.46C469.372 899.225 468.575 896.6 468.575 893.91C468.575 890.305 470.008 886.85 472.557 884.3C475.106 881.755 478.563 880.32 482.168 880.32ZM514.98 880.32C517.67 880.32 520.295 881.12 522.53 882.615C524.765 884.105 526.505 886.23 527.535 888.715C528.565 891.195 528.83 893.93 528.305 896.565C527.78 899.2 526.49 901.625 524.585 903.525C522.685 905.425 520.265 906.72 517.63 907.24C514.99 907.765 512.26 907.495 509.775 906.47C507.29 905.44 505.17 903.695 503.675 901.46C502.185 899.225 501.385 896.6 501.385 893.91C501.385 890.305 502.82 886.85 505.37 884.3C507.92 881.75 511.375 880.32 514.98 880.32ZM514.98 937.495C517.67 937.5 520.295 938.295 522.53 939.79C524.765 941.285 526.505 943.405 527.535 945.89C528.565 948.375 528.83 951.105 528.305 953.74C527.78 956.38 526.49 958.8 524.585 960.7C522.685 962.6 520.265 963.895 517.63 964.42C514.99 964.94 512.26 964.675 509.775 963.645C507.29 962.615 505.17 960.875 503.675 958.64C502.185 956.405 501.385 953.775 501.385 951.09C501.385 949.305 501.74 947.535 502.42 945.885C503.105 944.235 504.105 942.74 505.37 941.475C506.63 940.215 508.13 939.215 509.78 938.53C511.43 937.85 513.195 937.495 514.98 937.495ZM482.168 937.495C484.856 937.5 487.483 938.295 489.718 939.79C491.953 941.28 493.695 943.405 494.723 945.89C495.751 948.37 496.02 951.105 495.495 953.74C494.971 956.375 493.676 958.8 491.775 960.7C489.874 962.6 487.453 963.895 484.816 964.42C482.18 964.94 479.448 964.675 476.964 963.645C474.481 962.615 472.358 960.875 470.865 958.64C469.372 956.405 468.575 953.775 468.575 951.09C468.575 949.305 468.927 947.535 469.61 945.885C470.293 944.24 471.294 942.74 472.557 941.475C473.819 940.215 475.317 939.215 476.966 938.53C478.615 937.85 480.383 937.495 482.168 937.495ZM465.293 909.375C467.981 909.38 470.608 910.175 472.843 911.67C475.078 913.165 476.82 915.285 477.848 917.77C478.876 920.25 479.145 922.985 478.62 925.62C478.096 928.255 476.801 930.68 474.9 932.58C473 934.48 470.578 935.775 467.942 936.3C465.305 936.825 462.573 936.555 460.089 935.525C457.606 934.495 455.484 932.755 453.99 930.52C452.497 928.285 451.7 925.655 451.7 922.97C451.7 919.365 453.133 915.905 455.682 913.36C458.231 910.81 461.688 909.375 465.293 909.375ZM531.855 909.375C534.545 909.38 537.17 910.175 539.405 911.67C541.64 913.165 543.38 915.285 544.41 917.77C545.44 920.255 545.705 922.985 545.18 925.62C544.655 928.26 543.36 930.68 541.46 932.58C539.56 934.48 537.14 935.775 534.505 936.3C531.865 936.825 529.135 936.555 526.65 935.525C524.165 934.495 522.045 932.755 520.55 930.52C519.06 928.285 518.26 925.655 518.26 922.97C518.26 921.185 518.615 919.415 519.295 917.765C519.98 916.12 520.98 914.62 522.245 913.355C523.505 912.095 525.005 911.095 526.655 910.41C528.305 909.73 530.07 909.375 531.855 909.375ZM547.325 885.945C548.995 885.945 550.625 886.44 552.01 887.37C553.4 888.295 554.48 889.615 555.115 891.155C555.756 892.695 555.921 894.39 555.596 896.03C555.271 897.665 554.465 899.17 553.285 900.345C552.105 901.525 550.605 902.33 548.965 902.655C547.33 902.98 545.635 902.815 544.095 902.175C542.55 901.535 541.235 900.455 540.31 899.07C539.38 897.68 538.885 896.05 538.885 894.38C538.885 893.275 539.105 892.175 539.53 891.15C539.955 890.13 540.575 889.2 541.36 888.415C542.14 887.63 543.07 887.01 544.095 886.585C545.12 886.165 546.215 885.945 547.325 885.945ZM547.325 942.185C548.995 942.185 550.625 942.68 552.01 943.605C553.4 944.535 554.48 945.85 555.115 947.39C555.756 948.935 555.921 950.63 555.596 952.265C555.271 953.9 554.465 955.405 553.285 956.585C552.105 957.765 550.605 958.565 548.965 958.895C547.33 959.22 545.635 959.05 544.095 958.41C542.55 957.775 541.235 956.69 540.31 955.305C539.38 953.92 538.885 952.285 538.885 950.62C538.885 949.51 539.105 948.415 539.53 947.39C539.955 946.365 540.575 945.435 541.36 944.655C542.14 943.87 543.07 943.25 544.095 942.825C545.12 942.4 546.215 942.185 547.325 942.185ZM449.824 942.185C451.493 942.185 453.124 942.68 454.511 943.605C455.898 944.53 456.979 945.85 457.617 947.39C458.256 948.935 458.422 950.63 458.097 952.265C457.771 953.9 456.968 955.405 455.788 956.585C454.608 957.765 453.105 958.565 451.469 958.895C449.832 959.22 448.136 959.05 446.595 958.41C445.053 957.775 443.736 956.695 442.809 955.305C441.882 953.92 441.387 952.285 441.387 950.62C441.388 948.38 442.277 946.235 443.859 944.655C445.441 943.07 447.587 942.185 449.824 942.185ZM449.824 885.945C451.493 885.945 453.124 886.44 454.511 887.37C455.898 888.295 456.979 889.61 457.617 891.155C458.256 892.695 458.422 894.39 458.097 896.03C457.771 897.665 456.968 899.165 455.788 900.345C454.608 901.525 453.105 902.33 451.469 902.655C449.832 902.98 448.136 902.815 446.595 902.175C445.053 901.535 443.736 900.455 442.809 899.07C441.882 897.68 441.387 896.05 441.387 894.38C441.388 892.145 442.277 890 443.859 888.415C445.441 886.835 447.587 885.945 449.824 885.945ZM498.574 857.825C500.245 857.825 501.875 858.32 503.26 859.25C504.645 860.175 505.73 861.495 506.365 863.035C507.005 864.575 507.17 866.27 506.845 867.91C506.52 869.545 505.715 871.05 504.535 872.225C503.355 873.405 501.855 874.21 500.215 874.535C498.581 874.86 496.885 874.695 495.344 874.055C493.802 873.415 492.485 872.335 491.558 870.95C490.631 869.56 490.136 867.93 490.136 866.26C490.136 865.155 490.355 864.055 490.779 863.035C491.203 862.01 491.824 861.08 492.608 860.295C493.392 859.51 494.322 858.89 495.346 858.465C496.369 858.045 497.466 857.825 498.574 857.825ZM498.574 970.305C500.245 970.305 501.875 970.8 503.26 971.725C504.645 972.655 505.73 973.97 506.365 975.51C507.005 977.055 507.17 978.75 506.845 980.385C506.52 982.02 505.715 983.525 504.535 984.705C503.355 985.885 501.855 986.685 500.215 987.01C498.581 987.34 496.885 987.17 495.344 986.53C493.802 985.895 492.485 984.81 491.558 983.425C490.631 982.04 490.136 980.405 490.136 978.74C490.136 977.63 490.355 976.535 490.779 975.51C491.203 974.485 491.824 973.555 492.608 972.775C493.392 971.99 494.322 971.37 495.346 970.945C496.369 970.52 497.466 970.3 498.574 970.305ZM534.67 978.74C536.06 978.74 537.415 979.15 538.575 979.925C539.73 980.695 540.63 981.795 541.16 983.08C541.695 984.365 541.83 985.78 541.56 987.14C541.29 988.505 540.62 989.755 539.635 990.74C538.655 991.725 537.4 992.39 536.035 992.665C534.675 992.935 533.26 992.795 531.975 992.265C530.69 991.73 529.595 990.83 528.82 989.675C528.05 988.52 527.635 987.16 527.635 985.77C527.635 984.845 527.82 983.93 528.17 983.08C528.525 982.225 529.045 981.45 529.695 980.795C530.35 980.145 531.125 979.625 531.975 979.275C532.83 978.92 533.745 978.74 534.67 978.74ZM462.481 978.74C463.871 978.74 465.23 979.15 466.386 979.925C467.541 980.695 468.442 981.795 468.974 983.08C469.506 984.365 469.644 985.78 469.373 987.14C469.101 988.505 468.432 989.755 467.449 990.74C466.465 991.725 465.213 992.39 463.849 992.665C462.486 992.935 461.072 992.795 459.788 992.265C458.504 991.73 457.406 990.83 456.633 989.675C455.861 988.52 455.449 987.16 455.449 985.77C455.449 984.845 455.631 983.93 455.984 983.08C456.338 982.225 456.856 981.45 457.509 980.795C458.162 980.145 458.937 979.625 459.79 979.275C460.643 978.92 461.557 978.74 462.481 978.74ZM462.481 852.2C463.871 852.205 465.23 852.615 466.386 853.39C467.541 854.16 468.442 855.26 468.974 856.545C469.506 857.83 469.644 859.24 469.373 860.605C469.101 861.97 468.432 863.22 467.449 864.205C466.465 865.185 465.213 865.855 463.849 866.125C462.486 866.4 461.072 866.26 459.788 865.725C458.504 865.195 457.406 864.295 456.633 863.135C455.861 861.98 455.449 860.62 455.449 859.23C455.449 858.31 455.631 857.395 455.984 856.54C456.338 855.69 456.856 854.915 457.509 854.26C458.162 853.605 458.937 853.09 459.79 852.735C460.643 852.385 461.557 852.2 462.481 852.2ZM534.67 852.2C536.06 852.205 537.415 852.615 538.575 853.39C539.73 854.16 540.63 855.26 541.16 856.545C541.695 857.83 541.83 859.24 541.56 860.605C541.29 861.97 540.62 863.22 539.635 864.205C538.655 865.185 537.4 865.855 536.035 866.125C534.675 866.4 533.26 866.26 531.975 865.725C530.69 865.195 529.595 864.295 528.82 863.135C528.05 861.98 527.635 860.62 527.635 859.23C527.635 858.31 527.82 857.395 528.17 856.54C528.525 855.69 529.045 854.915 529.695 854.26C530.35 853.605 531.125 853.09 531.975 852.735C532.83 852.385 533.745 852.2 534.67 852.2ZM571.231 915C572.621 915 573.981 915.415 575.136 916.185C576.291 916.96 577.191 918.06 577.726 919.34C578.256 920.625 578.396 922.04 578.126 923.405C577.851 924.765 577.186 926.02 576.201 927.005C575.216 927.985 573.965 928.655 572.6 928.925C571.236 929.2 569.826 929.06 568.541 928.525C567.256 927.995 566.156 927.095 565.386 925.935C564.611 924.78 564.2 923.42 564.2 922.03C564.2 920.165 564.94 918.38 566.26 917.06C567.576 915.745 569.366 915 571.231 915ZM425.918 915C427.308 915 428.667 915.415 429.823 916.185C430.979 916.96 431.879 918.06 432.411 919.34C432.943 920.625 433.082 922.04 432.811 923.405C432.54 924.765 431.87 926.02 430.887 927.005C429.904 927.985 428.651 928.655 427.287 928.925C425.924 929.2 424.511 929.06 423.226 928.525C421.942 927.995 420.844 927.095 420.071 925.935C419.299 924.78 418.887 923.42 418.887 922.03C418.887 921.11 419.069 920.195 419.422 919.34C419.775 918.49 420.293 917.715 420.946 917.06C421.599 916.41 422.374 915.89 423.227 915.535C424.08 915.185 424.994 915 425.918 915ZM420.761 871.885C421.874 871.885 422.961 872.215 423.886 872.835C424.811 873.45 425.532 874.33 425.958 875.355C426.384 876.385 426.495 877.515 426.278 878.605C426.061 879.7 425.525 880.7 424.738 881.485C423.951 882.275 422.949 882.81 421.858 883.025C420.767 883.245 419.636 883.13 418.608 882.705C417.58 882.28 416.702 881.56 416.084 880.635C415.466 879.71 415.136 878.62 415.137 877.51C415.137 876.015 415.73 874.585 416.784 873.53C417.839 872.475 419.27 871.885 420.761 871.885ZM420.761 961.865C421.874 961.865 422.961 962.195 423.886 962.815C424.811 963.435 425.532 964.31 425.958 965.34C426.384 966.365 426.495 967.5 426.278 968.59C426.061 969.68 425.525 970.685 424.738 971.47C423.951 972.255 422.949 972.79 421.858 973.01C420.767 973.225 419.636 973.115 418.608 972.69C417.58 972.26 416.702 971.54 416.084 970.615C415.466 969.69 415.136 968.605 415.137 967.49C415.137 966 415.73 964.57 416.784 963.515C417.839 962.46 419.27 961.865 420.761 961.865ZM576.386 961.865C577.501 961.865 578.586 962.195 579.511 962.815C580.436 963.435 581.156 964.31 581.586 965.34C582.011 966.365 582.121 967.5 581.906 968.59C581.686 969.68 581.151 970.685 580.366 971.47C579.576 972.255 578.576 972.79 577.486 973.01C576.391 973.225 575.261 973.115 574.236 972.69C573.206 972.26 572.326 971.54 571.711 970.615C571.091 969.69 570.761 968.605 570.761 967.49C570.761 966 571.356 964.57 572.411 963.515C573.466 962.46 574.896 961.865 576.386 961.865ZM576.386 871.885C577.501 871.885 578.586 872.215 579.511 872.835C580.436 873.45 581.156 874.33 581.586 875.355C582.011 876.385 582.121 877.515 581.906 878.605C581.686 879.7 581.151 880.7 580.366 881.485C579.576 882.275 578.576 882.81 577.486 883.025C576.391 883.245 575.261 883.13 574.236 882.705C573.206 882.28 572.326 881.56 571.711 880.635C571.091 879.71 570.761 878.62 570.761 877.51C570.761 876.015 571.356 874.585 572.411 873.53C573.466 872.475 574.896 871.885 576.386 871.885ZM498.574 826.895C499.687 826.895 500.775 827.225 501.7 827.845C502.625 828.46 503.345 829.34 503.77 830.37C504.195 831.395 504.305 832.525 504.09 833.62C503.87 834.71 503.335 835.71 502.55 836.495C501.765 837.285 500.76 837.82 499.67 838.035C498.579 838.255 497.448 838.14 496.42 837.715C495.392 837.29 494.514 836.57 493.896 835.645C493.278 834.72 492.949 833.63 492.949 832.52C492.949 831.78 493.094 831.05 493.377 830.365C493.66 829.685 494.074 829.065 494.597 828.54C495.119 828.02 495.739 827.605 496.422 827.32C497.104 827.04 497.836 826.895 498.574 826.895ZM498.574 1006.85C499.687 1006.86 500.775 1007.19 501.7 1007.8C502.625 1008.42 503.345 1009.3 503.77 1010.33C504.195 1011.36 504.305 1012.49 504.09 1013.58C503.87 1014.67 503.335 1015.67 502.55 1016.46C501.765 1017.24 500.76 1017.78 499.67 1018C498.579 1018.21 497.448 1018.1 496.421 1017.68C495.393 1017.25 494.515 1016.53 493.897 1015.6C493.279 1014.68 492.949 1013.59 492.949 1012.48C492.949 1011.74 493.094 1011.01 493.377 1010.33C493.66 1009.64 494.074 1009.02 494.597 1008.5C495.119 1007.98 495.739 1007.57 496.422 1007.28C497.104 1007 497.836 1006.85 498.574 1006.85ZM548.26 1003.11C549.19 1003.11 550.095 1003.38 550.865 1003.9C551.635 1004.41 552.235 1005.14 552.59 1006C552.945 1006.86 553.04 1007.8 552.86 1008.71C552.675 1009.62 552.23 1010.45 551.576 1011.11C550.92 1011.76 550.085 1012.21 549.175 1012.39C548.265 1012.57 547.325 1012.48 546.47 1012.12C545.61 1011.77 544.88 1011.17 544.365 1010.4C543.85 1009.63 543.575 1008.72 543.575 1007.79C543.575 1007.18 543.695 1006.57 543.93 1006C544.165 1005.43 544.51 1004.91 544.945 1004.48C545.38 1004.04 545.9 1003.7 546.47 1003.46C547.035 1003.23 547.645 1003.11 548.26 1003.11ZM448.886 1003.11C449.813 1003.11 450.72 1003.38 451.49 1003.9C452.261 1004.41 452.862 1005.14 453.217 1006C453.571 1006.86 453.664 1007.8 453.483 1008.71C453.302 1009.62 452.856 1010.45 452.201 1011.11C451.545 1011.76 450.71 1012.21 449.801 1012.39C448.892 1012.57 447.949 1012.48 447.093 1012.12C446.237 1011.77 445.505 1011.17 444.99 1010.4C444.475 1009.63 444.2 1008.72 444.2 1007.79C444.2 1007.18 444.321 1006.57 444.556 1006C444.792 1005.43 445.137 1004.91 445.572 1004.48C446.008 1004.04 446.524 1003.7 447.093 1003.46C447.662 1003.23 448.271 1003.11 448.886 1003.11ZM448.886 832.52C449.813 832.52 450.72 832.795 451.49 833.31C452.261 833.825 452.862 834.56 453.217 835.415C453.571 836.27 453.664 837.215 453.483 838.125C453.302 839.035 452.856 839.87 452.201 840.525C451.545 841.18 450.71 841.625 449.801 841.805C448.892 841.985 447.949 841.895 447.093 841.54C446.237 841.185 445.505 840.585 444.99 839.815C444.475 839.04 444.2 838.135 444.2 837.21C444.199 836.595 444.32 835.985 444.555 835.415C444.79 834.845 445.136 834.33 445.571 833.89C446.006 833.455 446.523 833.11 447.092 832.875C447.661 832.64 448.271 832.52 448.886 832.52ZM548.26 832.52C549.19 832.52 550.095 832.795 550.865 833.31C551.635 833.825 552.235 834.56 552.59 835.415C552.945 836.27 553.04 837.215 552.86 838.125C552.675 839.035 552.23 839.87 551.576 840.525C550.92 841.18 550.085 841.625 549.175 841.805C548.265 841.985 547.325 841.895 546.47 841.54C545.61 841.185 544.88 840.585 544.365 839.815C543.85 839.04 543.575 838.135 543.575 837.21C543.575 836.595 543.695 835.985 543.93 835.415C544.165 834.845 544.51 834.33 544.945 833.89C545.38 833.455 545.9 833.11 546.465 832.875C547.035 832.64 547.645 832.52 548.26 832.52ZM597.011 917.815C597.941 917.815 598.846 918.09 599.616 918.605C600.386 919.12 600.986 919.855 601.341 920.71C601.696 921.565 601.791 922.51 601.611 923.415C601.426 924.325 600.981 925.16 600.326 925.815C599.671 926.47 598.836 926.92 597.926 927.1C597.016 927.28 596.076 927.185 595.216 926.83C594.361 926.475 593.631 925.875 593.116 925.105C592.601 924.335 592.326 923.425 592.326 922.5C592.326 921.885 592.446 921.275 592.681 920.705C592.916 920.14 593.261 919.62 593.696 919.185C594.131 918.75 594.651 918.405 595.221 918.17C595.786 917.935 596.396 917.815 597.011 917.815ZM400.136 917.815C401.063 917.815 401.97 918.09 402.74 918.605C403.511 919.12 404.112 919.855 404.467 920.71C404.821 921.565 404.914 922.51 404.733 923.415C404.552 924.325 404.105 925.16 403.45 925.815C402.794 926.47 401.959 926.92 401.049 927.1C400.14 927.28 399.198 927.185 398.341 926.83C397.485 926.475 396.753 925.875 396.238 925.105C395.724 924.335 395.449 923.425 395.449 922.5C395.449 921.885 395.571 921.275 395.806 920.705C396.042 920.14 396.387 919.62 396.822 919.185C397.257 918.75 397.774 918.405 398.343 918.17C398.911 917.935 399.521 917.815 400.136 917.815Z" fill="white"/>
<path d="M182.5 525C258.439 525 320 463.439 320 387.5C320 311.561 258.439 250 182.5 250C106.561 250 45 311.561 45 387.5C45 463.439 106.561 525 182.5 525Z" fill="#172852" fill-opacity="0.75"/>
<path d="M317.5 387.5C317.5 462.059 257.059 522.5 182.5 522.5C107.941 522.5 47.5 462.059 47.5 387.5C47.5 312.941 107.941 252.5 182.5 252.5C257.059 252.5 317.5 312.941 317.5 387.5Z" stroke="black" stroke-opacity="0.5"/>
<path d="M155.756 311.448C171.857 305.426 189.98 305.412 206.384 310.362C227.737 316.99 245.764 333.105 255.183 353.331C257.782 359.092 260.27 365.101 260.518 371.508C248.514 364.551 235.355 360.041 222.169 355.93C201.076 348.326 178.994 343.046 159.029 332.596C154.381 329.818 148.455 326.972 147.19 321.183C146.681 316.178 151.975 313.387 155.756 311.448Z" fill="#FFD83D"/>
<path d="M107.15 360.123C111.811 347.473 119.456 335.731 129.837 327.027C132.477 348.738 141.717 369.721 156.98 385.506C175.281 404.522 201.351 416.196 227.875 415.756C238.407 416.086 248.706 413.652 258.977 411.686C248.871 448.206 208.845 472.447 171.761 466.617C149.376 463.757 128.71 450.502 116.238 431.788C102.172 411.108 98.6248 383.65 107.15 360.123Z" fill="#FFD83D"/>
<path d="M222.168 355.93C235.355 360.042 248.513 364.552 260.517 371.509L261.328 371.935C262.442 380.309 263.253 388.848 261.768 397.235C255.732 394.678 250.837 390.182 245.722 386.208C235.877 378.013 225.826 368.635 222.168 355.93Z" fill="#FF6F03"/>
<path d="M687.5 815V1030" stroke="black"/>
<path d="M312.5 815V1035" stroke="black"/>
<path d="M497.5 210V425" stroke="black"/>
<path d="M498.811 212.8L683.81 112.8" stroke="black"/>
<path d="M683.79 112.189L493.74 7.23877" stroke="black"/>
<path d="M495.512 5.91504L311.046 106.88" stroke="black"/>
<path d="M311.234 107.826L496.234 212.826" stroke="black"/>
<path d="M188.341 379.903L192.499 604.955" stroke="black"/>
<path d="M192.5 740V960" stroke="black"/>
<path d="M12.5 640.001V845" stroke="black"/>
<path d="M377.5 275V500" stroke="black"/>
<path d="M627.5 280V500" stroke="black"/>
<path d="M992.5 280V500" stroke="black"/>
<path d="M2.5 275V495" stroke="black"/>
<path d="M187.842 381.153L379.728 274.478" stroke="black"/>
<path d="M192.757 743.145L378.585 639.616" stroke="black"/>
<path d="M193.766 602.825L378.766 497.826" stroke="black"/>
<path d="M813.74 602.839L993.74 497.84" stroke="black"/>
<path d="M808.655 957.895L988.655 842.895" stroke="black"/>
<path d="M498.706 1142.86L688.705 1027.86" stroke="black"/>
<path d="M808.685 742.87L988.215 632.105" stroke="black"/>
<path d="M379.335 276.21L193.362 172.949" stroke="black"/>
<path d="M196.171 172.209L1.1709 275.568" stroke="black"/>
<path d="M1.30225 274.127L187.875 381.438" stroke="black"/>
<path d="M11.2598 637.841L191.26 742.84" stroke="black"/>
<path d="M1.25244 492.836L191.252 602.834" stroke="black"/>
<path d="M626.235 497.826L811.235 602.825" stroke="black"/>
<path d="M11.3462 842.895L191.346 957.895" stroke="black"/>
<path d="M621.235 637.825L806.235 742.825" stroke="black"/>
<path d="M813.34 379.959L812.5 605.011" stroke="black"/>
<path d="M807.5 740V960" stroke="black"/>
<path d="M987.5 629.999V845" stroke="black"/>
<path d="M814.16 381.195L994.735 278.014" stroke="black"/>
<path d="M993.255 279.629L803.765 172.174" stroke="black"/>
<path d="M805.275 170.416L627.325 278.855" stroke="black"/>
<path d="M626.215 277.814L812.84 381.419" stroke="black"/>
<path d="M498.342 919.96L497.481 1145.01" stroke="black"/>
<path d="M498.605 920.08L688.815 817.8" stroke="black"/>
<path d="M688.74 817.17L498.752 707.155" stroke="black"/>
<path d="M501.256 707.165L311.252 817.165" stroke="black"/>
<path d="M311.213 817.815L497.842 921.42" stroke="black"/>
<path d="M311.277 1032.85L496.277 1142.85" stroke="black"/>
<path d="M13.7002 637.865L128.7 567.865" stroke="black"/>
<path d="M379.229 641.16L262.981 562.985" stroke="black"/>
<path d="M377.5 640.001V780" stroke="black"/>
<path d="M193.675 957.88L313.674 882.88" stroke="black"/>
<path d="M312.5 105V240" stroke="black"/>
<path d="M682.5 110V245" stroke="black"/>
<path d="M498.345 422.967L378.398 357.944" stroke="black"/>
<path d="M498.815 422.799L628.815 352.799" stroke="black"/>
<path d="M622.5 640.001V780" stroke="black"/>
<path d="M623.621 637.914L738.155 562.175" stroke="black"/>
<path d="M988.77 632.175L873.77 567.175" stroke="black"/>
<path d="M807.065 957.765L688.91 891.96" stroke="black"/>
<defs>
<linearGradient id="paint0_linear_186_254" x1="275.439" y1="646.27" x2="165.607" y2="856.645" gradientUnits="userSpaceOnUse">
<stop stop-color="#00FFA3"/>
<stop offset="1" stop-color="#DC1FFF"/>
</linearGradient>
<linearGradient id="paint1_linear_186_254" x1="227.414" y1="621.2" x2="117.582" y2="831.575" gradientUnits="userSpaceOnUse">
<stop stop-color="#00FFA3"/>
<stop offset="1" stop-color="#DC1FFF"/>
</linearGradient>
<linearGradient id="paint2_linear_186_254" x1="251.274" y1="633.655" x2="141.441" y2="844.03" gradientUnits="userSpaceOnUse">
<stop stop-color="#00FFA3"/>
<stop offset="1" stop-color="#DC1FFF"/>
</linearGradient>
</defs>
</svg>
