<svg width="348" height="349" viewBox="0 0 348 349" fill="none" xmlns="http://www.w3.org/2000/svg">
<path d="M130 257.5L174.5 227.5L219 250.5H219.5L260.5 229.5L261.5 274.5L219.5 250.5L162 274.5L130 257.5Z" fill="url(#paint0_linear_23_103)"/>
<path d="M86 77V27.5L130.5 1V52L86 77Z" fill="#FFFFC7"/>
<path d="M130.5 53V1V0.5L218.5 52.5L177 80.5L130.5 53Z" fill="url(#paint1_linear_23_103)"/>
<path d="M130 101L129.5 53L0.5 125L1 177.5L130 101Z" fill="url(#paint2_linear_23_103)"/>
<path d="M129.5 53L130.5 52.5L177.5 80.5L217.5 106.5L218 152.5L130 101L129.5 53Z" fill="url(#paint3_linear_23_103)"/>
<path d="M218.5 52.5L177.5 80.5L217.5 106.5L218 152L217.5 152.5L262.5 177.5L260.5 25L218.5 52.5Z" fill="url(#paint4_linear_23_103)"/>
<path d="M306 53.5L260.5 25L262.5 177.5L308 206.5L306 53.5Z" fill="url(#paint5_linear_23_103)"/>
<path d="M347.5 180L307.5 155L308 204.5L347.5 228V180Z" fill="url(#paint6_linear_23_103)"/>
<path d="M131 153L129.5 101L1 178L88.5 224L89 188L84.5 184.5V184L131 153Z" fill="url(#paint7_linear_23_103)"/>
<path d="M130.5 153L129.5 100.5L171.5 125.5L130.5 153Z" fill="url(#paint8_linear_23_103)"/>
<path d="M220.5 201L217.5 152L262.5 177L220.5 201Z" fill="url(#paint9_linear_23_103)"/>
<path d="M161.5 274.5L219 250.5L261 273.5L262 329.5L161.5 274.5Z" fill="url(#paint10_linear_23_103)"/>
<path d="M218.5 250.5H220L227.393 255H227.5L228.5 255.5C229.49 255.995 231.424 257.058 231.325 257.393L231.5 257.5L231.321 257.404L218.5 250.5Z" fill="#20DBB1"/>
<path d="M130.5 199.5L174.5 227.5L133.5 257L130.5 257.5V199.5Z" fill="url(#paint11_linear_23_103)"/>
<path d="M48.5 203H47.5L45.5 298.5L88 275.5L88.5 224L48.5 203Z" fill="url(#paint12_linear_23_103)"/>
<path d="M88 277.5L89 181L130.5 153V257L88 277.5Z" fill="url(#paint13_linear_23_103)" stroke="black"/>
<path d="M88 275.5L45.5 298.5L87.5 321.5L129.5 298.5L88.5 278L88 275.5Z" fill="url(#paint14_linear_23_103)"/>
<path d="M88.5 277.5L130.5 257.5L263 329.5L227 347.5L88.5 277.5Z" fill="url(#paint15_linear_23_103)"/>
<path d="M262 177.5L174.5 227.5L219 250.5L308 206.5L263 177L262 177.5Z" fill="url(#paint16_linear_23_103)"/>
<path d="M261.5 275L260.5 230.5L308 207V204.5L347.5 227.5L261.5 275Z" fill="url(#paint17_linear_23_103)"/>
<path d="M130.5 152.5L171.5 125L218 152L221 200.5L174 228L130.5 200.254V152.5Z" fill="url(#paint18_linear_23_103)"/>
<path d="M184.821 153.315L177.762 158.105L177.678 158.161L176.277 157.629L173.308 156.256L170.619 154.884L167.705 153.315L163.363 150.71L162.131 149.954L168.966 146.508L174.737 149.561L177.51 150.878L181.32 152.251L184.821 153.315Z" fill="white"/>
<path d="M168.937 146.396C177.613 151.337 180.963 151.986 185.187 153.335L177.736 158.33C172.111 156.077 166.905 153.172 161.88 149.982L168.937 146.396V146.396ZM168.986 146.654L162.443 149.977C167.103 152.935 172.441 155.922 177.657 158.011L184.565 153.382C180.648 152.13 177.032 151.235 168.986 146.654V146.654Z" fill="#005500"/>
<path d="M184.821 152.688L177.762 157.478L177.678 157.534L176.277 157.002L173.308 155.629L170.619 154.256L167.705 152.688L163.363 150.082L162.131 149.326L168.966 145.88L174.737 148.934L177.51 150.251L181.32 151.623L184.821 152.688Z" fill="white"/>
<path d="M168.937 145.769C177.613 150.71 180.963 151.358 185.187 152.708L177.736 157.703C172.111 155.449 166.905 152.545 161.88 149.354L168.937 145.769V145.769ZM168.986 146.026L162.443 149.349C167.103 152.308 172.441 155.294 177.657 157.384L184.565 152.754C180.648 151.503 177.032 150.608 168.986 146.026V146.026Z" fill="#005500"/>
<path d="M184.821 152.06L177.762 156.85L177.678 156.906L176.277 156.374L173.308 155.002L170.619 153.629L167.705 152.06L163.363 149.455L162.131 148.699L168.966 145.253L174.737 148.306L177.51 149.623L181.32 150.996L184.821 152.06Z" fill="white"/>
<path d="M168.937 145.142C177.613 150.082 180.963 150.731 185.187 152.081L177.736 157.075C172.111 154.822 166.905 151.917 161.88 148.727L168.937 145.142V145.142ZM168.986 145.399L162.443 148.722C167.103 151.68 172.441 154.667 177.657 156.756L184.565 152.127C180.648 150.875 177.032 149.98 168.986 145.399V145.399Z" fill="#005500"/>
<path d="M184.821 151.433L177.762 156.223L177.678 156.279L176.277 155.747L173.308 154.374L170.619 153.001L167.705 151.433L163.363 148.827L162.131 148.071L168.966 144.625L174.737 147.679L177.51 148.995L181.32 150.368L184.821 151.433Z" fill="white"/>
<path d="M168.937 144.514C177.613 149.455 180.963 150.103 185.187 151.453L177.736 156.448C172.111 154.194 166.905 151.29 161.88 148.099L168.937 144.514V144.514ZM168.986 144.771L162.443 148.094C167.103 151.053 172.441 154.039 177.657 156.129L184.565 151.499C180.648 150.248 177.032 149.353 168.986 144.771V144.771Z" fill="#005500"/>
<path d="M184.821 150.805L177.762 155.595L177.678 155.651L176.277 155.119L173.308 153.747L170.619 152.374L167.705 150.805L163.363 148.2L162.131 147.444L168.966 143.998L174.737 147.051L177.51 148.368L181.32 149.741L184.821 150.805Z" fill="white"/>
<path d="M168.937 143.887C177.613 148.827 180.963 149.476 185.187 150.826L177.736 155.82C172.111 153.567 166.905 150.662 161.88 147.472L168.937 143.887V143.887ZM168.986 144.144L162.443 147.467C167.103 150.425 172.441 153.412 177.657 155.501L184.565 150.872C180.648 149.62 177.032 148.725 168.986 144.144V144.144Z" fill="#005500"/>
<path d="M184.821 150.178L177.762 154.968L177.678 155.024L176.277 154.492L173.308 153.119L170.619 151.746L167.705 150.178L163.363 147.572L162.131 146.816L168.966 143.37L174.737 146.424L177.51 147.74L181.32 149.113L184.821 150.178Z" fill="white"/>
<path d="M168.937 143.259C177.613 148.2 180.963 148.848 185.187 150.198L177.736 155.193C172.111 152.939 166.905 150.035 161.88 146.844L168.937 143.259V143.259ZM168.986 143.516L162.443 146.839C167.103 149.798 172.441 152.784 177.657 154.874L184.565 150.244C180.648 148.993 177.032 148.098 168.986 143.516V143.516Z" fill="#005500"/>
<path d="M184.821 149.55L177.762 154.34L177.678 154.396L176.277 153.864L173.308 152.492L170.619 151.119L167.705 149.55L163.363 146.945L162.131 146.189L168.966 142.743L174.737 145.796L177.51 147.113L181.32 148.486L184.821 149.55Z" fill="white"/>
<path d="M168.937 142.632C177.613 147.572 180.963 148.221 185.187 149.57L177.736 154.565C172.111 152.312 166.905 149.407 161.88 146.217L168.937 142.632V142.632ZM168.986 142.889L162.443 146.212C167.103 149.17 172.441 152.157 177.657 154.246L184.565 149.617C180.648 148.365 177.032 147.47 168.986 142.889V142.889Z" fill="#005500"/>
<path d="M184.821 148.923L177.762 153.713L177.678 153.769L176.277 153.237L173.308 151.864L170.619 150.491L167.705 148.923L163.363 146.318L162.131 145.561L168.966 142.116L174.737 145.169L177.51 146.486L181.32 147.858L184.821 148.923Z" fill="white"/>
<path d="M168.937 142.004C177.613 146.945 180.963 147.593 185.187 148.943L177.736 153.938C172.111 151.685 166.905 148.78 161.88 145.589L168.937 142.004V142.004ZM168.986 142.261L162.443 145.584C167.103 148.543 172.441 151.529 177.657 153.619L184.565 148.989C180.648 147.738 177.032 146.843 168.986 142.261V142.261Z" fill="#005500"/>
<path d="M183.225 148.648C183.225 148.648 182.329 149.264 182.217 149.769C182.105 150.273 178.463 152.402 178.463 152.402H176.67L175.438 152.122L172.356 150.665L169.891 149.601L166.922 147.976L164.12 146.295V144.502L168.154 142.597L170.171 142.878L172.02 143.998L176.558 146.015L182.441 148.088L183.225 148.648Z" fill="white"/>
<path d="M168.94 141.868C177.554 146.576 180.88 147.194 185.074 148.481L177.676 153.241C172.092 151.093 166.924 148.325 161.935 145.284L168.94 141.868ZM167.23 143.206L164.896 144.412C165.046 144.712 165.131 145.045 165.131 145.397C165.131 145.797 165.023 146.175 164.832 146.505C168.199 148.687 171.951 150.388 175.794 151.976C176.219 151.585 176.843 151.339 177.539 151.339C178.107 151.339 178.626 151.506 179.029 151.78L181.765 150.005C181.588 149.726 181.49 149.408 181.49 149.069C181.49 148.713 181.601 148.382 181.794 148.093C178.742 147.288 173.304 144.802 170.494 143.397C170.09 143.596 169.581 143.716 169.024 143.716C168.307 143.716 167.666 143.518 167.23 143.206Z" fill="#165016"/>
<path d="M177.837 146.783C178.086 147.899 177.649 148.985 176.519 149.668C175.389 150.351 173.825 150.475 172.336 150.109L177.837 146.783Z" fill="#165016"/>
<path d="M167.806 148.014C167.569 146.987 167.984 145.987 169.058 145.358C170.131 144.729 171.617 144.614 173.031 144.951L167.806 148.014Z" fill="#165016"/>
<path d="M177.65 146.418L171.263 150.34L171.404 155.326L167.93 153.45L167.986 148.519L174.149 144.85L177.65 146.418Z" fill="#005500"/>
<path d="M184.609 148.648L184.556 149.039L184.215 149.351L184.662 149.63L184.379 149.988L184.688 150.221L184.46 150.608L184.788 150.972L184.373 151.309L184.809 151.566L184.276 151.925L184.775 152.142L184.421 152.457L184.724 152.708L184.346 153.128L184.805 153.41L178.082 158.004L178.295 157.565L180.913 155.57L178.828 156.596L182.068 154.198L179.192 155.769L182.466 153.258L179.663 154.854L182.725 152.487L180.022 153.975L183.011 151.639L180.334 153.096L183.045 150.957L180.454 152.363L183.387 150.161L180.798 151.517L183.646 149.376L181.247 150.805L184.609 148.648Z" fill="#165016"/>
<line x1="130.254" y1="0.569537" x2="218.254" y2="52.5695" stroke="#3DB190"/>
<line x1="130.5" y1="1" x2="130.5" y2="53" stroke="#514E53"/>
<path d="M86 27L86.0001 77" stroke="#A5ADD6"/>
<line x1="85.7428" y1="27.5713" x2="130.743" y2="0.571259" stroke="#F0D7F7"/>
<line x1="130.245" y1="52.436" x2="0.244774" y2="125.436" stroke="#F0D7F7"/>
<line x1="0.5" y1="125" x2="0.5" y2="178" stroke="#405797"/>
<line x1="0.743732" y1="177.571" x2="129.744" y2="100.571" stroke="#576991"/>
<line x1="130.256" y1="52.5704" x2="177.256" y2="80.5704" stroke="#2FE8E6"/>
<line x1="129.5" y1="52.9958" x2="129.903" y2="100.992" stroke="#00848A"/>
<line x1="176.723" y1="80.584" x2="260.723" y2="24.584" stroke="#239672"/>
<line x1="129.252" y1="100.568" x2="218.252" y2="152.568" stroke="#00CECC"/>
<line x1="217.968" y1="153.009" x2="217.5" y2="106.005" stroke="#033B52"/>
<line x1="177.272" y1="80.5808" x2="217.272" y2="106.581" stroke="#074960"/>
<line x1="218.243" y1="152.437" x2="173.243" y2="177.437" stroke="#033B52"/>
<line x1="0.233487" y1="177.558" x2="89.2335" y2="224.558" stroke="#1B79B0"/>
<line x1="174.753" y1="177.435" x2="130.753" y2="152.435" stroke="#024E4E"/>
<line x1="131.281" y1="152.413" x2="84.2814" y2="184.413" stroke="#024E4E"/>
<line x1="130.5" y1="153" x2="130.5" y2="258" stroke="url(#paint19_linear_23_103)"/>
<path d="M88 278L88.9992 180.991" stroke="#0A214A"/>
<line x1="83.8542" y1="184.072" x2="88.7843" y2="188.158" stroke="#024E4E"/>
<line x1="130.215" y1="257.451" x2="88.215" y2="277.451" stroke="#45854A"/>
<line x1="130.239" y1="257.561" x2="262.239" y2="329.561" stroke="#76AB82"/>
<line x1="262.5" y1="330.01" x2="260.514" y2="229.981" stroke="#87D9D1"/>
<line x1="173.972" y1="177" x2="174.5" y2="227.995" stroke="#003080"/>
<line x1="174.228" y1="227.555" x2="219.228" y2="250.555" stroke="#144844"/>
<line x1="88.2358" y1="275.441" x2="45.2358" y2="298.441" stroke="#4850CF"/>
<line x1="130.236" y1="298.441" x2="87.2358" y2="321.441" stroke="#4850CF"/>
<line x1="45.5001" y1="298.99" x2="47.5001" y2="201.99" stroke="#3B289B"/>
<line x1="45.2358" y1="298.559" x2="88.2358" y2="321.559" stroke="#4850CF"/>
<line x1="88.2249" y1="277.553" x2="227.225" y2="347.553" stroke="#1CB9E9"/>
<path d="M262.743 329.577L226.865 347.739" stroke="#0B626E"/>
<line x1="260.193" y1="24.6925" x2="306.266" y2="53.5765" stroke="#10EDF7"/>
<line x1="260.5" y1="24.9935" x2="262.487" y2="177.994" stroke="#176E76"/>
<line x1="262.247" y1="177.435" x2="174.247" y2="227.435" stroke="url(#paint20_linear_23_103)"/>
<line x1="218.778" y1="250.552" x2="307.778" y2="206.552" stroke="#144844"/>
<line x1="305.972" y1="52.9986" x2="308.028" y2="206.987" stroke="#10EDF7"/>
<line x1="261.76" y1="274.561" x2="347.76" y2="227.561" stroke="#154E71"/>
<line x1="308.254" y1="204.569" x2="347.254" y2="227.569" stroke="#005C72"/>
<line x1="347.5" y1="228" x2="347.5" y2="179" stroke="#1292C8"/>
<line x1="307.196" y1="154.684" x2="347.264" y2="179.575" stroke="#1292C8"/>
<line x1="218.723" y1="52.584" x2="260.723" y2="24.584" stroke="#E3C5F2"/>
<path d="M153.896 200.808H151.516C146.312 200.808 142.094 195.298 142.094 188.5C142.094 181.702 146.312 176.192 151.516 176.192H153.484L153.896 200.808Z" fill="#E4AF18"/>
<path d="M152.378 176.583H149.174C148.63 176.765 148.104 177.005 147.603 177.304H150.83C151.325 177.009 151.842 176.764 152.378 176.583Z" fill="#C49214"/>
<path d="M149.249 178.504H146.022C145.756 178.754 145.5 179.02 145.256 179.304H148.484C148.728 179.02 148.984 178.754 149.249 178.504Z" fill="#C49214"/>
<path d="M147.334 180.903H144.106C143.95 181.162 143.802 181.428 143.662 181.703H146.89C147.029 181.428 147.178 181.162 147.334 180.903Z" fill="#C49214"/>
<path d="M146.203 183.302H142.976C142.882 183.564 142.796 183.831 142.716 184.102H145.944C146.023 183.831 146.11 183.564 146.203 183.302Z" fill="#C49214"/>
<path d="M145.57 185.701H142.342C142.295 185.965 142.254 186.231 142.22 186.501H145.448C145.481 186.231 145.523 185.965 145.57 185.701Z" fill="#C49214"/>
<path d="M145.322 188.5C145.322 188.366 145.326 188.233 145.33 188.1H142.102C142.099 188.233 142.094 188.366 142.094 188.5C142.094 188.634 142.099 188.767 142.102 188.9H145.329C145.326 188.767 145.322 188.634 145.322 188.5Z" fill="#C49214"/>
<path d="M145.448 190.499H142.22C142.254 190.769 142.295 191.035 142.342 191.299H145.57C145.523 191.035 145.481 190.769 145.448 190.499Z" fill="#C49214"/>
<path d="M145.944 192.898H142.716C142.796 193.169 142.882 193.436 142.976 193.698H146.203C146.11 193.436 146.023 193.169 145.944 192.898Z" fill="#C49214"/>
<path d="M146.89 195.297H143.662C143.802 195.572 143.951 195.838 144.106 196.097H147.334C147.178 195.838 147.029 195.572 146.89 195.297Z" fill="#C49214"/>
<path d="M148.484 197.696H145.257C145.501 197.98 145.756 198.246 146.022 198.496H149.25C148.984 198.246 148.728 197.98 148.484 197.696Z" fill="#C49214"/>
<path d="M150.655 199.592L147.602 199.696C148.11 199.999 148.643 200.241 149.194 200.424H152.398C151.791 200.22 151.208 199.941 150.655 199.592Z" fill="#C49214"/>
<path d="M153.484 200.808C158.687 200.808 162.906 195.298 162.906 188.5C162.906 181.702 158.687 176.192 153.484 176.192C148.28 176.192 144.062 181.702 144.062 188.5C144.062 195.298 148.28 200.808 153.484 200.808Z" fill="#FFD949"/>
<path d="M153.482 198.073C157.529 198.073 160.81 193.787 160.81 188.5C160.81 183.213 157.529 178.927 153.482 178.927C149.435 178.927 146.154 183.213 146.154 188.5C146.154 193.787 149.435 198.073 153.482 198.073Z" fill="#E4AF18"/>
<path d="M157.833 186.656V184.539C157.833 183.34 156.759 182.465 155.439 182.589L154.611 182.666V181.528L153.243 181.656V182.794L150.184 183.08V184.447L151.035 184.368V193.194L150.184 193.274V194.641L153.243 194.356V195.468L154.611 195.34V194.228L155.439 194.151C156.759 194.027 157.833 192.952 157.833 191.753V189.636C157.833 189.059 157.582 188.559 157.177 188.207C157.582 187.78 157.833 187.233 157.833 186.656ZM156.465 189.763V191.881C156.465 192.318 155.995 192.731 155.439 192.783L152.402 193.067V189.337L155.439 189.053C155.995 189.001 156.465 189.327 156.465 189.763ZM152.402 187.969V184.24L155.439 183.956C155.995 183.904 156.465 184.23 156.465 184.666V186.784C156.465 187.221 155.995 187.634 155.439 187.686L152.402 187.969Z" fill="#FFD949"/>
<path d="M198.5 176.465C191.853 176.465 186.465 181.853 186.465 188.5C186.465 195.147 191.853 200.535 198.5 200.535C205.147 200.535 210.535 195.147 210.535 188.5C210.535 181.853 205.147 176.465 198.5 176.465Z" fill="#FCC62D"/>
<path d="M198.5 177.012C204.834 177.012 209.988 182.166 209.988 188.5C209.988 194.834 204.834 199.988 198.5 199.988C192.166 199.988 187.012 194.834 187.012 188.5C187.012 182.166 192.166 177.012 198.5 177.012ZM198.5 176.192C191.702 176.192 186.192 181.702 186.192 188.5C186.192 195.298 191.702 200.808 198.5 200.808C205.298 200.808 210.808 195.298 210.808 188.5C210.808 181.702 205.298 176.192 198.5 176.192Z" fill="#45563C"/>
<path d="M202.647 190.971C202.42 190.971 202.237 191.154 202.237 191.381C202.237 192.238 201.667 192.935 200.966 192.935H196.034C195.334 192.935 194.764 192.238 194.764 191.381V185.619C194.764 184.762 195.334 184.065 196.034 184.065H200.966C201.667 184.065 202.237 184.762 202.237 185.619C202.237 185.846 202.42 186.029 202.647 186.029C202.873 186.029 203.057 185.846 203.057 185.619C203.057 184.31 202.119 183.244 200.966 183.244H198.91V181.662C198.91 181.435 198.727 181.252 198.5 181.252C198.273 181.252 198.09 181.435 198.09 181.662V183.244H196.034C194.881 183.244 193.943 184.31 193.943 185.619V191.381C193.943 192.69 194.881 193.756 196.034 193.756H198.09V195.338C198.09 195.564 198.273 195.748 198.5 195.748C198.727 195.748 198.91 195.564 198.91 195.338V193.756H200.966C202.119 193.756 203.057 192.69 203.057 191.381C203.057 191.154 202.873 190.971 202.647 190.971Z" fill="#45563C"/>
<defs>
<linearGradient id="paint0_linear_23_103" x1="223" y1="238" x2="226" y2="272.5" gradientUnits="userSpaceOnUse">
<stop stop-color="#0A2E26"/>
<stop offset="1" stop-color="#A5AF1B"/>
</linearGradient>
<linearGradient id="paint1_linear_23_103" x1="126.5" y1="24.5" x2="218" y2="80" gradientUnits="userSpaceOnUse">
<stop stop-color="#EAEFCE"/>
<stop offset="0.966941" stop-color="white"/>
</linearGradient>
<linearGradient id="paint2_linear_23_103" x1="-2.78285e-06" y1="149.5" x2="130" y2="78.5" gradientUnits="userSpaceOnUse">
<stop stop-color="#696FA2"/>
<stop offset="1" stop-color="#BFA1D8"/>
</linearGradient>
<linearGradient id="paint3_linear_23_103" x1="129" y1="77" x2="218" y2="130.5" gradientUnits="userSpaceOnUse">
<stop stop-color="#00FFFF"/>
<stop offset="1" stop-color="#00333C"/>
</linearGradient>
<linearGradient id="paint4_linear_23_103" x1="259.5" y1="25" x2="202.5" y2="132.5" gradientUnits="userSpaceOnUse">
<stop stop-color="#B5FAFF"/>
<stop offset="1" stop-color="#003747"/>
</linearGradient>
<linearGradient id="paint5_linear_23_103" x1="284.25" y1="25" x2="284.25" y2="206.5" gradientUnits="userSpaceOnUse">
<stop stop-color="#00E5FD"/>
<stop offset="1" stop-color="#008EB2"/>
</linearGradient>
<linearGradient id="paint6_linear_23_103" x1="327.5" y1="155" x2="327.5" y2="228" gradientUnits="userSpaceOnUse">
<stop stop-color="#00E5FD"/>
<stop offset="1" stop-color="#39B3C0"/>
</linearGradient>
<linearGradient id="paint7_linear_23_103" x1="1" y1="179" x2="106" y2="180.5" gradientUnits="userSpaceOnUse">
<stop stop-color="#00E5FD"/>
<stop offset="1" stop-color="#4737AB"/>
</linearGradient>
<linearGradient id="paint8_linear_23_103" x1="85.5" y1="76.5" x2="152.5" y2="140.5" gradientUnits="userSpaceOnUse">
<stop stop-color="#5032B1"/>
<stop offset="1" stop-color="#003A39"/>
</linearGradient>
<linearGradient id="paint9_linear_23_103" x1="220" y1="183.5" x2="254.5" y2="164" gradientUnits="userSpaceOnUse">
<stop stop-color="#00474F"/>
<stop offset="1" stop-color="#0094A1"/>
</linearGradient>
<linearGradient id="paint10_linear_23_103" x1="199" y1="260.5" x2="280.5" y2="313.5" gradientUnits="userSpaceOnUse">
<stop stop-color="#3C9D53"/>
<stop offset="1" stop-color="white"/>
</linearGradient>
<linearGradient id="paint11_linear_23_103" x1="152.5" y1="199.5" x2="152.5" y2="257.5" gradientUnits="userSpaceOnUse">
<stop stop-color="#008F83"/>
<stop offset="1" stop-color="#01402C"/>
</linearGradient>
<linearGradient id="paint12_linear_23_103" x1="67" y1="239.5" x2="67" y2="298.5" gradientUnits="userSpaceOnUse">
<stop stop-color="#0E7594"/>
<stop offset="1" stop-color="#319EBE"/>
</linearGradient>
<linearGradient id="paint13_linear_23_103" x1="109" y1="165.5" x2="109" y2="267.5" gradientUnits="userSpaceOnUse">
<stop stop-color="#000C0D"/>
<stop offset="1" stop-color="#415133"/>
</linearGradient>
<linearGradient id="paint14_linear_23_103" x1="88" y1="297" x2="109.5" y2="312" gradientUnits="userSpaceOnUse">
<stop stop-color="#00F4FF"/>
<stop offset="1" stop-color="#0AB8C0"/>
</linearGradient>
<linearGradient id="paint15_linear_23_103" x1="112" y1="265" x2="249.5" y2="337.5" gradientUnits="userSpaceOnUse">
<stop stop-color="#89FFCD"/>
<stop offset="1" stop-color="#4DE7AC"/>
</linearGradient>
<linearGradient id="paint16_linear_23_103" x1="277" y1="185" x2="196.5" y2="239.5" gradientUnits="userSpaceOnUse">
<stop stop-color="#0090AE"/>
<stop offset="1" stop-color="#0B3E2F"/>
</linearGradient>
<linearGradient id="paint17_linear_23_103" x1="260.5" y1="251" x2="332" y2="216.5" gradientUnits="userSpaceOnUse">
<stop stop-color="#007895"/>
<stop offset="1" stop-color="#005B72"/>
</linearGradient>
<linearGradient id="paint18_linear_23_103" x1="173.5" y1="125" x2="175.75" y2="228" gradientUnits="userSpaceOnUse">
<stop stop-color="white"/>
<stop offset="0.0001" stop-color="#D8E8DA"/>
<stop offset="0.510417" stop-color="#9BC89C"/>
<stop offset="1" stop-color="#A0C6A0"/>
</linearGradient>
<linearGradient id="paint19_linear_23_103" x1="130" y1="263.5" x2="130" y2="153" gradientUnits="userSpaceOnUse">
<stop stop-color="#363D58"/>
<stop offset="1" stop-color="#7907A4"/>
</linearGradient>
<linearGradient id="paint20_linear_23_103" x1="174" y1="228" x2="263.5" y2="178.5" gradientUnits="userSpaceOnUse">
<stop stop-color="#A5B830"/>
<stop offset="1" stop-color="#03313C"/>
</linearGradient>
</defs>
</svg>
