<svg xmlns="http://www.w3.org/2000/svg" width="50" height="50" viewBox="0 0 50 50" fill="none">
<path d="M0 25C0 11.1888 11.1888 0 25 0C38.8112 0 50 11.1888 50 25C50 38.8112 38.8112 50 25 50C11.1888 49.9709 0 38.7821 0 25Z" fill="#5865F2"/>
<path d="M36.2471 14.831C34.1201 13.8695 31.9056 13.1702 29.6037 12.7914C29.3124 13.3159 28.9918 13.986 28.7587 14.5396C26.3112 14.1608 23.8345 14.1608 21.387 14.5396C21.1247 13.9277 20.8333 13.345 20.5128 12.7914C18.211 13.1702 15.9674 13.8695 13.8695 14.8601C9.67367 21.1247 8.5373 27.2145 9.09092 33.2459C11.5676 35.0816 14.3065 36.4802 17.2494 37.3543C17.9196 36.4511 18.5023 35.5187 18.9977 34.528C18.0361 34.1783 17.1329 33.7413 16.2588 33.2168C16.4919 33.042 16.6958 32.8671 16.9289 32.6923C22.0863 35.1399 28.0886 35.1399 33.2459 32.6923C33.479 32.8671 33.683 33.042 33.9161 33.2168C33.042 33.7413 32.1096 34.1783 31.148 34.528C31.6434 35.5187 32.2261 36.4511 32.8963 37.3543C35.8392 36.4511 38.6072 35.0816 41.0548 33.2459C41.6958 26.2529 39.8893 20.1923 36.2471 14.831ZM19.697 29.5163C18.0944 29.5163 16.8124 28.0594 16.8124 26.2821C16.8124 24.5047 18.0944 23.0187 19.697 23.0187C21.3287 23.0187 22.6107 24.4755 22.6107 26.2821C22.5816 28.0594 21.3287 29.5163 19.697 29.5163ZM30.4196 29.5163C28.817 29.5163 27.535 28.0594 27.535 26.2821C27.535 24.5047 28.817 23.0187 30.4196 23.0187C32.0513 23.0187 33.3333 24.4755 33.3042 26.2821C33.2751 28.0886 32.0222 29.5163 30.4196 29.5163Z" fill="white"/>
</svg>
