<svg xmlns="http://www.w3.org/2000/svg" width="50" height="50" viewBox="0 0 50 50" fill="none">
<path d="M25 0C11.1942 0 0 11.1942 0 25C0 38.8058 11.1942 50 25 50C38.8058 50 50 38.8058 50 25C50 11.1942 38.8058 0 25 0ZM39.2857 14.1574L37.0089 16.3393C36.808 16.49 36.7132 16.7355 36.7522 16.9754V33.0301C36.7132 33.2757 36.808 33.5212 37.0089 33.6663L39.2411 35.8482V36.3337H28.0357V35.8705L30.3404 33.6328C30.5692 33.404 30.5692 33.3371 30.5692 32.9967V20.0056L24.1518 36.2779H23.2868L15.8203 20.0056V30.9152C15.7533 31.3728 15.9152 31.8359 16.2388 32.1652L19.2411 35.798V36.2835H10.7143V35.798L13.7165 32.1652C13.8747 32.0018 13.9924 31.8036 14.0602 31.5866C14.1281 31.3695 14.1441 31.1396 14.1071 30.9152V18.3036C14.1462 17.952 14.0123 17.6116 13.7444 17.3717L11.077 14.1574V13.6719H19.3638L25.7589 27.7065L31.3895 13.683H39.2857V14.1574Z" fill="black"/>
</svg>
