<svg width="77" height="77" viewBox="0 0 77 77" fill="none" xmlns="http://www.w3.org/2000/svg">
<circle cx="38.5" cy="38.5" r="38" fill="#2669F5" stroke="#2669F5"/>
<path d="M28.5 21C28.5 20.1716 27.8284 19.5 27 19.5C26.1716 19.5 25.5 20.1716 25.5 21H28.5ZM25.9393 57.0607C26.5251 57.6464 27.4749 57.6464 28.0607 57.0607L37.6066 47.5147C38.1924 46.9289 38.1924 45.9792 37.6066 45.3934C37.0208 44.8076 36.0711 44.8076 35.4853 45.3934L27 53.8787L18.5147 45.3934C17.9289 44.8076 16.9792 44.8076 16.3934 45.3934C15.8076 45.9792 15.8076 46.9289 16.3934 47.5147L25.9393 57.0607ZM25.5 21L25.5 56H28.5L28.5 21H25.5Z" fill="#EDEDED"/>
<path d="M49.5 55.9907C49.4954 56.8191 50.1633 57.4944 50.9917 57.499C51.8201 57.5036 52.4954 56.8358 52.5 56.0073L49.5 55.9907ZM52.2607 19.9448C51.6782 19.3558 50.7284 19.3505 50.1394 19.933L40.5407 29.4259C39.9516 30.0084 39.9464 30.9581 40.5289 31.5472C41.1114 32.1362 42.0611 32.1415 42.6502 31.5589L51.1824 23.1208L59.6205 31.6531C60.203 32.2421 61.1527 32.2474 61.7418 31.6648C62.3308 31.0823 62.3361 30.1326 61.7535 29.5436L52.2607 19.9448ZM52.5 56.0073L52.6941 21.0079L49.6942 20.9912L49.5 55.9907L52.5 56.0073Z" fill="#EDEDED"/>
</svg>
