<?xml version="1.0" encoding="UTF-8" standalone="no"?>
<!-- Created with Inkscape (http://www.inkscape.org/) -->

<svg
   xmlns:dc="http://purl.org/dc/elements/1.1/"
   xmlns:cc="http://creativecommons.org/ns#"
   xmlns:rdf="http://www.w3.org/1999/02/22-rdf-syntax-ns#"
   xmlns:svg="http://www.w3.org/2000/svg"
   xmlns="http://www.w3.org/2000/svg"
   xmlns:sodipodi="http://sodipodi.sourceforge.net/DTD/sodipodi-0.dtd"
   xmlns:inkscape="http://www.inkscape.org/namespaces/inkscape"
   version="1.1"
   id="svg2"
   xml:space="preserve"
   width="230"
   height="230"
   viewBox="0 0 230.00001 230"
   sodipodi:docname="SVG Patrick Star.svg"
   inkscape:version="0.92.2 5c3e80d, 2017-08-06"><metadata
     id="metadata8"><rdf:RDF><cc:Work
         rdf:about=""><dc:format>image/svg+xml</dc:format><dc:type
           rdf:resource="http://purl.org/dc/dcmitype/StillImage" /><dc:title></dc:title></cc:Work></rdf:RDF></metadata><defs
     id="defs6" /><sodipodi:namedview
     pagecolor="#ffffff"
     bordercolor="#666666"
     borderopacity="1"
     objecttolerance="10"
     gridtolerance="10"
     guidetolerance="10"
     inkscape:pageopacity="0"
     inkscape:pageshadow="2"
     inkscape:window-width="1440"
     inkscape:window-height="773"
     id="namedview4"
     showgrid="false"
     inkscape:zoom="0.5"
     inkscape:cx="35.08145"
     inkscape:cy="61.986879"
     inkscape:window-x="0"
     inkscape:window-y="0"
     inkscape:window-maximized="0"
     inkscape:current-layer="g10"
     fit-margin-top="0"
     fit-margin-left="0"
     fit-margin-right="0"
     fit-margin-bottom="0" /><g
     id="g10"
     inkscape:groupmode="layer"
     inkscape:label="SB_MAINCHAR2_PATRICK"
     transform="matrix(1.3333333,0,0,-1.3333333,-214.30838,416.01312)"><g
       id="MAIN_CHARACTER_2"
       transform="matrix(0.23056488,0,0,0.23056488,195.01755,173.88287)"
       inkscape:label="SB_MAINCHAR2_PATRICK"
       sodipodi:insensitive="true"><title
         id="title1163">Patrick</title><g
         transform="matrix(6.1168976,0,0,6.1168976,-1314.4313,-2323.2441)"
         id="g12"><g
           transform="translate(208.69,380.457)"
           id="g14"><path
             inkscape:connector-curvature="0"
             id="path16"
             style="fill:#fde8f1;fill-opacity:1;fill-rule:nonzero;stroke:none"
             d="M 0,0 C -0.088,0.087 -0.186,0.184 -0.275,0.274 0,-0.274 0,-0.186 0,0" /></g></g><g
         transform="matrix(6.1168976,0,0,6.1168976,-1314.4313,-2323.2441)"
         id="g24"><g
           transform="translate(247.315,454.992)"
           id="g26"><path
             inkscape:connector-curvature="0"
             id="path28"
             style="fill:#000000;fill-opacity:1;fill-rule:nonzero;stroke:none"
             d="m 0,0 c 0.124,0.154 1.131,2.284 2.51,4.685 2.439,4.251 5.71,8.213 9.664,11.219 1.41,1.071 6.243,4.642 8.16,1.746 1.039,-1.792 0.754,-4.668 0.151,-6.685 -0.452,-2.048 -2.017,-2.916 -2.92,-5.285 -0.86,-1.972 -0.317,-4.292 -0.482,-6.504 -0.059,-4.294 0.103,-8.466 0.423,-12.555 0.088,-1.132 0.902,-7.32 1.247,-9.233 0.19,-1.336 0.527,-2.451 0.879,-3.68 0.068,-0.239 0.281,-0.882 0.386,-0.942 3.377,2.728 6.722,5.513 10.213,8.056 2.673,1.949 5.432,3.756 8.352,5.285 1.032,0.481 2.072,0.948 3.12,1.392 1.04,0.44 2.46,1.007 3.6,0.752 4.119,-0.925 1.686,-6.199 0.552,-8.544 -1.716,-3.162 -3.899,-6.068 -6.007,-9.004 -2.982,-3.719 -11.307,-14.303 -12.06,-15.463 0.015,-0.17 0.739,-1.623 1.26,-3.047 0.431,-1.177 0.666,-2.332 0.757,-2.735 0.105,-0.165 0.468,-2.876 0.407,-3.794 0.166,0 -0.015,-0.166 0,-0.256 0.021,-0.555 0.378,-1.535 0.5,-2.446 0.132,-0.989 0.032,-1.897 0.072,-2.102 -0.332,-2.393 -0.557,-4.697 -1.446,-6.865 -0.647,-1.37 -1.144,-2.785 -1.956,-4.08 -0.059,-0.113 -0.625,-1.197 -1.314,-2.197 -0.595,-0.863 -1.327,-1.664 -1.351,-1.717 -0.528,-0.634 -1.356,-1.191 -1.732,-1.762 -0.527,-0.903 -0.226,-2.259 -0.302,-3.179 -0.134,-1.474 0.452,-2.888 -0.03,-4.304 -0.391,-0.723 -2.41,-1.386 -2.71,-1.551 -0.175,-0.465 -0.36,-1.97 -0.713,-3.42 -0.439,-1.799 -1.068,-3.611 -1.486,-4.396 -0.299,-0.553 -1.174,-1.879 -2.115,-2.428 -1.181,-0.692 -2.467,-0.537 -2.841,-0.418 -0.995,0.316 -1.967,1.156 -2.528,1.734 -0.941,0.966 -1.631,2.669 -2.384,3.884 -1.1,2.225 -1.523,3.284 -1.815,3.914 -1.054,0.392 -2.274,0.587 -3.026,1.597 -0.301,0.406 -0.404,0.82 -0.287,1.445 0.211,0.601 0.272,0.963 0.497,1.475 -0.677,0.181 -1.701,0.091 -2.454,0.226 -2.318,0.256 -4.502,0.754 -6.835,1.114 0.091,-0.919 0.842,-2.169 -0.212,-2.965 -0.617,-0.407 -1.068,-0.34 -1.7,-0.701 -0.117,-0.066 -0.329,-1.503 -0.368,-1.717 -0.086,-0.464 -0.227,-0.91 -0.396,-1.351 -0.281,-0.736 -0.573,-1.495 -0.932,-2.198 -0.75,-1.46 -1.924,-2.659 -3.668,-2.674 -0.924,-0.01 -1.84,0.322 -2.582,0.867 -1.715,1.254 -2.683,3.649 -3.476,5.543 -0.553,1.324 -0.795,2.438 -1.045,4.112 -1.13,0.724 -2.214,1.446 -2.816,2.679 -0.016,0.453 -0.15,0.86 0.105,1.295 0.242,0.754 0.708,1.417 0.828,2.215 0.061,0.24 0.558,2.574 0.618,3.463 -1.506,1.309 -2.049,3.283 -2.816,5.028 -0.919,2.802 -1.505,6.039 -1.446,9.064 0.197,0.648 0.347,4.14 0.875,4.487 -0.574,3.433 0.631,6.956 2.845,9.635 0.136,0.288 0.497,0.483 0.511,0.799 -0.196,0.106 -0.406,0.287 -0.541,0.467 -2.815,3.809 -5.24,7.649 -7.59,11.684 -0.196,0.434 -2.185,3.758 -3.74,7.042 -1.31,2.768 -2.205,5.507 -2.508,6.464 -0.689,2.182 -1.646,8.216 2.182,7.685 1.382,-0.192 2.804,-1.147 3.945,-1.929 3.374,-2.315 7.445,-6.265 9.499,-7.961 1.922,-1.588 3.89,-3.012 5.522,-4.288 2.127,-1.662 3.682,-2.53 3.816,-2.496 1.1,2.288 2.049,4.653 2.816,7.077 -0.933,2.108 -0.829,4.457 -0.316,6.655 0.136,0.135 0.045,0.407 0.18,0.572 0.813,1.912 1.642,3.75 3.568,4.878 0.257,0.241 0.693,0.331 1.055,0.512 0.451,0.09 0.934,0.241 1.4,0.181 0.407,1.129 0.799,2.123 1.31,3.207 L 0,0" /></g></g><g
         transform="matrix(6.1168976,0,0,6.1168976,-1314.4313,-2323.2441)"
         id="g30"><g
           transform="translate(248.182,455.175)"
           id="g32"><path
             inkscape:connector-curvature="0"
             id="path34"
             style="fill:#f6a3a5;fill-opacity:1;fill-rule:nonzero;stroke:none"
             d="m 0,0 c 1.979,3.905 4.286,7.675 7.416,10.977 0.963,1.016 4.72,4.457 5.818,5.044 1.131,0.604 3.368,1.983 4.683,1.568 0.14,-0.045 0.268,-0.11 0.386,-0.192 2.028,-1.413 0.952,-4.403 0.379,-6.27 -0.693,-2.258 -2.95,-3.811 -3.189,-6.202 -0.139,-1.399 -0.211,-5.126 -0.185,-8.778 0.011,-1.782 -0.002,-4.772 0.135,-7.458 0.128,-2.481 0.401,-4.702 0.532,-5.476 0.452,-3.87 1.295,-7.559 2.528,-11.096 -1.189,-1.446 -2.95,-2.41 -3.794,-4.156 0.046,-0.136 0.166,-0.031 0.242,-0.047 2.981,2.741 6.159,5.407 9.29,7.846 3.086,2.409 6.203,4.697 9.546,6.73 1.971,1.235 3.914,2.395 6.037,3.388 1.461,0.587 3.042,1.505 4.623,1.16 0.587,-0.136 1.175,-0.663 1.445,-1.235 0.287,-1.867 -0.497,-3.659 -1.445,-5.195 -1.22,-2.514 -2.981,-4.818 -4.441,-7.197 -4.323,-5.556 -8.764,-11.036 -12.95,-16.728 -1.219,-1.882 -2.634,-3.733 -3.643,-5.752 0.12,-0.135 0.165,0.106 0.286,0.075 0.873,1.085 1.732,2.169 2.604,3.252 1.13,-1.941 1.747,-4.199 2.275,-6.398 0.179,-1.34 0.24,-2.981 -0.754,-4.035 -1.445,-1.309 -2.951,-2.862 -4.592,-3.764 -1.958,-1.25 -4.035,-2.199 -6.143,-3.072 -2.243,-0.979 -4.683,-1.852 -7.153,-2.454 -2.175,-0.582 -7.288,-1.022 -12.022,-0.675 -4.205,0.306 -8.113,1.335 -9.403,1.894 -1.326,0.512 -2.605,1.19 -3.914,1.626 -2.545,1.205 -5.03,2.56 -7.047,4.819 -1.099,1.34 -2.544,2.529 -2.996,4.185 0.18,1.974 -0.031,3.915 0.768,5.752 2.785,4.849 6.384,9.229 9.214,14.093 1.626,2.756 3.253,5.466 4.578,8.416 0.707,1.958 1.611,3.825 2.168,5.857 1.039,-1.234 2.394,-1.956 3.945,-1.882 1.505,0.287 2.92,1.04 3.869,2.349 0.798,-1.61 2.56,-3.026 4.471,-2.815 2.907,0.331 4.955,3.478 5.602,6.068 0.527,2.258 0.407,4.878 -0.859,6.865 -0.827,1.129 -2.032,1.792 -3.327,1.988 -1.761,0.075 -3.147,-1.129 -4.336,-2.394 -0.331,0.331 -0.346,0.828 -0.693,1.129 -0.708,1.039 -1.701,1.566 -2.845,1.882 0.573,1.22 1.159,2.455 1.701,3.644 L 0,0" /></g></g><g
         transform="matrix(6.1168976,0,0,6.1168976,-1314.4313,-2323.2441)"
         id="g36"><g
           transform="translate(261.145,464.21)"
           id="g38"><path
             inkscape:connector-curvature="0"
             id="path40"
             style="fill:#ef523a;fill-opacity:1;fill-rule:nonzero;stroke:none"
             d="m 0,0 c -0.27,-0.512 -0.407,-1.19 -1.008,-1.581 -0.106,0.09 -0.271,0.136 -0.316,0.286 0.134,0.617 0.451,1.371 1.114,1.596 C -0.105,0.211 -0.06,0.105 0,0" /></g></g><g
         transform="matrix(6.1168976,0,0,6.1168976,-1314.4313,-2323.2441)"
         id="g42"><g
           transform="translate(256.342,453.414)"
           id="g44"><path
             inkscape:connector-curvature="0"
             id="path46"
             style="fill:#000000;fill-opacity:1;fill-rule:nonzero;stroke:none"
             d="M 0,0 C 0.486,-0.423 1.292,-0.765 1.436,-1.461 1.547,-2.004 1.341,-2.003 0.951,-1.817 0.562,-1.63 0.145,-1.448 -0.195,-1.179 0.139,-1.443 1.639,-3.15 0.362,-3.222 c -1.054,1.07 -2.424,1.913 -3.644,2.711 -0.22,0.144 0.532,0.393 0.601,0.393 0.489,0.002 1.138,-0.281 1.357,-0.742 -0.095,0.157 -0.135,0.333 -0.25,0.478 -0.222,0.283 -0.852,0.466 -0.791,0.903 0.051,0.371 0.495,0.437 0.786,0.307 C -1.038,0.588 -0.512,0.316 0,0" /></g></g><g
         transform="matrix(6.1168976,0,0,6.1168976,-1314.4313,-2323.2441)"
         id="g48"><g
           transform="translate(248.001,446.368)"
           id="g50"><path
             inkscape:connector-curvature="0"
             id="path52"
             style="fill:#ffffff;fill-opacity:1;fill-rule:nonzero;stroke:none"
             d="m 0,0 c 0.196,-0.301 0.271,-0.648 0.466,-0.934 0.053,-0.076 -0.652,-1.198 -0.723,-1.346 -0.236,-0.486 -0.451,-0.983 -0.625,-1.495 -0.593,-1.74 -0.765,-4.054 -0.066,-5.801 0,-0.076 0.015,-0.166 -0.031,-0.211 -0.919,-1.16 -2.228,-2.168 -3.764,-2.213 -1.415,0.029 -2.755,0.753 -3.463,2.063 -1.55,3.025 -0.978,7.091 1.054,9.681 1.174,1.37 2.635,2.484 4.517,2.213 C -1.536,1.686 -0.632,1.023 0,0" /></g></g><g
         transform="matrix(6.1168976,0,0,6.1168976,-1314.4313,-2323.2441)"
         id="g54"><g
           transform="translate(256.296,445.74)"
           id="g56"><path
             inkscape:connector-curvature="0"
             id="path58"
             style="fill:#ffffff;fill-opacity:1;fill-rule:nonzero;stroke:none"
             d="m 0,0 c 0.38,-0.613 0.642,-1.3 0.762,-1.934 0.303,-1.605 0.232,-3.37 -0.277,-4.925 -0.262,-0.803 -0.643,-1.642 -1.116,-2.346 -0.965,-1.429 -2.47,-2.709 -4.156,-2.814 -1.626,0.014 -3.192,0.933 -3.764,2.499 -1.446,3.658 -0.436,7.723 2.378,10.328 1.19,1.13 2.997,1.506 4.488,0.799 C -0.999,1.281 -0.426,0.687 0,0" /></g></g><g
         transform="matrix(6.1168976,0,0,6.1168976,-1314.4313,-2323.2441)"
         id="g60"><g
           transform="translate(217.316,442.859)"
           id="g62"><path
             inkscape:connector-curvature="0"
             id="path64"
             style="fill:#f6a3a5;fill-opacity:1;fill-rule:nonzero;stroke:none"
             d="m 0,0 c 5.193,-3.598 9.786,-8.351 14.891,-11.924 1.398,-0.979 2.319,-1.853 3.689,-2.274 -2.469,-4.411 -5.134,-8.792 -7.95,-12.904 -0.558,-0.857 -1.176,-1.761 -1.807,-2.529 -0.632,0.467 -1.069,1.176 -1.551,1.777 -1.973,2.786 -3.825,5.631 -5.496,8.627 -0.828,1.551 -1.596,2.966 -2.454,4.457 -1.401,2.62 -2.756,5.3 -3.735,8.161 -0.774,2.265 -2.529,5.837 -1.099,8.156 C -4.324,3.475 -1.174,0.703 0,0" /></g></g><g
         transform="matrix(6.1168976,0,0,6.1168976,-1314.4313,-2323.2441)"
         id="g66"><g
           transform="translate(245.715,442.98)"
           id="g68"><path
             inkscape:connector-curvature="0"
             id="path70"
             style="fill:#000000;fill-opacity:1;fill-rule:nonzero;stroke:none"
             d="m 0,0 c 0.033,-0.042 0.061,-0.087 0.086,-0.137 0.387,-0.762 0.189,-2.03 -0.3,-2.693 -0.301,-0.347 -0.813,-0.678 -1.295,-0.543 -0.602,0.287 -1.008,0.903 -0.978,1.551 0.025,0.55 0.32,1.387 0.655,1.82 C -1.4,0.556 -0.418,0.558 0,0" /></g></g><g
         transform="matrix(6.1168976,0,0,6.1168976,-1314.4313,-2323.2441)"
         id="g72"><g
           transform="translate(252.623,442.393)"
           id="g74"><path
             inkscape:connector-curvature="0"
             id="path76"
             style="fill:#000000;fill-opacity:1;fill-rule:nonzero;stroke:none"
             d="m 0,0 c 0.528,-0.633 0.512,-1.551 0.287,-2.319 -0.196,-0.406 -0.498,-0.858 -0.934,-1.084 -1.464,-0.758 -2.121,0.949 -1.802,2.087 0.157,0.556 0.562,1.387 1.154,1.603 C -0.797,0.466 -0.391,0.316 0,0" /></g></g><g
         transform="matrix(6.1168976,0,0,6.1168976,-1314.4313,-2323.2441)"
         id="g78"><g
           transform="translate(260.35,432.06)"
           id="g80"><path
             inkscape:connector-curvature="0"
             id="path82"
             style="fill:#000000;fill-opacity:1;fill-rule:nonzero;stroke:none"
             d="m 0,0 c 0.443,-0.369 0.767,-0.709 0.678,-0.829 -0.26,-0.347 -1.479,0.961 -1.509,0.758 -0.086,-0.579 -0.069,-0.769 -0.211,-1.19 -0.332,-2.409 -1.52,-4.652 -2.679,-6.655 -1.009,-1.43 -2.139,-3.312 -5.442,-5.201 -2.402,-1.372 -4.966,-1.694 -6.261,-1.768 -1.054,-0.061 -2.313,-0.037 -3.342,0.151 -1.174,0.213 -2.662,0.806 -3.619,1.549 -0.616,0.479 -2.298,1.599 -2.177,2.516 0.591,-0.036 1.205,-0.989 1.678,-1.309 -0.094,0.064 0.707,0.583 1.466,1.457 0.789,0.906 1.544,2.177 1.736,2.937 0.407,1.174 0.813,2.619 0.542,3.93 -0.004,0.045 -0.095,0.374 -0.239,0.489 -0.427,0.345 -1.308,0.689 -1.612,1.061 -0.031,0.09 0.075,0.121 0.105,0.181 0.451,-0.225 0.675,-0.244 1.385,-0.647 1.062,-0.411 4.29,-1.011 7.596,-0.582 3.726,0.484 7.583,2.077 9.162,2.93 0.287,0.196 0.678,0.481 0.903,0.723 -0.407,0.361 -1.084,0.135 -1.22,0.768 0.378,0.511 0.706,0.134 1.265,-0.075 C -1.623,1.129 -0.67,0.557 0,0" /></g></g><g
         transform="matrix(6.1168976,0,0,6.1168976,-1314.4313,-2323.2441)"
         id="g84"><g
           transform="translate(224.076,432.817)"
           id="g86"><path
             inkscape:connector-curvature="0"
             id="path88"
             style="fill:#ef523a;fill-opacity:1;fill-rule:nonzero;stroke:none"
             d="m 0,0 c 0.436,-0.045 0.828,-0.301 1.114,-0.617 0.074,-0.286 -0.272,-0.211 -0.392,-0.317 -0.466,0.241 -1.144,0.332 -1.415,0.753 0,0.12 0,0.286 0.121,0.331 C -0.347,0.211 -0.196,-0.121 0,0" /></g></g><g
         transform="matrix(6.1168976,0,0,6.1168976,-1314.4313,-2323.2441)"
         id="g90"><g
           transform="translate(254.867,422.774)"
           id="g92"><path
             inkscape:connector-curvature="0"
             id="path94"
             style="fill:#692d31;fill-opacity:1;fill-rule:nonzero;stroke:none"
             d="m 0,0 c -0.292,-0.054 -0.794,0.278 -1.132,0.3 -0.217,0.013 -0.959,0.236 -1.8,0.164 -1.034,-0.089 -2.215,-0.5 -2.745,-0.795 -0.021,-0.012 -1.223,0.573 -2.599,0.488 -1.573,-0.096 -3.353,-0.909 -3.899,-1.244 -1.339,-0.818 -2.779,-2.951 -2.325,-3.219 -0.767,0.451 -1.67,0.662 -2.349,1.19 0.233,-0.181 1.799,1.878 1.933,2.09 0.523,0.832 1.085,2.143 1.351,3.087 0.242,0.855 0.613,3.034 0.45,3.721 2.094,-0.422 4.412,-0.557 6.715,-0.256 3.388,0.407 6.641,1.52 9.577,3.222 0.301,0.09 1.249,1.1 0.828,0 C 3.539,5.496 2.198,2.62 0,0" /></g></g><g
         transform="matrix(6.1168976,0,0,6.1168976,-1314.4313,-2323.2441)"
         id="g96"><g
           transform="translate(279.906,423.708)"
           id="g98"><path
             inkscape:connector-curvature="0"
             id="path100"
             style="fill:#ef523a;fill-opacity:1;fill-rule:nonzero;stroke:none"
             d="m 0,0 c -0.075,-0.226 -0.211,-0.512 -0.361,-0.619 -0.211,-0.254 -0.317,-0.51 -0.648,-0.721 -0.166,-0.016 -0.285,0.059 -0.407,0.18 0.031,0.633 0.482,1.16 1.055,1.415 C -0.211,0.255 -0.06,0.135 0,0" /></g></g><g
         transform="matrix(6.1168976,0,0,6.1168976,-1314.4313,-2323.2441)"
         id="g102"><g
           transform="translate(253.242,422.519)"
           id="g104"><path
             inkscape:connector-curvature="0"
             id="path106"
             style="fill:#f8b9c0;fill-opacity:1;fill-rule:nonzero;stroke:none"
             d="M 0,0 C 0.382,-0.031 0.753,-0.106 1.082,-0.257 0.255,-1.371 -0.965,-2.139 -2.14,-2.861 -5.166,-4.639 -8.945,-5.15 -12.288,-4.262 c 0.587,1.897 2.605,3.222 4.366,3.614 0.829,0.361 2.079,0.225 2.997,0.105 -0.588,-0.467 -1.189,-1.039 -1.295,-1.701 0.362,0.27 0.888,0.963 1.521,1.159 0.966,0.3 1.732,0.829 2.78,0.974 C -1.328,-0.03 -0.646,0.05 0,0" /></g></g><g
         transform="matrix(6.1168976,0,0,6.1168976,-1314.4313,-2323.2441)"
         id="g108"><g
           transform="translate(249.19,422.443)"
           id="g110"><path
             inkscape:connector-curvature="0"
             id="path112"
             style="fill:#9f2538;fill-opacity:1;fill-rule:nonzero;stroke:none"
             d="M 0,0 C -0.021,-0.012 -1.224,0.573 -2.6,0.488 -4.172,0.392 -5.952,-0.421 -6.499,-0.756 -7.837,-1.574 -9.277,-3.707 -8.823,-3.975 l 0.587,-0.211 c 0.587,1.897 2.605,3.222 4.366,3.614 0.828,0.361 2.078,0.225 2.997,0.105 -0.588,-0.467 -1.19,-1.039 -1.295,-1.701 0.361,0.27 0.888,0.963 1.52,1.159 0.966,0.3 1.733,0.829 2.78,0.974 0.592,0.081 1.275,0.161 1.92,0.111 C 4.435,0.045 4.805,-0.03 5.134,-0.181 L 5.677,0.331 C 5.384,0.277 4.883,0.609 4.545,0.631 4.328,0.644 3.586,0.867 2.745,0.795 1.712,0.706 0.53,0.295 0,0" /></g></g><g
         transform="matrix(6.1168976,0,0,6.1168976,-1314.4313,-2323.2441)"
         id="g114"><g
           transform="translate(238.38,414.598)"
           id="g116"><path
             inkscape:connector-curvature="0"
             id="path118"
             style="fill:#ef523a;fill-opacity:1;fill-rule:nonzero;stroke:none"
             d="m 0,0 c -0.045,-0.512 -0.542,-0.888 -0.964,-1.083 -0.105,0.045 -0.451,-0.105 -0.437,0.151 0.046,0.42 0.406,0.812 0.798,1.007 C -0.407,0.165 -0.15,0.257 0,0" /></g></g><g
         transform="matrix(6.1168976,0,0,6.1168976,-1314.4313,-2323.2441)"
         id="g120"><g
           transform="translate(228.698,406.619)"
           id="g122"><path
             inkscape:connector-curvature="0"
             id="path124"
             style="fill:#ef523a;fill-opacity:1;fill-rule:nonzero;stroke:none"
             d="m 0,0 c 0.106,-0.558 -0.301,-0.979 -0.723,-1.266 -0.165,0.092 -0.451,-0.195 -0.542,0.106 0.015,0.587 0.467,1.054 0.979,1.265 C -0.18,0.09 -0.015,0.15 0,0" /></g></g><g
         transform="matrix(6.1168976,0,0,6.1168976,-1314.4313,-2323.2441)"
         id="g126"><g
           transform="translate(248.211,401.455)"
           id="g128"><path
             inkscape:connector-curvature="0"
             id="path130"
             style="fill:#ef523a;fill-opacity:1;fill-rule:nonzero;stroke:none"
             d="m 0,0 c -0.029,-0.557 -0.151,-1.129 -0.617,-1.446 -0.18,0.014 -0.301,0.135 -0.316,0.317 0,0.601 0.136,1.084 0.616,1.445 C -0.165,0.269 -0.044,0.166 0,0" /></g></g><g
         transform="matrix(6.1168976,0,0,6.1168976,-1314.4313,-2323.2441)"
         id="g132"><g
           transform="translate(227.592,395.06)"
           id="g134"><path
             inkscape:connector-curvature="0"
             id="path136"
             style="fill:#d2dc22;fill-opacity:1;fill-rule:nonzero;stroke:none"
             d="m 0,0 c 3.293,-2.45 7.523,-4.042 10.049,-4.908 1.47,-0.502 5.122,-1.498 9.221,-1.637 2.734,-0.094 5.665,-0.113 8.281,0.207 2.79,0.342 5.219,1.045 6.664,1.635 2.048,0.828 4.142,1.506 6.144,2.605 2.409,1.024 4.848,2.424 6.896,4.367 0.692,0.737 1.565,1.339 2.244,2.062 -0.107,-0.436 0.346,-0.977 -0.077,-1.341 -0.19,-0.388 -1.787,-1.988 -3.709,-3.287 -2.766,-1.869 -6.208,-3.57 -7.131,-3.97 -0.785,-0.25 -2.989,-1.223 -5.652,-2.011 -1.167,-0.345 -2.424,-0.607 -3.686,-0.837 -1.594,-0.289 -2.998,-0.59 -4.263,-0.692 -2.332,-0.19 -4.19,0 -5.882,0.108 -0.745,0.049 -3.957,0.348 -7.454,1.296 -3.496,0.946 -7.279,2.54 -9.169,3.477 -2.003,0.992 -3.855,2.213 -5.556,3.9 -0.874,0.874 -1.46,1.837 -2.167,2.815 -0.061,0.692 0.089,1.25 0.134,1.957 C -4.635,4.846 -2.654,1.976 0,0" /></g></g><g
         transform="matrix(6.1168976,0,0,6.1168976,-1314.4313,-2323.2441)"
         id="g138"><g
           transform="translate(237.732,398.337)"
           id="g140"><path
             inkscape:connector-curvature="0"
             id="path142"
             style="fill:#221e1f;fill-opacity:1;fill-rule:nonzero;stroke:none"
             d="M 0,0 C -0.813,-0.211 -1.595,-1.582 -0.362,-1.988 0.196,-2.183 0.873,-1.898 1.311,-2.017 1.385,-2.5 0.946,-2.398 0.648,-2.455 -0.316,-2.62 -1.836,-1.746 -1.159,-0.572 -0.843,-0.287 -0.436,0.135 0,0" /></g></g><g
         transform="matrix(6.1168976,0,0,6.1168976,-1314.4313,-2323.2441)"
         id="g144"><g
           transform="translate(224.106,395.779)"
           id="g146"><path
             inkscape:connector-curvature="0"
             id="path148"
             style="fill:#d2dc22;fill-opacity:1;fill-rule:nonzero;stroke:none"
             d="M 0,0 C 0.678,-0.514 1.249,-1.147 1.882,-1.658 1.536,-3.134 1.265,-4.91 1.956,-6.401 2.259,-6.927 2.62,-7.334 3.192,-7.559 c 0.704,-0.278 1.49,0.737 2.016,1.024 0.331,0.181 0.691,0.367 1.046,0.111 0.883,-0.635 -1.039,-1.71 -1.331,-2.28 -0.617,-0.679 -0.632,-1.642 -0.435,-2.469 0.766,-1.581 2.513,-2.048 3.898,-2.771 1.043,-0.544 6.302,-1.55 6.551,0.647 0.104,0.935 -0.166,1.718 -0.151,2.635 0.004,0.244 0.341,0.339 0.526,0.307 0.293,-0.048 0.359,-0.262 0.473,-0.498 0.213,-0.44 0.377,-0.903 0.582,-1.346 1.108,-2.377 4.032,-1.313 5.179,0.424 0.557,0.842 0.947,1.761 1.189,2.74 0.058,0.23 3.3,-0.045 3.651,-0.046 1.592,-0.005 3.188,0.085 4.736,0.483 1.264,0.18 2.53,0.511 3.87,0.752 0.471,0.113 2.284,0.568 4.085,1.212 0.761,0.272 3.252,1.172 5.324,2.196 1.482,0.736 4.006,2.383 4.457,2.66 1.506,1.024 3.027,2.198 4.337,3.508 0.051,-1.044 -0.164,-3.285 -0.586,-5.226 -0.339,-1.561 -0.875,-2.931 -1.026,-3.328 -0.55,-1.438 -1.196,-2.823 -2.032,-4.168 -1.084,0.738 -2.393,0.888 -3.719,0.662 -2.092,-0.438 -3.403,-2.515 -4.999,-3.914 -0.451,-0.588 -0.496,-1.281 -0.24,-1.989 0.4,-0.81 1.214,-0.768 1.862,-1.324 0.23,-0.181 0.577,-0.588 0.697,-0.843 0.334,-0.911 -0.161,-1.801 -1.104,-1.473 -0.878,0.304 -1.305,1.242 -2.3,1.07 -0.802,-0.141 -1.441,-0.695 -1.851,-1.374 -0.621,-1.028 -0.567,-2.39 -0.515,-3.55 0.027,-0.597 -0.094,-1.924 0.742,-2.653 -2.831,-0.226 -5.963,-0.302 -8.778,0.616 -0.392,0.182 -0.873,0.347 -1.296,0.542 -0.225,0.181 -0.617,0.241 -0.854,0.515 -0.161,0.183 -0.218,0.627 -0.229,0.644 0.119,1.341 0.376,2.756 0.075,4.157 -0.121,0.15 -0.211,0.451 -0.482,0.421 -0.09,-0.06 -0.09,-0.18 -0.136,-0.285 0.09,-0.468 0.121,-1.085 0.076,-1.582 -2.952,0.016 -5.947,0.678 -8.899,1.265 -3.674,0.993 -7.589,2.259 -10.661,4.518 -2.167,1.217 -3.988,3.207 -5.736,5.059 -0.632,0.797 -1.113,1.716 -1.445,2.588 -0.03,0 -0.045,0 -0.075,0 -0.798,1.928 -1.069,3.78 -1.34,5.857 -0.227,1.431 -0.166,2.907 -0.181,4.336 C -1.37,1.745 -0.226,0.135 0,0" /></g></g><g
         transform="matrix(6.1168976,0,0,6.1168976,-1314.4313,-2323.2441)"
         id="g150"><g
           transform="translate(235.203,397.404)"
           id="g152"><path
             inkscape:connector-curvature="0"
             id="path154"
             style="fill:#221e1f;fill-opacity:1;fill-rule:nonzero;stroke:none"
             d="M 0,0 C -0.467,-1.715 1.355,-3.283 2.965,-3.434 4.246,-3.297 5.42,-2.319 6.369,-1.957 5.54,-2.996 4.345,-3.743 2.996,-3.87 0.99,-3.789 -1.551,-1.656 0.045,0.33 0.136,0.256 0.015,0.105 0,0" /></g></g><g
         transform="matrix(6.1168976,0,0,6.1168976,-1314.4313,-2323.2441)"
         id="g156"><g
           transform="translate(237.521,388.656)"
           id="g158"><path
             inkscape:connector-curvature="0"
             id="path160"
             style="fill:#a988bd;fill-opacity:1;fill-rule:nonzero;stroke:none"
             d="M 0,0 C 0.814,-0.151 1.522,-0.572 2.38,-0.617 4.382,-1.039 6.445,-1.416 8.493,-1.626 9.165,-1.602 8.643,-2.153 8.628,-2.425 8.508,-3.102 8.131,-3.749 7.77,-4.366 7.273,-4.953 6.791,-5.722 5.993,-5.887 4.914,-6.112 3.843,-5.831 3.45,-4.812 3.162,-4.065 2.839,-2.943 1.913,-2.786 1.506,-2.74 1.176,-3.027 0.979,-3.328 0.618,-4.322 1.416,-5.466 0.828,-6.43 0.481,-7 -1.222,-7.108 -1.796,-7.098 c -0.955,0.017 -1.925,0.223 -2.803,0.598 -1.296,0.555 -3.261,1.203 -3.862,2.6 -0.286,1.024 0.104,2.019 0.873,2.74 0.391,0.558 1.113,0.512 1.16,1.31 -0.031,0.497 -0.226,0.859 -0.663,1.114 -1.085,0.242 -1.852,-0.766 -2.741,-1.219 -0.556,-0.151 -0.813,0.331 -1.113,0.648 -0.633,1.355 -0.497,3.086 -0.151,4.442 C -7.633,2.876 -3.869,1.31 0,0" /></g></g><g
         transform="matrix(6.1168976,0,0,6.1168976,-1314.4313,-2323.2441)"
         id="g162"><g
           transform="translate(246.348,386.775)"
           id="g164"><path
             inkscape:connector-curvature="0"
             id="path166"
             style="fill:#6773b6;fill-opacity:1;fill-rule:nonzero;stroke:none"
             d="m 0,0 c -0.039,-0.175 -0.191,-0.4 -0.199,-0.544 -0.12,-0.677 -0.497,-1.324 -0.858,-1.941 -0.497,-0.587 -0.979,-1.356 -1.777,-1.521 -1.079,-0.225 -2.15,0.056 -2.543,1.075 -0.288,0.747 -0.611,1.869 -1.537,2.026 -0.407,0.046 -0.737,-0.241 -0.934,-0.542 -0.361,-0.994 0.437,-2.138 -0.151,-3.102 -0.347,-0.57 -2.05,-0.678 -2.624,-0.668 -0.955,0.017 -1.925,0.223 -2.803,0.598 -1.296,0.555 -3.261,1.203 -3.862,2.6 -0.286,1.024 0.104,2.019 0.873,2.74 0.391,0.558 1.113,0.512 1.16,1.31 -0.031,0.497 -0.226,0.859 -0.663,1.114 -1.085,0.242 -1.852,-0.766 -2.741,-1.219 -0.556,-0.151 -0.813,0.331 -1.113,0.648 -0.633,1.355 -0.497,3.086 -0.151,4.442 l -0.437,0.33 c -0.346,-1.476 -0.617,-3.252 0.074,-4.743 0.303,-0.526 0.664,-0.933 1.236,-1.158 0.704,-0.278 1.49,0.737 2.016,1.024 0.331,0.181 0.691,0.367 1.046,0.111 0.883,-0.635 -1.039,-1.71 -1.331,-2.28 -0.617,-0.679 -0.632,-1.642 -0.435,-2.469 0.766,-1.581 2.513,-2.048 3.898,-2.771 1.043,-0.544 6.302,-1.55 6.551,0.647 0.104,0.935 -0.166,1.718 -0.151,2.635 0.004,0.244 0.341,0.339 0.526,0.307 0.293,-0.048 0.359,-0.262 0.473,-0.498 0.213,-0.44 0.377,-0.903 0.582,-1.346 1.108,-2.377 4.032,-1.313 5.179,0.424 0.557,0.842 0.947,1.761 1.189,2.74 L 0,0" /></g></g><g
         transform="matrix(6.1168976,0,0,6.1168976,-1314.4313,-2323.2441)"
         id="g168"><g
           transform="translate(273.378,384.404)"
           id="g170"><path
             inkscape:connector-curvature="0"
             id="path172"
             style="fill:#a988bd;fill-opacity:1;fill-rule:nonzero;stroke:none"
             d="m 0,0 c -1.4,-2.47 -3.214,-4.496 -5.502,-6.227 0.315,-0.482 0.738,0.09 1.114,0.104 -0.045,-1.912 0.316,-3.959 0.693,-5.916 -0.453,-0.813 -1.371,-1.084 -2.139,-1.446 -1.535,-0.602 -3.131,-1.324 -4.773,-1.491 -1.164,0.884 -0.631,3.059 -0.797,4.316 -0.136,1.04 0.455,1.98 1.331,2.506 0.708,0.422 1.036,0.169 1.66,-0.231 0.62,-0.396 1.45,-0.881 2.187,-0.478 0.986,0.54 0.709,1.83 0.136,2.56 -0.603,0.768 -1.46,0.949 -2.123,1.596 -0.647,1.687 1.25,2.379 2.093,3.539 C -4.69,0.652 -1.864,1.437 0,0" /></g></g><g
         transform="matrix(6.1168976,0,0,6.1168976,-1314.4313,-2323.2441)"
         id="g174"><g
           transform="translate(231.635,378.763)"
           id="g176"><path
             inkscape:connector-curvature="0"
             id="path178"
             style="fill:#d2dc22;fill-opacity:1;fill-rule:nonzero;stroke:none"
             d="M 0,0 C 2.499,-1.61 5.464,-2.619 8.34,-3.583 9.079,-3.899 9.199,-5.044 9.139,-5.856 8.295,-6.76 7.106,-6.82 5.992,-7.047 5.584,-7.053 4.38,-7.126 3.085,-6.957 c -1.477,0.195 -3.074,0.647 -3.749,0.92 -0.562,0.297 -2.142,0.84 -3.485,1.683 -1.244,0.782 -2.268,1.854 -2.507,2.397 0.783,1.838 1.295,3.69 1.371,5.781 C -3.674,2.23 -1.882,0.965 0,0" /></g></g><g
         transform="matrix(6.1168976,0,0,6.1168976,-1314.4313,-2323.2441)"
         id="g180"><g
           transform="translate(233.378,371.152)"
           id="g182"><path
             inkscape:connector-curvature="0"
             id="path184"
             style="fill:#f6a3a5;fill-opacity:1;fill-rule:nonzero;stroke:none"
             d="M 0,0 C 2.544,-0.518 5.016,-0.356 5.046,-0.158 4.868,-1.291 4.396,-3.67 3.061,-5.182 c -0.442,-0.5 -1.035,-1.362 -1.624,-1.62 -0.412,-0.181 -1.425,-0.395 -2.39,0.107 -0.847,0.441 -1.658,1.56 -1.995,2.05 -0.633,0.918 -1.205,2.048 -1.551,3.176 -0.527,1.131 -0.663,2.396 -1.009,3.584 C -5.409,1.778 -2.666,0.543 0,0" /></g></g><g
         transform="matrix(6.1168976,0,0,6.1168976,-1314.4313,-2323.2441)"
         id="g186"><g
           transform="translate(266.325,369.683)"
           id="g188"><path
             inkscape:connector-curvature="0"
             id="path190"
             style="fill:#f6a3a5;fill-opacity:1;fill-rule:nonzero;stroke:none"
             d="m 0,0 c -0.154,-1.33 -0.612,-3.88 -1.506,-5.875 -0.332,-0.742 -1.28,-2.49 -2.33,-3.187 -1.109,-0.739 -2.333,-0.393 -3.056,0.046 -1.529,0.93 -2.872,3.528 -3.451,4.5 -0.619,1.19 -1.115,2.319 -1.522,3.584 2.62,-0.392 5.251,-0.574 7.845,-0.151 C -2.499,-0.834 -1.25,-0.571 0,0" /></g></g><g
         transform="matrix(6.1168976,0,0,6.1168976,-1314.4313,-2323.2441)"
         id="g192"><g
           transform="translate(231.995,367.742)"
           id="g194"><path
             inkscape:connector-curvature="0"
             id="path196"
             style="fill:#ef523a;fill-opacity:1;fill-rule:nonzero;stroke:none"
             d="M 0,0 C -0.135,-0.09 -0.315,-0.301 -0.481,-0.12 -0.888,0.332 -1.205,0.963 -0.903,1.582 -0.557,1.686 -0.36,1.474 -0.3,1.189 -0.135,0.813 -0.075,0.406 0,0" /></g></g><g
         style="fill:#f05b40;fill-opacity:1;stroke:#f05b40;stroke-width:0.24522236;stroke-miterlimit:4;stroke-dasharray:none;stroke-opacity:0"
         transform="matrix(6.1168976,0,0,6.1168976,-1314.4313,-2323.2441)"
         id="g198"><g
           style="fill:#f05b40;fill-opacity:1;stroke:#f05b40;stroke-width:0.24522236;stroke-miterlimit:4;stroke-dasharray:none;stroke-opacity:0"
           transform="translate(276.006,399)"
           id="g200"><path
             inkscape:connector-curvature="0"
             id="path202"
             style="fill:#f05b40;fill-opacity:1;fill-rule:nonzero;stroke:#f05b40;stroke-width:0.24522236;stroke-miterlimit:4;stroke-dasharray:none;stroke-opacity:0"
             d="M 0,0 C 0.994,1.054 0.933,2.695 0.754,4.035 0.226,6.234 -0.391,8.492 -1.521,10.433 -2.393,9.35 -3.252,8.266 -4.125,7.181 -4.246,7.212 -4.291,6.971 -4.411,7.106 c 1.009,2.019 2.424,3.87 3.643,5.752 4.186,5.692 8.627,11.172 12.95,16.728 1.46,2.379 3.221,4.683 4.441,7.197 0.948,1.536 1.732,3.328 1.445,5.195 -0.27,0.572 -0.858,1.099 -1.445,1.235 C 15.042,43.558 13.461,42.64 12,42.053 9.877,41.06 7.934,39.9 5.963,38.665 c -3.343,-2.033 -6.46,-4.321 -9.546,-6.73 -3.131,-2.439 -6.309,-5.105 -9.29,-7.846 -0.076,0.016 -0.196,-0.089 -0.242,0.047 0.844,1.746 2.605,2.71 3.794,4.156 -1.233,3.537 -2.076,7.226 -2.528,11.096 -0.131,0.774 -0.404,2.995 -0.532,5.476 -0.137,2.686 -0.124,5.676 -0.135,7.457 -0.026,3.653 0.046,7.38 0.185,8.779 0.239,2.391 2.496,3.944 3.189,6.202 0.573,1.867 1.649,4.857 -0.379,6.27 -0.118,0.082 -0.246,0.147 -0.386,0.192 -1.315,0.415 -3.552,-0.964 -4.683,-1.568 -1.098,-0.587 -4.855,-4.028 -5.818,-5.044 -3.13,-3.302 -5.437,-7.072 -7.416,-10.977 l -1.19,-2.664 c -0.542,-1.189 -1.128,-2.424 -1.701,-3.644 l -0.407,0.181 c 0.407,1.129 0.799,2.123 1.31,3.206 l 1.121,2.738 c 0.124,0.154 1.131,2.284 2.51,4.685 2.439,4.251 5.71,8.213 9.664,11.219 1.41,1.071 6.243,4.642 8.16,1.746 1.039,-1.792 0.754,-4.668 0.151,-6.685 -0.452,-2.048 -2.017,-2.916 -2.92,-5.285 -0.86,-1.972 -0.317,-4.292 -0.482,-6.504 -0.059,-4.294 0.103,-8.466 0.423,-12.555 0.088,-1.132 0.902,-7.32 1.247,-9.233 0.19,-1.336 0.527,-2.451 0.879,-3.68 0.068,-0.239 0.281,-0.882 0.386,-0.942 3.377,2.728 6.722,5.513 10.213,8.056 2.673,1.949 5.432,3.756 8.352,5.285 1.032,0.481 2.072,0.948 3.12,1.392 1.04,0.44 2.46,1.007 3.6,0.752 4.119,-0.925 1.686,-6.199 0.552,-8.544 C 15.448,32.537 13.265,29.631 11.157,26.695 8.175,22.976 -0.15,12.392 -0.903,11.232 -0.888,11.062 -0.164,9.609 0.357,8.185 0.788,7.008 1.023,5.853 1.114,5.45 1.219,5.285 1.582,2.574 1.521,1.656 1.687,1.656 1.506,1.49 1.521,1.4 L 0,0" /></g></g><g
         style="fill:#f05b40;fill-opacity:1;stroke:#f05b40;stroke-width:0.24522236;stroke-miterlimit:4;stroke-dasharray:none;stroke-opacity:0"
         transform="matrix(6.1168976,0,0,6.1168976,-1314.4313,-2323.2441)"
         id="g204"><g
           style="fill:#f05b40;fill-opacity:1;stroke:#f05b40;stroke-width:0.24522236;stroke-miterlimit:4;stroke-dasharray:none;stroke-opacity:0"
           transform="translate(222.24,402.071)"
           id="g206"><path
             inkscape:connector-curvature="0"
             id="path208"
             style="fill:#f05b40;fill-opacity:1;fill-rule:nonzero;stroke:#f05b40;stroke-width:0.24522236;stroke-miterlimit:4;stroke-dasharray:none;stroke-opacity:0"
             d="M 0,0 C -0.574,3.433 0.631,6.956 2.845,9.635 2.981,9.923 3.342,10.118 3.356,10.434 3.16,10.54 2.95,10.721 2.815,10.901 0,14.71 -2.425,18.55 -4.775,22.585 c -0.196,0.434 -2.185,3.758 -3.74,7.042 -1.31,2.768 -2.205,5.507 -2.508,6.464 -0.689,2.182 -1.646,8.216 2.182,7.685 1.382,-0.192 2.804,-1.147 3.945,-1.929 3.374,-2.315 7.445,-6.265 9.499,-7.961 1.922,-1.588 3.89,-3.012 5.522,-4.288 2.127,-1.662 3.682,-2.53 3.816,-2.496 1.1,2.288 2.049,4.653 2.816,7.077 l 0.467,-0.573 C 16.667,31.574 15.763,29.707 15.056,27.749 13.731,24.799 12.104,22.089 10.478,19.333 7.648,14.469 4.049,10.089 1.264,5.24 0.465,3.403 0.676,1.462 0.496,-0.512 Z m -10.436,42.335 c -1.43,-2.319 0.325,-5.891 1.099,-8.156 0.979,-2.861 2.334,-5.541 3.735,-8.161 0.858,-1.491 1.626,-2.906 2.454,-4.457 1.671,-2.996 3.523,-5.841 5.496,-8.627 0.482,-0.601 0.919,-1.31 1.551,-1.777 0.631,0.768 1.249,1.672 1.807,2.529 2.816,4.112 5.481,8.493 7.95,12.904 -1.37,0.421 -2.291,1.295 -3.689,2.274 -5.105,3.573 -9.698,8.326 -14.891,11.924 -1.174,0.703 -4.324,3.475 -5.512,1.547" /></g></g><g
         transform="matrix(6.1168976,0,0,6.1168976,-1314.4313,-2323.2441)"
         id="g210"><g
           transform="translate(273.657,384.787)"
           id="g212"><path
             inkscape:connector-curvature="0"
             id="path214"
             style="fill:#6773b6;fill-opacity:1;fill-rule:nonzero;stroke:none"
             d="m 0,0 c -1.084,0.738 -2.393,0.888 -3.719,0.662 -2.092,-0.438 -3.403,-2.515 -4.999,-3.914 -0.451,-0.588 -0.496,-1.281 -0.24,-1.989 0.4,-0.81 1.214,-0.768 1.862,-1.324 0.23,-0.181 0.577,-0.588 0.697,-0.843 0.334,-0.911 -0.161,-1.801 -1.104,-1.473 -0.878,0.304 -1.305,1.242 -2.3,1.07 -0.802,-0.141 -1.441,-0.695 -1.851,-1.374 -0.621,-1.028 -0.567,-2.39 -0.515,-3.55 0.027,-0.597 -0.094,-1.924 0.742,-2.653 l 0.541,0.029 c -1.164,0.884 -0.631,3.059 -0.797,4.316 -0.136,1.04 0.455,1.98 1.331,2.506 0.708,0.422 1.036,0.169 1.66,-0.231 0.62,-0.396 1.45,-0.881 2.187,-0.478 0.986,0.54 0.709,1.83 0.136,2.56 -0.603,0.768 -1.46,0.949 -2.123,1.596 -0.647,1.687 1.25,2.379 2.093,3.539 1.43,1.82 4.256,2.605 6.12,1.168 L 0,0" /></g></g><g
         transform="matrix(6.1168976,0,0,6.1168976,-1314.4313,-2323.2441)"
         id="g216"><g
           transform="translate(246.992,452.511)"
           id="g218"><path
             inkscape:connector-curvature="0"
             id="path220"
             style="fill:#000000;fill-opacity:1;fill-rule:nonzero;stroke:none"
             d="M 0,0 C 0.858,0.467 2.153,0.437 2.665,1.551 2.588,2.024 2.243,1.924 1.896,1.778 1.753,1.717 0.801,1.297 0.778,1.18 0.892,1.78 2.619,2.106 2.376,2.711 2.231,3.074 1.473,2.654 1.192,2.556 0.584,2.344 -0.067,2.278 -0.667,2.036 -0.914,1.937 -1.307,1.879 -1.49,1.673 -1.787,1.34 -1.497,1.004 -1.054,1.084 -0.813,1.069 -0.189,1.518 0.036,1.503 -0.361,1.211 -1.04,0.869 -1.332,0.472 -1.436,0.332 -1.456,0.064 -1.372,-0.092 -1.215,-0.387 -1.12,-0.284 -0.851,-0.241 -0.572,-0.196 -0.28,-0.09 0,0" /></g></g><g
         style="fill:#f05b40;fill-opacity:1;stroke:#f05b40;stroke-width:0.24522236;stroke-miterlimit:4;stroke-dasharray:none;stroke-opacity:0"
         transform="matrix(6.1168976,0,0,6.1168976,-1314.4313,-2323.2441)"
         id="g222"><g
           style="fill:#f05b40;fill-opacity:1;stroke:#f05b40;stroke-width:0.24522236;stroke-miterlimit:4;stroke-dasharray:none;stroke-opacity:0"
           transform="translate(227.87,373.267)"
           id="g224"><path
             inkscape:connector-curvature="0"
             id="path226"
             style="fill:#f05b40;fill-opacity:1;fill-rule:nonzero;stroke:#f05b40;stroke-width:0.24522236;stroke-miterlimit:4;stroke-dasharray:none;stroke-opacity:0"
             d="m 0,0 c 0.346,-1.188 0.482,-2.453 1.009,-3.584 0.346,-1.128 0.918,-2.258 1.551,-3.176 0.337,-0.49 1.148,-1.609 1.995,-2.05 0.965,-0.502 1.978,-0.288 2.39,-0.107 0.589,0.258 1.182,1.12 1.624,1.62 1.335,1.512 1.807,3.891 1.985,5.024 l 0.935,0.264 C 11.372,-2.075 11.16,-3.512 11.121,-3.726 11.035,-4.19 10.894,-4.636 10.725,-5.077 10.444,-5.813 10.152,-6.572 9.793,-7.275 9.043,-8.735 7.869,-9.934 6.125,-9.949 5.201,-9.959 4.285,-9.627 3.543,-9.082 1.828,-7.828 0.86,-5.433 0.067,-3.539 -0.486,-2.215 -0.728,-1.101 -0.978,0.573 L 0,0" /></g></g><g
         style="fill:#f05b40;fill-opacity:1;stroke:#f05b40;stroke-width:0.24522236;stroke-miterlimit:4;stroke-dasharray:none;stroke-opacity:0"
         transform="matrix(6.1168976,0,0,6.1168976,-1314.4313,-2323.2441)"
         id="g228"><g
           style="fill:#f05b40;fill-opacity:1;stroke:#f05b40;stroke-width:0.24522236;stroke-miterlimit:4;stroke-dasharray:none;stroke-opacity:0"
           transform="translate(266.325,369.683)"
           id="g230"><path
             inkscape:connector-curvature="0"
             id="path232"
             style="fill:#f05b40;fill-opacity:1;fill-rule:nonzero;stroke:#f05b40;stroke-width:0.24522236;stroke-miterlimit:4;stroke-dasharray:none;stroke-opacity:0"
             d="m 0,0 c -0.154,-1.33 -0.612,-3.88 -1.506,-5.875 -0.332,-0.742 -1.28,-2.49 -2.33,-3.187 -1.109,-0.739 -2.333,-0.393 -3.056,0.046 -1.529,0.93 -2.872,3.528 -3.451,4.5 -0.619,1.19 -1.115,2.319 -1.522,3.584 l -1.084,0.316 c 0.292,-0.63 0.715,-1.689 1.815,-3.914 0.753,-1.215 1.443,-2.918 2.384,-3.884 0.561,-0.578 1.533,-1.418 2.528,-1.734 0.374,-0.119 1.66,-0.274 2.841,0.418 0.941,0.549 1.816,1.875 2.115,2.428 0.418,0.785 1.047,2.597 1.486,4.396 0.353,1.45 0.538,2.955 0.713,3.42 L 0,0" /></g></g></g></g></svg>