<?xml version="1.0" encoding="UTF-8" standalone="no"?>
<!-- Created with Inkscape (http://www.inkscape.org/) -->

<svg
   xmlns:dc="http://purl.org/dc/elements/1.1/"
   xmlns:cc="http://creativecommons.org/ns#"
   xmlns:rdf="http://www.w3.org/1999/02/22-rdf-syntax-ns#"
   xmlns:svg="http://www.w3.org/2000/svg"
   xmlns="http://www.w3.org/2000/svg"
   xmlns:sodipodi="http://sodipodi.sourceforge.net/DTD/sodipodi-0.dtd"
   xmlns:inkscape="http://www.inkscape.org/namespaces/inkscape"
   version="1.1"
   id="svg2"
   xml:space="preserve"
   width="230"
   height="230"
   viewBox="0 0 230 230"
   sodipodi:docname="SVG SpongeBob SquarePants.svg"
   inkscape:version="0.92.2 5c3e80d, 2017-08-06"
   style="enable-background:new"><metadata
     id="metadata8"><rdf:RDF><cc:Work
         rdf:about=""><dc:format>image/svg+xml</dc:format><dc:type
           rdf:resource="http://purl.org/dc/dcmitype/StillImage" /><dc:title></dc:title></cc:Work></rdf:RDF></metadata><defs
     id="defs6"><clipPath
       clipPathUnits="userSpaceOnUse"
       id="clipPath18"><path
         d="m 602.08,800.1 h 631.21 V -9.9 H 602.08 Z"
         id="path16"
         inkscape:connector-curvature="0"
         style="clip-rule:evenodd" /></clipPath><clipPath
       clipPathUnits="userSpaceOnUse"
       id="clipPath26"><path
         d="M 0,792 H 1224 V 0.06 H 0 Z"
         id="path24"
         inkscape:connector-curvature="0" /></clipPath><clipPath
       clipPathUnits="userSpaceOnUse"
       id="clipPath44"><path
         d="M 0,792 H 628.48 V 0.06 H 0 Z"
         id="path42"
         inkscape:connector-curvature="0" /></clipPath></defs><sodipodi:namedview
     pagecolor="#ffffff"
     bordercolor="#666666"
     borderopacity="1"
     objecttolerance="10"
     gridtolerance="10"
     guidetolerance="10"
     inkscape:pageopacity="0"
     inkscape:pageshadow="2"
     inkscape:window-width="1340"
     inkscape:window-height="674"
     id="namedview4"
     showgrid="false"
     inkscape:zoom="0.6"
     inkscape:cx="-56.185927"
     inkscape:cy="54.818607"
     inkscape:window-x="50"
     inkscape:window-y="26"
     inkscape:window-maximized="0"
     inkscape:current-layer="g10"
     fit-margin-top="0"
     fit-margin-left="0"
     fit-margin-right="0"
     fit-margin-bottom="0" /><g
     id="g10"
     inkscape:groupmode="layer"
     inkscape:label="SB_MAINCHAR1_SPONGEBOB"
     transform="matrix(1.3333333,0,0,-1.3333333,-197.38829,422.91219)"
     style="opacity:1"><g
       id="g12"><g
         id="g14"
         clip-path="url(#clipPath18)"><g
           id="g20"><g
             id="g22"
             clip-path="url(#clipPath26)"><text
               transform="matrix(1,0,0,-1,386.2351,585.4679)"
               style="font-variant:normal;font-weight:normal;font-size:12.50469971px;font-family:BikiniBottom;-inkscape-font-specification:BikiniBottom-Regular;writing-mode:lr-tb;fill:none;stroke:#02a0bc;stroke-width:0.5;stroke-linecap:butt;stroke-linejoin:miter;stroke-miterlimit:4;stroke-dasharray:none;stroke-opacity:1"
               id="text36"><tspan
                 x="0 9.9787502 17.644133 25.171961 29.311016"
                 y="0"
                 sodipodi:role="line"
                 id="tspan28">Don’t</tspan><tspan
                 x="4.1640649 10.954117 14.542966 22.208347 30.799076"
                 y="14.067787"
                 sodipodi:role="line"
                 id="tspan30">flop </tspan><tspan
                 x="-12.879841 -5.8521996 2.1132944 8.8658323 15.143191 21.895729 28.92337 34.562992 41.565624 47.842983"
                 y="28.135574"
                 sodipodi:role="line"
                 id="tspan32">character </tspan><tspan
                 x="-7.8654561 -1.1129183 6.4149113 11.429296 21.345524 29.010904 35.288265"
                 y="42.203362"
                 sodipodi:role="line"
                 id="tspan34">artwork</tspan></text>
</g></g></g></g><g
       id="MAIN_CHARACTER_1"
       transform="matrix(0.416955,0,0,0.416955,270.26834,240.03586)"
       inkscape:label="SB_MAINCHAR1_SPONGEBOB"
       sodipodi:insensitive="true"><title
         id="title1225">SpongeBob</title><g
         inkscape:label="SB_MAINCHAR1_SPONGEBOB"
         id="g1885"><title
           id="title1887">SpongeBob</title><g
           inkscape:label="SB_MAINCHAR1_SPONGEBOB"
           id="g1415"><title
             id="title1417">SpongeBob</title><g
             id="g50"
             transform="translate(-187.552,-103.986)"><path
               d="m 0,0 c -2.354,1.375 -11.436,4.893 -13.611,5.365 0.294,0.035 2.913,-3.664 2.807,-6.949 -0.083,-2.553 -0.525,-5.783 1.356,-7.578 6.328,-6.043 2.572,-9.864 1.334,-11.059 -0.982,-0.953 -2.199,-1.135 -3.538,-1.18 -2.153,-0.076 -6.592,2.547 -6.541,2.881 -0.271,-1.777 0.112,-3.584 0.557,-5.299 0.405,-1.56 0.752,-3.218 1.605,-4.605 0.49,-0.793 0.926,-1.479 1.189,-2.387 0.58,-1.996 -1.142,-3.574 -2.648,-4.361 -1.636,-0.857 -3.196,-1.795 -6.31,-0.623 -3.097,-0.721 -6,-0.703 -7.697,2.047 -1.03,-0.178 -1.616,0.133 -2.042,0.365 -6.937,5.563 -6.183,15.713 -5.398,23.959 1.18,5.889 2.749,11.582 6.609,16.361 0.983,5.432 -0.391,11.057 -0.654,16.619 -0.85,8.836 -2.027,17.28 -2.617,26.376 -2.879,2.158 -6.937,1.896 -8.965,5.365 -2.356,6.873 0.195,14.006 1.374,20.549 1.374,5.757 3.207,11.256 6.937,16.031 0.327,1.898 -2.094,3.076 -3.01,4.713 -2.422,3.207 -3.207,7.853 -2.357,11.65 0,7.066 -8.637,10.535 -11.582,16.62 -1.834,6.61 1.898,13.284 -0.982,19.764 -4.057,6.019 -9.292,11.123 -12.826,17.276 -2.221,3.831 -0.731,8.347 -1.413,12.479 -0.711,4.305 -3.521,7.89 -6.071,11.302 -2.302,3.082 -3.94,6.546 -5.863,9.862 -4.266,7.35 -1.758,16.753 4.167,22.367 1.329,1.258 2.677,1.917 4.339,2.617 3.562,1.499 3.664,2.612 4.16,6.321 0.477,3.566 1.167,7.182 3.036,10.309 3.6,6.019 11.91,5.561 14.92,12.563 1.834,2.748 5.716,19.414 18.521,23.429 8.901,2.355 16.818,-1.441 24.932,-2.881 7.199,-0.326 12.041,4.975 19.174,4.583 9.228,-0.329 16.885,-4.32 26.242,-4.386 8.769,2.421 19.042,6.021 28.402,2.356 9.095,-3.01 19.631,-6.217 29.512,-3.338 5.803,2.265 12.167,2.038 18.184,0.867 2.964,-0.577 5.849,-1.439 8.722,-2.358 6.957,-2.224 13.451,2.418 20.409,2.276 8.376,0.786 14.462,-4.973 22.903,-3.141 5.824,1.768 13.35,2.749 18.847,-0.26 13.742,-9.294 8.115,-27.486 5.693,-40.705 -0.928,-5.068 0.711,-9.271 2.284,-14.053 2.176,-6.616 1.462,-13.947 -0.425,-20.543 -1.845,-6.449 -4.359,-12.767 -2.971,-19.589 2.741,-6.83 2.791,-14.603 1.38,-21.745 -1.77,-8.95 -6.814,-17.918 -5.176,-27.27 1.897,-5.627 2.553,-13.153 0.654,-18.976 0.067,-0.264 0.393,-0.067 0.459,-0.328 4.384,1.571 9.161,4.187 14.135,2.487 3.402,-2.159 3.991,-6.089 4.712,-9.686 3.533,0.555 6.938,2.027 9.776,4.199 4.461,3.413 7.007,9.637 9.552,14.491 3.253,6.209 6.157,12.594 8.906,19.041 1.571,3.681 3.096,7.385 4.615,11.088 0.918,1.44 1.049,3.206 1.834,4.711 -3.535,2.423 -8.048,5.367 -9.553,9.751 -2.488,7.264 -1.31,16.491 4.254,22.119 2.681,2.355 5.757,4.777 9.553,3.468 1.899,-0.72 3.534,-2.028 5.365,-2.815 2.945,11.911 8.836,23.626 19.437,31.413 3.6,1.832 8.31,3.141 12.302,1.569 1.637,-0.85 2.16,-2.747 2.488,-4.384 -1.571,-9.619 -12.76,-13.546 -16.95,-21.988 0.262,-2.16 3.01,-2.617 3.6,-4.58 1.896,-1.768 0.197,-5.758 3.795,-6.152 5.548,-3.698 2.704,-10.413 0.545,-14.956 -1.823,-3.835 -3.59,-7.755 -6.145,-11.17 -2.259,-3.017 -5.335,-5.65 -8.733,-7.295 -1.657,-0.804 -3.34,-1.274 -5.169,-1.43 -1.107,-0.096 -3.879,0.094 -4.382,-1.404 -3.993,-11.843 -9.949,-25.913 -16.165,-38.346 -3.863,-8.018 -7.265,-15.771 -15.902,-17.736 -4.057,-0.719 -8.05,-1.635 -12.107,-2.485 -0.719,-5.3 -3.927,-11.586 -9.686,-12.894 -5.431,-2.289 -10.995,-0.85 -16.686,-0.131 -0.438,0.014 -1.873,-6.651 -2.045,-7.25 -0.369,-1.283 -0.655,-2.469 -1.398,-3.588 -0.845,-1.271 -4.163,-3.658 -4.213,-5.193 -0.59,-17.668 -3.01,-53.53 -3.339,-53.727 C 158.956,0.523 148.289,0 137.098,0 c 0.426,-1.408 0.589,-5.58 -2.234,-8.324 -3.964,-3.852 -10.629,-4.324 -16.088,-5.354 -1.309,-0.26 -2.814,-0.064 -3.928,-0.785 -0.195,-18.518 -2.944,-35.928 -1.897,-54.315 -0.009,0.182 5.047,-3.953 5.529,-4.531 1.385,-1.66 2.311,-3.515 3.471,-5.261 2.643,1.504 5.64,3.068 8.641,3.779 3.065,0.725 6.419,0.638 9.326,-0.662 9.397,-4.207 9.853,-18.676 -0.137,-24.408 -4.117,-2.366 -9.161,-4.123 -14.266,-2.684 -3.86,1.244 -7.526,3.01 -10.993,5.168 -1.375,-0.129 -2.422,-1.109 -3.797,-1.371 -5.692,0.129 -11.516,0.783 -15.051,5.494 -0.13,1.898 -0.719,3.861 -0.457,5.76 -1.702,2.486 -2.552,5.431 -1.898,8.64 0.785,4.186 3.599,8.243 7.199,10.535 1.439,6.411 0.522,12.76 0.981,19.5 -0.327,11.911 1.636,23.362 1.833,35.337 -3.141,0.984 -6.217,2.226 -9.097,3.927 -3.747,1.766 -3.339,7.069 -2.814,7.985 -6.217,0.654 -12.958,-0.59 -19.502,-0.131 -7.198,-0.196 -13.611,-0.328 -21.006,-0.459 -0.26,-0.196 3.918,-6.106 -0.915,-10.078 -9.818,-8.065 -21.4,-7.852 -21.531,-7.983 -0.328,-17.474 -2.159,-34.945 -0.784,-52.482 4.385,-2.16 6.87,-6.94 9.422,-10.537 4.123,1.373 8.72,2.078 13.627,0.277 16.525,-9.078 5.646,-25.113 -1.064,-26.779 -7.786,-2.881 -16.031,-0.262 -21.529,5.627 -1.505,1.177 -2.748,3.793 -4.711,1.896 -1.636,-0.521 -3.076,-1.506 -4.842,-1.57 -4.319,1.506 -8.048,4.318 -11.517,7.986 -0.444,2.594 -0.359,4.324 0.314,7.178 -1.856,2.689 -3.526,5.203 -1.848,9.4 1.68,4.198 4.868,6.715 8.011,6.522 1.572,3.467 1.702,39.787 1.244,53.726 -3.337,1.766 -12.319,3.58 -15.574,10.207 L 0,0"
               style="fill:#000000;fill-opacity:1;fill-rule:nonzero;stroke:none"
               id="path52"
               inkscape:connector-curvature="0" /></g><g
             id="g54"
             transform="translate(-123.036,164.318)"><path
               d="m 0,0 c 6.229,-1.842 12.33,-4.198 19.069,-3.757 6.05,0.397 11.925,2.226 17.983,2.529 6.22,0.308 11.885,-1.81 17.882,-2.986 8.109,-1.591 15.98,2.224 24.084,2.504 5.112,0.178 9.912,-1.766 14.903,-2.49 6.525,-0.942 12.998,1.829 19.528,1.485 8.559,-0.449 12.178,-6.672 12.418,-14.915 0.108,-3.733 -0.454,-7.438 -0.847,-11.141 -0.354,-3.316 -0.163,-6.754 -0.8,-10.027 -0.77,-3.967 0.126,-7.945 0.933,-11.828 1.413,-6.783 1.735,-14.556 0.473,-21.387 -1.249,-6.774 -3.722,-13.356 -2.705,-20.35 0.713,-4.89 2.19,-10.047 1.753,-15.019 -0.479,-5.42 -1.836,-10.715 -3.207,-15.965 -1.186,-4.54 -3.053,-9.476 -2.667,-14.236 0.209,-2.594 0.543,-4.909 1.165,-7.451 0.791,-3.24 1.724,-7.545 1.343,-10.882 -0.392,-3.441 -2.123,-6.617 -3.576,-9.704 -3.026,-6.436 -3.725,-14.188 -3.755,-21.666 -0.028,-6.928 0.149,-14.456 -4.929,-19.862 -2.797,-3.648 -7.078,-3.486 -11.204,-2.961 -4.958,0.627 -9.724,0.092 -14.52,-1.236 -6.936,-1.92 -12.471,-1.877 -19.482,0.049 -6.739,1.853 -14.213,2.211 -20.889,-0.102 -6.478,-1.508 -13.611,-3.142 -20.548,-1.572 -8.376,2.681 -17.866,4.777 -27.027,2.812 -4.189,-0.894 -8.421,-1.924 -12.723,-2.041 -4.098,-0.111 -7.787,1.149 -11.785,1.684 -7.409,0.99 -14.811,-1.19 -22.234,-0.922 -7.454,0.266 -14.052,3.527 -21.708,2.85 -2.095,0.132 -1.53,1.359 -3.559,1.488 -2.552,11.977 -6.094,32.539 -16.94,32.67 -1.636,-0.066 -3.076,-0.658 -4.386,0.453 -4.908,5.76 -2.665,13.948 -7.836,19.576 -3.075,4.924 -10.143,8.637 -9.423,15.574 0.13,7.46 -0.196,15.052 -4.515,20.876 -3.404,5.105 -7.33,10.012 -8.181,16.164 -0.916,5.972 -1.161,11.369 -4.843,17.604 -2.86,4.842 -6.216,9.488 -9.292,14.265 -2.355,5.693 -0.131,11.778 3.469,16.165 2.094,3.01 6.217,3.729 7.394,7.263 1.418,4.255 2.586,9.294 5.222,12.99 2.7,3.783 7.542,5.206 10.721,8.516 3.807,3.966 6.181,9.099 8.858,13.831 2.654,4.689 4.666,10.802 10.571,12.13 7.307,1.641 15.151,-2.454 22.543,-2.118 5.366,-0.064 10.471,2.292 16.032,2.683 7.473,0.527 14.657,-2.019 22.031,-2.675 7.784,-0.691 14.527,2.714 22.151,3.136 C -8.49,2.258 -4.216,1.245 0,0"
               style="fill:#fff463;fill-opacity:1;fill-rule:nonzero;stroke:none"
               id="path56"
               inkscape:connector-curvature="0" /></g><g
             id="g58"
             transform="translate(-177.604,126.429)"><path
               d="m 0,0 c -4.879,-0.84 -9.489,1.703 -11.976,5.956 -1.375,3.141 -0.892,6.795 0.196,9.881 5.694,16.12 19.24,10.079 23.232,8.312 C 18.672,20.832 21.508,3.709 0,0"
               style="fill:#b2b618;fill-opacity:1;fill-rule:nonzero;stroke:none"
               id="path60"
               inkscape:connector-curvature="0" /></g><g
             id="g62"
             transform="translate(-6.1909995,149.616)"><path
               d="m 0,0 c 1.701,-1.565 2.724,-3.959 2.424,-6.258 -0.764,-5.837 -7.276,-10.843 -13.049,-10.843 -4.923,0 -5.683,4.425 -4.906,8.327 0.401,2.018 1.478,3.693 2.606,5.416 C -8.663,3.152 -1.139,1.046 0,0"
               style="fill:#b2b618;fill-opacity:1;fill-rule:nonzero;stroke:none"
               id="path64"
               inkscape:connector-curvature="0" /></g><g
             id="g66"
             transform="translate(-164.909,146.193)"><path
               d="m 0,0 c 2.141,-3.781 1.831,-9.686 -2.027,-12.892 -3.929,-3.6 -8.704,-5.89 -14.137,-4.843 -3.009,0.195 -5.954,2.881 -6.937,5.628 -0.719,4.319 0.261,8.638 2.814,11.976 C -15.509,5.866 -3.075,5.432 0,0"
               style="fill:#b2b618;fill-opacity:1;fill-rule:nonzero;stroke:none"
               id="path68"
               inkscape:connector-curvature="0" /></g><g
             id="g70"
             transform="translate(-7.2630001,148.221)"><path
               d="m 0,0 c 1.963,-1.635 1.898,-4.384 1.57,-6.543 -1.484,-2.969 -4.211,-5.829 -7.465,-6.79 -1.74,-0.514 -4.51,-0.999 -5.91,0.437 -1.431,1.469 -1.696,5.684 -0.563,7.399 C -9.686,-1.44 -4.778,3.207 0,0"
               style="fill:#b2b618;fill-opacity:1;fill-rule:nonzero;stroke:none"
               id="path72"
               inkscape:connector-curvature="0" /></g><g
             id="g74"
             transform="translate(-38.052,122.705)"><path
               d="m 0,0 c 6.422,-4.84 11.347,-11.901 13.709,-19.048 2.814,-9.358 1.768,-20.483 -2.224,-28.926 3.859,-0.653 7.918,-3.664 8.833,-6.282 1.898,-4.384 -0.763,-9.478 -5.03,-13.42 -4.261,-3.938 -20.369,-11.698 -36.589,-12.036 3.991,-3.205 15.26,-9.762 17.027,-10.35 -0.807,-1.614 -10.263,-2.316 -14.117,-2.624 0.223,-2.516 -0.231,-18.031 -0.689,-18.356 -3.141,-0.655 -15.047,-0.67 -17.338,-0.67 -1.178,-0.851 -4.058,-20.616 -5.302,-28.729 -0.26,-2.815 -2.813,-4.777 -5.235,-5.694 -16.228,-5.628 -36.842,-3.533 -51.5,4.583 -11.19,8.177 -10.798,21.529 -11.256,34.093 0,12.761 -0.852,25.718 0.13,38.283 -2.487,0.654 -5.301,0.065 -7.526,0.458 -0.851,0.786 0.721,1.637 1.244,1.898 6.152,0.392 12.237,-0.59 16.491,-4.844 -0.262,-1.308 -3.948,2.64 -7.068,1.899 -0.915,-1.244 -0.393,-3.075 0.131,-4.254 7.199,-12.76 21.726,-14.985 35.011,-16.491 18.387,-0.915 42.181,-1.222 60.57,1.658 -2.823,2.016 -8.671,4.84 -12.905,9.075 -5.695,-0.132 -14.029,1.439 -19.068,3.534 -0.262,0.065 0,0.392 -0.328,0.458 6.676,-0.393 13.875,-1.114 20.943,-0.588 11.255,0.195 21.593,3.795 31.214,8.441 9.38,4.907 9.884,13.198 8.377,14.571 -2.814,3.732 -8.212,4.281 -12.704,2.624 -15.903,-6.217 -31.207,-15.691 -49.529,-16.083 -1.18,0.328 -3.011,-0.065 -3.6,0.982 2.683,0.588 5.562,0.719 8.309,1.047 0,0.195 0,0.325 0,0.523 -6.215,3.469 -12.892,9.096 -16.032,15.705 -0.13,0 -10.076,-17.625 -30.43,-18.715 -1.176,-2.094 -3.074,-4.711 -5.496,-5.497 -0.197,0.13 -0.328,0.327 -0.458,0.456 2.355,2.815 5.889,6.152 3.599,10.21 -6.742,10.078 -22.119,14.463 -30.297,11.976 -8.4,-3.076 -6.153,-11.649 -3.929,-13.678 0.263,-1.047 -0.325,-0.631 -0.981,-0.326 -1.833,0.981 -3.163,3.074 -3.468,4.712 -0.458,2.814 0.195,8.071 5.496,10.993 -7.459,10.929 -6.413,28.926 0.982,39.592 2.65,4.712 6.17,7.626 10.456,11.101 l -6.503,11.972 5.454,2.784 5.245,-11.961 c 3.24,1.378 9.634,3.019 12.94,3.235 l -1.267,12.726 6.338,0.644 V 8.554 c 2.72,-0.349 10.49,-0.717 12.251,-1.436 l 3.278,11.921 6.271,-1.578 -5.06,-12.136 c 11.176,-4.357 16.382,-16.848 16.56,-16.848 3.39,6.841 10.409,12.291 17.038,15.439 l -4.963,12.502 5.849,1.815 3.63,-12.504 c 3.429,0.806 9.814,2.166 13.108,1.815 l 0.605,13.109 6.051,-0.403 -1.615,-13.311 C -12.745,6.134 -5.685,3.914 -4.073,2.905 L 2.38,14.4 7.826,11.175 0,0"
               style="fill:#000000;fill-opacity:1;fill-rule:nonzero;stroke:none"
               id="path76"
               inkscape:connector-curvature="0" /></g><g
             id="g78"
             transform="translate(-111.837,126.234)"><path
               d="M 0,0 C 12.499,-5.433 19.894,-18.062 20.745,-31.085 21.203,-43.649 15.706,-54.774 5.17,-62.3 c -5.3,-3.076 -10.733,-5.825 -17.277,-6.02 0.785,6.02 -11.648,20.853 -34.007,16.817 -0.652,0 -0.283,0.458 -0.677,0.787 -6.935,12.237 -5.081,30.289 3.928,41.03 C -30.734,4.777 -9.14,3.576 0,0"
               style="fill:#ffffff;fill-opacity:1;fill-rule:nonzero;stroke:none"
               id="path80"
               inkscape:connector-curvature="0" /></g><g
             id="g82"
             transform="translate(-29.512999,110.723)"><path
               d="m 0,0 c 5.89,-10.077 6.741,-25.194 0.786,-35.534 -3.273,-0.916 -5.652,-1.959 -9.424,-3.599 -3.773,-1.64 -19.371,-9.03 -29.84,-11.452 -2.881,-0.064 -5.956,-2.552 -8.639,-0.327 -6.74,3.469 -13.089,9.685 -16.359,16.491 4.646,9.489 5.234,22.315 0.784,32.066 1.441,4.188 4.844,7.983 8.311,10.993 9.555,8.442 24.737,10.994 36.582,6.283 C -10.666,12.434 -3.926,6.807 0,0"
               style="fill:#ffffff;fill-opacity:1;fill-rule:nonzero;stroke:none"
               id="path84"
               inkscape:connector-curvature="0" /></g><g
             id="g86"
             transform="translate(-172.304,117.791)"><path
               d="m 0,0 c 0.459,-1.44 0.174,-7.94 -6.282,-7.722 -1.842,0.063 -3.795,1.113 -4.515,3.011 -0.394,1.831 0.458,3.207 1.243,4.515 C -7.264,2.488 -1.964,3.664 0,0"
               style="fill:#b2b618;fill-opacity:1;fill-rule:nonzero;stroke:none"
               id="path88"
               inkscape:connector-curvature="0" /></g><g
             id="g90"
             transform="translate(-174.529,113.451)"><path
               d="M 0,0 C -1.179,-1.506 -5.234,-4.254 -6.739,0.546 -6.937,2.444 -5.299,3.883 -3.86,4.799 -1.854,5.889 2.967,3.816 0,0"
               style="fill:#b2b618;fill-opacity:1;fill-rule:nonzero;stroke:none"
               id="path92"
               inkscape:connector-curvature="0" /></g><g
             id="g94"
             transform="translate(95.478003,106.928)"><path
               d="m 0,0 c -0.456,-4.253 -5.431,-6.085 -7.852,-9.226 -4.581,-3.076 -7.984,-7.657 -9.424,-12.762 -4.253,-0.654 -8.377,-1.833 -11.649,-5.038 -0.196,0.131 -0.196,0.784 0,0.981 5.367,10.405 10.275,25.586 24.082,27.943 C -3.141,1.505 -0.851,2.225 0,0"
               style="fill:#fff463;fill-opacity:1;fill-rule:nonzero;stroke:none"
               id="path96"
               inkscape:connector-curvature="0" /></g><g
             id="g98"
             transform="translate(-99.925002,96.392002)"><path
               d="m 0,0 c 2.027,-3.861 1.701,-9.358 -0.264,-13.153 -3.534,-5.497 -9.292,-9.489 -16.031,-8.18 -5.235,1.373 -11.126,5.955 -12.108,11.65 -1.243,5.038 0.525,9.946 3.6,13.806 4.057,4.32 10.272,5.954 15.901,4.253 C -4.974,7.328 -1.637,3.6 0,0"
               style="fill:#000000;fill-opacity:1;fill-rule:nonzero;stroke:none"
               id="path100"
               inkscape:connector-curvature="0" /></g><g
             id="g102"
             transform="translate(-53.593001,97.048001)"><path
               d="m 0,0 c 7.11,-12.719 -2.707,-24.28 -14.268,-23.231 -4.875,0.442 -9.881,3.466 -12.106,8.31 -2.749,5.366 -1.899,12.499 1.896,17.144 3.993,4.189 9.295,6.152 15.053,4.975 C -5.695,6.151 -2.006,3.585 0,0"
               style="fill:#000000;fill-opacity:1;fill-rule:nonzero;stroke:none"
               id="path104"
               inkscape:connector-curvature="0" /></g><g
             id="g106"
             transform="translate(-101.955,96.720002)"><path
               d="m 0,0 c 2.421,-3.993 2.421,-10.406 -0.59,-14.135 -3.336,-4.581 -8.376,-6.611 -13.872,-5.498 -4.057,1.114 -8.836,4.384 -9.882,8.835 -1.245,4.056 -0.524,8.899 1.897,12.238 3.534,3.664 8.311,5.954 13.679,4.71 C -5.365,5.169 -1.964,3.337 0,0"
               style="fill:#3cc1f3;fill-opacity:1;fill-rule:nonzero;stroke:none"
               id="path108"
               inkscape:connector-curvature="0" /></g><g
             id="g110"
             transform="translate(-57.194001,98.159999)"><path
               d="m 0,0 c 2.616,-3.207 4.058,-6.872 3.601,-11.321 -0.721,-4.189 -4.089,-9.255 -8.444,-10.078 -13.022,-2.465 -18.93,8.354 -17.473,14.658 0.961,4.144 3.361,7.744 6.611,9.424 C -10.713,5.263 -3.861,4.122 0,0"
               style="fill:#3cc1f3;fill-opacity:1;fill-rule:nonzero;stroke:none"
               id="path112"
               inkscape:connector-curvature="0" /></g><g
             id="g114"
             transform="translate(-104.638,94.362999)"><path
               d="m 0,0 c 3.403,-4.908 -0.396,-15.095 -9.685,-12.892 -4.69,1.114 -9.381,5.04 -5.038,13.22 C -12.784,3.986 -4.321,6.231 0,0"
               style="fill:#000000;fill-opacity:1;fill-rule:nonzero;stroke:none"
               id="path116"
               inkscape:connector-curvature="0" /></g><g
             id="g118"
             transform="translate(-58.895998,93.252001)"><path
               d="m 0,0 c 1.178,-2.815 1.309,-6.543 -0.653,-9.096 -1.376,-2.095 -3.469,-3.142 -5.629,-3.73 -3.926,-0.263 -7.656,1.701 -9.292,5.298 -0.851,2.749 -1.161,6.204 0.982,8.508 C -7.984,8.092 -1.571,2.356 0,0"
               style="fill:#000000;fill-opacity:1;fill-rule:nonzero;stroke:none"
               id="path120"
               inkscape:connector-curvature="0" /></g><g
             id="g122"
             transform="translate(83.698998,77.282997)"><path
               d="m 0,0 c 0.799,-1.867 -4.157,-1.368 -5.203,-1.746 -0.805,-0.29 -9.702,-3.511 -8.801,-4.863 -1.046,1.571 -2.159,3.665 -3.273,5.498 0.589,2.094 2.879,2.748 4.386,3.925 C -8.835,4.058 -2.16,5.039 0,0"
               style="fill:#fff463;fill-opacity:1;fill-rule:nonzero;stroke:none"
               id="path124"
               inkscape:connector-curvature="0" /></g><g
             id="g126"
             transform="translate(67.340002,68.449)"><path
               d="m 0,0 c 0,-2.094 -1.44,-3.927 -3.404,-4.515 -4.645,-1.309 -8.507,2.291 -11.648,5.629 -0.59,-0.787 0.066,-1.835 0.327,-2.684 2.225,-3.796 6.021,-5.758 10.208,-5.956 0.983,0 1.703,0.655 2.815,0.459 0.851,-3.076 1.048,-6.938 4.712,-8.442 2.813,-1.112 5.824,0.261 7.852,2.617 2.619,3.011 4.45,6.283 5.825,9.752 -0.392,1.046 -1.441,0.13 -1.441,-0.459 -2.421,-3.468 -3.926,-8.835 -8.768,-9.751 -1.571,0.263 -3.273,0 -4.384,1.243 -2.618,3.404 -0.654,7.461 0.785,10.733 3.599,3.795 8.376,7.134 13.938,6.087 1.898,-0.654 3.926,-1.637 5.039,-3.599 0.982,-2.488 -0.588,-4.778 -1.44,-6.938 -1.701,-3.927 -3.991,-7.591 -6.544,-11.125 -2.012,-2.786 -4.091,-5.351 -7.134,-7.09 -1.683,-0.965 -3.592,-1.751 -5.515,-2.067 -0.628,-0.104 -4.958,0.51 -4.955,0.519 -2.42,-4.384 -12.859,-35.371 -22.184,-47.772 -2.814,-3.744 -4.09,-7.426 -8.657,-9.033 -2.786,-0.984 -5.624,-1.928 -8.5,-2.6 -2.834,-0.662 -5.729,-0.652 -8.561,-1.193 -1.375,-0.262 -3.271,-0.197 -4.711,-0.654 -0.981,-0.131 -0.785,1.048 -0.785,1.701 0.851,1.701 -0.982,5.498 2.357,5.041 8.637,1.113 18.191,1.634 22.772,10.861 8.703,14.529 15.836,29.777 21.203,45.678 0.066,3.599 -4.057,3.73 -5.694,6.609 -4.516,4.057 -5.105,10.47 -3.731,16.165 1.768,4.45 3.928,11.123 9.883,11.451 C -5.236,9.752 -1.31,4.713 0,0"
               style="fill:#fff463;fill-opacity:1;fill-rule:nonzero;stroke:none"
               id="path128"
               inkscape:connector-curvature="0" /></g><g
             id="g130"
             transform="translate(-151.64,69.589001)"><path
               d="M 0,0 C -0.116,-0.287 -0.402,-0.744 -0.803,-0.687 -1.718,-0.802 -2.577,-0.573 -2.978,0.116 -2.634,1.947 -0.516,0.858 0,0"
               style="fill:#ef5240;fill-opacity:1;fill-rule:nonzero;stroke:none"
               id="path132"
               inkscape:connector-curvature="0" /></g><g
             id="g134"
             transform="translate(-135.198,65.504999)"><path
               d="m 0,0 c -0.066,-0.459 -0.263,-0.851 -0.655,-1.114 -1.179,0.131 -2.617,0.197 -3.011,1.572 0.264,0.719 1.114,0.522 1.57,0.916 C -1.179,1.439 -0.458,0.655 0,0"
               style="fill:#ef5240;fill-opacity:1;fill-rule:nonzero;stroke:none"
               id="path136"
               inkscape:connector-curvature="0" /></g><g
             id="g138"
             transform="translate(-144.164,63.411003)"><path
               d="m 0,0 c -0.066,-0.654 -0.459,-1.243 -1.243,-1.048 -0.851,0.065 -1.898,0.262 -2.096,1.244 -0.13,0.588 0.198,1.047 0.656,1.374 C -1.506,1.766 -0.589,0.98 0,0"
               style="fill:#ef5240;fill-opacity:1;fill-rule:nonzero;stroke:none"
               id="path140"
               inkscape:connector-curvature="0" /></g><g
             id="g142"
             transform="translate(63.282003,58.567999)"><path
               d="M 0,0 C -0.131,-1.439 -0.917,-2.944 -2.356,-3.598 -4.253,-5.039 -2.749,-2.422 -3.01,-1.897 -1.964,-1.243 -1.309,1.832 0,0"
               style="fill:#000000;fill-opacity:1;fill-rule:nonzero;stroke:none"
               id="path144"
               inkscape:connector-curvature="0" /></g><g
             id="g146"
             transform="translate(-112.294,29.381999)"><path
               d="M 0,0 C 0.195,-0.196 0.392,-0.329 0.327,-0.655 0,-6.61 0.195,-12.37 0.457,-18.062 c 0.525,-0.785 1.243,-0.851 1.898,-1.309 7.461,0 14.528,-0.065 21.791,1.309 0.263,0.262 0.72,0.524 0.787,0.916 -0.198,5.17 -0.198,11.059 0,15.836 2.026,0.851 4.711,0.459 6.936,0.328 1.112,-5.628 -1.59,-11.559 -0.018,-17.056 0.263,-0.46 1.98,-0.613 2.372,-0.809 -0.774,0.388 -3.313,-12.013 -3.431,-13.132 -0.246,-2.342 -0.384,-4.698 -0.461,-7.051 -0.091,-2.772 0.438,-8.459 -3.174,-9.528 -4.582,8.641 -13.545,12.762 -22.642,13.678 -3.6,0.065 -6.348,-0.195 -9.097,-1.439 -5.104,2.617 -14.463,7.394 -26.046,4.711 -2.323,7.427 -1.57,35.664 -1.897,44.434 C -23.428,4.319 -11.911,1.701 0,0"
               style="fill:#692d31;fill-opacity:1;fill-rule:nonzero;stroke:none"
               id="path148"
               inkscape:connector-curvature="0" /></g><g
             id="g150"
             transform="translate(-77.415997,28.400001)"><path
               d="m 0,0 c 5.76,0.653 11.78,0.653 17.538,1.243 0.197,-0.132 0.459,-0.327 0.329,-0.59 0.326,-4.71 -0.005,-11.208 0.388,-15.722 -6.217,-0.526 -12.71,0.106 -18.926,0.041 L 0,0"
               style="fill:#ffffff;fill-opacity:1;fill-rule:nonzero;stroke:none"
               id="path152"
               inkscape:connector-curvature="0" /></g><g
             id="g154"
             transform="translate(-89.849001,13.479002)"><path
               d="m 0,0 c -6.478,-0.851 -13.219,-0.327 -19.762,-0.458 -0.066,5.3 -0.066,11.191 0.589,16.165 6.217,-0.459 12.76,-0.983 18.847,-0.786 L 0,0"
               style="fill:#ffffff;fill-opacity:1;fill-rule:nonzero;stroke:none"
               id="path156"
               inkscape:connector-curvature="0" /></g><g
             id="g158"
             transform="translate(-12.761004,18.845999)"><path
               d="m 0,0 c 5.269,-12.827 -9.814,-19.174 -15.182,-19.174 -10.143,-0.687 -8.87,9.451 -7.852,13.023 C -17.799,12.203 -2.149,5.237 0,0"
               style="fill:#b2b618;fill-opacity:1;fill-rule:nonzero;stroke:none"
               id="path160"
               inkscape:connector-curvature="0" /></g><g
             id="g162"
             transform="translate(-13.806001,17.733001)"><path
               d="m 0,0 c 1.765,-5.889 -1.048,-11.06 -6.938,-14.265 -3.382,-1.842 -19.469,-6.774 -10.666,13.611 2.814,4.808 5.889,5.366 10.011,5.038 C -4.582,4.058 -1.506,3.075 0,0"
               style="fill:#b2b618;fill-opacity:1;fill-rule:nonzero;stroke:none"
               id="path164"
               inkscape:connector-curvature="0" /></g><g
             id="g166"
             transform="translate(15.705997,-2.8160012)"><path
               d="m 0,0 c 1.036,-2.715 3.142,-6.936 -1.766,-6.151 0,0 -1.963,-0.066 -2.16,0.916 -0.138,0.694 0.066,2.487 -0.198,2.682 -3.728,-1.963 -3.858,-6.279 -4.055,-10.207 1.046,-3.338 0.786,-7.33 3.795,-9.75 1.113,0.916 -1.766,3.926 1.245,3.664 1.568,0.197 4.907,0.393 5.038,0.262 -0.655,-2.617 -1.114,-5.76 -3.927,-7.069 -6.021,-2.093 -13.219,-2.486 -19.633,-2.029 -0.914,7.92 -0.85,17.016 2.945,23.756 4.909,3.664 9.947,7.657 16.491,6.872 C -1.308,2.029 -0.72,0.982 0,0"
               style="fill:#ffffff;fill-opacity:1;fill-rule:nonzero;stroke:none"
               id="path168"
               inkscape:connector-curvature="0" /></g><g
             id="g170"
             transform="translate(-112.294,-12.892002)"><path
               d="m 0,0 c 0.915,0.718 -0.393,1.244 -0.655,1.896 -0.719,0.852 -1.767,1.504 -2.159,2.488 7.525,1.702 15.508,0.262 20.68,-5.302 2.093,-2.289 3.533,-4.842 4.709,-7.395 -12.497,-2.748 -26.109,-0.521 -38.15,1.701 -5.366,1.506 -11.321,5.432 -13.48,10.996 -0.067,1.309 -1.573,2.225 -0.788,3.598 C -16.59,11.386 -3.993,2.486 0,0"
               style="fill:#f6a3a5;fill-opacity:1;fill-rule:nonzero;stroke:none"
               id="path172"
               inkscape:connector-curvature="0" /></g><g
             id="g174"
             transform="translate(-160.197,-8.0509979)"><path
               d="m 0,0 c 0.556,-2.697 -1.832,-5.367 -4.581,-6.738 -1.243,-0.787 -4.924,-1.687 -5.758,0.979 -0.638,2.732 4.515,8.051 7.067,7.984 C -1.898,2.19 -0.59,1.309 0,0"
               style="fill:#b2b618;fill-opacity:1;fill-rule:nonzero;stroke:none"
               id="path176"
               inkscape:connector-curvature="0" /></g><g
             id="g178"
             transform="translate(-162.423,-9.8830014)"><path
               d="m 0,0 c -0.326,-1.896 -6.953,-6.183 -6.282,-3.466 0.885,3.335 2.486,4.711 4.713,5.625 C -0.259,2.487 0.655,1.424 0,0"
               style="fill:#b2b618;fill-opacity:1;fill-rule:nonzero;stroke:none"
               id="path180"
               inkscape:connector-curvature="0" /></g><g
             id="g182"
             transform="translate(-21.988,-13.680001)"><path
               d="m 0,0 c 1.965,-3.597 -1.537,-14.658 -12.892,-13.347 -1.505,0.588 -3.271,1.83 -3.795,3.467 -1.309,2.748 0.392,5.431 0.982,7.984 2.813,3.797 6.937,6.805 11.78,5.498 C -2.552,2.489 -0.195,2.227 0,0"
               style="fill:#b2b618;fill-opacity:1;fill-rule:nonzero;stroke:none"
               id="path184"
               inkscape:connector-curvature="0" /></g><g
             id="g186"
             transform="translate(-24.540002,-12.892002)"><path
               d="m 0,0 c 4.122,-4.321 -4.711,-16.754 -11.908,-10.668 -0.917,2.355 -1.115,5.824 0.784,7.984 C -8.638,0.783 -3.205,3.357 0,0"
               style="fill:#b2b618;fill-opacity:1;fill-rule:nonzero;stroke:none"
               id="path188"
               inkscape:connector-curvature="0" /></g><g
             id="g190"
             transform="translate(-207.968,-24.804)"><path
               d="m 0,0 c 1.962,-7.395 3.272,-15.508 3.794,-23.1 -2.682,-3.664 -6.805,-3.729 -10.665,-4.385 -5.171,0.262 -10.406,1.309 -14.594,4.188 -1.374,7.002 0.981,13.679 1.57,20.418 1.048,5.367 2.813,10.799 7.983,14.134 1.769,0.721 3.863,0.2 5.368,-0.783 C -3.274,7.462 -1.572,3.73 0,0"
               style="fill:#ffffff;fill-opacity:1;fill-rule:nonzero;stroke:none"
               id="path192"
               inkscape:connector-curvature="0" /></g><g
             id="g194"
             transform="translate(-151.559,-22.774997)"><path
               d="m 0,0 c 1.374,-1.766 3.453,-6.545 -1.702,-12.76 -3.042,-3.67 -8.246,-5.564 -13.087,-4.385 -2.423,0.918 -3.535,3.534 -3.599,5.953 0.131,5.434 2.747,10.407 7.72,13.09 C -7.46,3.664 -2.356,3.533 0,0"
               style="fill:#b2b618;fill-opacity:1;fill-rule:nonzero;stroke:none"
               id="path196"
               inkscape:connector-curvature="0" /></g><g
             id="g198"
             transform="translate(-153.261,-23.887002)"><path
               d="m 0,0 c 4.008,-4.125 -1.243,-12.236 -5.038,-13.48 -7.886,-3.566 -8.836,0.457 -8.966,0.457 -1.112,4.582 -0.197,9.49 3.011,12.893 C -8.507,2.618 -2.552,3.27 0,0"
               style="fill:#b2b618;fill-opacity:1;fill-rule:nonzero;stroke:none"
               id="path200"
               inkscape:connector-curvature="0" /></g><g
             id="g202"
             transform="translate(-120.279,-32.394)"><path
               d="m 0,0 c 10.536,0.326 20.614,-2.422 31.085,-1.832 5.234,0.392 10.142,2.289 13.48,6.543 0.327,0.132 0.457,-0.131 0.655,-0.262 -3.012,-6.022 -7.236,-9.115 -15.445,-9.422 -4.334,-0.164 -22.411,2.932 -38.152,1.57 -4.974,-0.394 -10.339,6.413 -13.348,9.096 -2.815,5.301 2.289,0.328 3.336,-0.654 C -13.283,0.98 -6.936,-1.573 0,0"
               style="fill:#f7a39d;fill-opacity:1;fill-rule:nonzero;stroke:none"
               id="path204"
               inkscape:connector-curvature="0" /></g><g
             id="g206"
             transform="translate(-178.717,-49.931)"><path
               d="m 0,0 c 0.915,-1.506 0.524,-12.827 0.131,-16.952 -10.668,1.44 -21.006,3.733 -31.214,6.219 -0.132,2.094 -0.459,3.99 -0.329,6.152 2.879,1.374 6.675,2.418 8.181,5.628 -0.197,0.718 -0.394,1.765 0.131,2.355 6.823,-0.855 11.256,2.553 17.276,-0.131 C -2.656,2.3 -1.701,1.765 0,0"
               style="fill:#b2e2f9;fill-opacity:1;fill-rule:nonzero;stroke:none"
               id="path208"
               inkscape:connector-curvature="0" /></g><g
             id="g210"
             transform="translate(-17.642998,-50.173998)"><path
               d="m 0,0 c -0.634,-2.32 -0.075,-5.066 -0.187,-7.474 -0.112,-2.44 0.473,-5.885 -0.099,-8.186 -0.067,-0.263 -0.392,0 -0.459,-0.263 -21.137,-0.588 -40.705,-0.981 -61.579,-0.327 -1.308,0.131 -3.076,0.262 -4.517,0.59 -0.851,1.44 -0.915,3.141 -1.766,4.58 1.701,3.207 3.861,6.348 5.169,9.555 0.198,0.393 0.459,0 0.656,0 5.038,-3.6 9.161,-9.293 15.247,-10.342 3.402,1.18 6.085,4.321 9.228,6.088 2.486,1.375 4.58,3.533 6.936,5.039 1.406,0.899 5.001,0.85 6.717,1.252 2.33,0.551 4.647,1.164 7.016,1.537 3.031,0.479 6.082,0.559 9.043,-0.334 C -5.682,0.838 -3.11,-0.335 0,0"
               style="fill:#ffffff;fill-opacity:1;fill-rule:nonzero;stroke:none"
               id="path212"
               inkscape:connector-curvature="0" /></g><g
             id="g214"
             transform="translate(-111.51,-49.148002)"><path
               d="m 0,0 c 2.859,-0.131 4.603,-0.676 7.657,-1.111 0,-0.198 0,-0.395 0,-0.655 -4.319,-3.402 -13.72,-10.513 -14.179,-10.252 -7.526,2.422 -15.139,6.52 -22.402,9.664 0.916,0.848 2.945,0.26 4.253,0.784 C -17.21,0.918 -7.918,1.57 0,0"
               style="fill:#ffffff;fill-opacity:1;fill-rule:nonzero;stroke:none"
               id="path216"
               inkscape:connector-curvature="0" /></g><g
             id="g218"
             transform="translate(-54.053,-51.370998)"><path
               d="m 0,0 c -3.402,-2.814 -7.198,-5.955 -10.994,-8.508 -5.497,1.571 -9.488,6.871 -14.266,10.209 2.75,1.7 6.609,0.721 10.013,1.44 C -10.013,2.487 -5.104,0.979 0,0"
               style="fill:#ffffff;fill-opacity:1;fill-rule:nonzero;stroke:none"
               id="path220"
               inkscape:connector-curvature="0" /></g><g
             id="g222"
             transform="translate(-149.203,-50.259)"><path
               d="m 0,0 c 10.208,-4.647 20.658,-10.493 31.715,-12.981 1.158,0 10.101,7.09 14.943,10.951 2.356,-2.553 3.404,-6.348 6.741,-8.638 -0.458,-2.223 -2.159,-3.926 -3.337,-5.823 -25.392,-0.719 -51.567,-0.59 -77.089,-0.133 -0.328,0.133 -0.065,11.192 -0.328,15.641 C -21.333,0 -15.706,1.636 -9.425,1.898 -6.021,1.375 -3.077,1.242 0,0"
               style="fill:#ffffff;fill-opacity:1;fill-rule:nonzero;stroke:none"
               id="path224"
               inkscape:connector-curvature="0" /></g><g
             id="g226"
             transform="translate(-84.350997,-53.072001)"><path
               d="m 0,0 c -1.641,-4.906 -3.103,-6.924 -6.509,-7.086 -4.812,-0.234 -6.672,4.668 -8.543,8.787 C -9.817,2.027 -4.32,1.504 0.654,3.141 1.176,2.158 0.065,1.045 0,0"
               style="fill:#eb1c22;fill-opacity:1;fill-rule:nonzero;stroke:none"
               id="path228"
               inkscape:connector-curvature="0" /></g><g
             id="g230"
             transform="translate(-212.811,-55.167997)"><path
               d="m 0,0 c 0.327,-10.599 1.177,-21.398 1.702,-32.129 0.26,-2.619 1.962,-4.781 2.095,-7.267 5.102,-3.662 8.505,-8.703 7.328,-15.051 -0.656,-5.299 9.03,-7.066 4.713,-12.76 -0.852,-1.636 -3.079,-1.439 -4.384,-0.785 -2.882,1.373 -3.143,4.842 -5.826,6.022 -3.131,-3.801 -1.693,-8.862 0.071,-12.914 0.239,-0.551 1.42,-2.866 1.946,-3.493 0.454,-0.539 0.783,-1.66 0.339,-2.312 -0.741,-1.088 -2.776,-1.75 -4.037,-1.602 -1.47,0.174 -2.636,1.307 -3.575,2.371 -3.834,4.34 -3.399,12.215 -3.645,12.908 -0.392,1.114 -1.571,0.592 -1.766,-0.326 0,-5.498 0.654,-11.125 4.907,-15.052 0,-0.85 -1.504,-0.457 -2.094,-0.326 -6.085,2.747 -4.266,13.199 -6.413,14.134 -1.337,0.608 -0.765,-3.392 -0.768,-3.922 -0.007,-0.875 0.963,-6.084 1.335,-6.677 -2.889,3.052 -2.796,6.093 -3.248,8.275 -0.49,2.369 -0.585,4.793 -0.41,7.203 0.355,4.832 1.569,9.674 3.429,14.143 0.514,1.238 1.087,2.451 1.691,3.646 0.305,0.602 0.617,1.199 0.934,1.791 0.234,0.44 0.943,1.299 0.965,1.783 0.589,14.266 -1.44,28.86 -2.488,42.862 C -4.844,0.326 -2.422,0.196 0,0"
               style="fill:#fff463;fill-opacity:1;fill-rule:nonzero;stroke:none"
               id="path232"
               inkscape:connector-curvature="0" /></g><g
             id="g234"
             transform="translate(-88.932002,-61.579999)"><path
               d="m 0,0 c 1.929,-5.775 3.892,-11.748 6.609,-17.08 -0.262,-1.865 -7.199,-10.732 -8.311,-12.107 -4.057,2.814 -10.855,11.281 -10.862,11.55 -0.01,0.305 5.954,11.748 7.852,17.637 1.105,-0.426 3.791,-0.932 4.712,0"
               style="fill:#eb1c22;fill-opacity:1;fill-rule:nonzero;stroke:none"
               id="path236"
               inkscape:connector-curvature="0" /></g><g
             id="g238"
             transform="translate(-125.693,-80.935002)"><path
               d="m 0,0 c 7.033,-0.246 15.23,-0.082 21.709,-0.082 3.664,-4.58 8.18,-9.225 13.021,-12.434 0.199,-0.262 0.526,0.067 0.788,0.131 4.253,3.207 9.995,12.451 10.454,12.713 6.543,0.262 21.185,0.213 21.185,0.734 L 67.24,8.261 C 66.977,9.505 50.372,8.164 43.567,8.23 l -1.309,3.467 c 11.582,1.769 24.473,0.459 35.664,1.049 9.488,-0.067 20.091,0.26 29.514,-0.262 -0.197,-10.209 -0.654,-20.549 -1.374,-30.367 -0.197,-0.129 -0.327,-0.262 -0.459,-0.457 -11.779,-1.114 -23.361,-1.049 -35.534,-1.244 -39.394,-1.178 -81.67,-2.289 -121.064,-2.028 -10.274,3.664 -20.744,7.002 -30.757,11.321 -1.636,8.9 -1.374,18.783 -2.095,27.943 10.472,-1.506 20.616,-3.795 30.823,-5.955 0.524,-0.262 1.047,-22.117 1.113,-31.738 0.326,-0.26 1.505,-0.26 1.701,0 -0.392,11.127 -0.521,20.025 -0.459,31.412 0.459,0.326 66.751,1.765 76.437,0.457 L 24.391,8.687 C 16.932,7.117 7.704,8.097 -0.082,7.574 L 0,0"
               style="fill:#b26e2d;fill-opacity:1;fill-rule:nonzero;stroke:none"
               id="path240"
               inkscape:connector-curvature="0" /></g><g
             id="g242"
             transform="translate(-177.595,-102.222)"><path
               d="m 0,0 c -9.983,3.541 -20.133,6.806 -29.85,10.998 -1.636,8.9 -1.374,18.781 -2.094,27.945 10.471,-1.508 20.615,-3.797 30.823,-5.957 0.523,-0.262 1.047,-22.119 1.112,-31.738 L 0,0"
               style="fill:#80441d;fill-opacity:1;fill-rule:nonzero;stroke:none"
               id="path244"
               inkscape:connector-curvature="0" /></g><g
             id="g246"
             transform="translate(-204.902,-66.292997)"><path
               d="m 0,0 c 5.889,-1.035 14.505,-2.836 19.193,-4.363 v -7.58 C 13.042,-10.83 6.619,-9.031 0.598,-7.656 L 0,0"
               style="fill:#000000;fill-opacity:1;fill-rule:nonzero;stroke:none"
               id="path248"
               inkscape:connector-curvature="0" /></g><g
             id="g250"
             transform="translate(-187.398,-76.328001)"><path
               d="m 0,0 c -5.105,0.918 -10.352,2.227 -15.325,3.6 l -0.381,4.144 C -10.406,6.697 -5.018,5.836 0.055,4.527 L 0,0"
               style="fill:#000000;fill-opacity:1;fill-rule:nonzero;stroke:none"
               id="path252"
               inkscape:connector-curvature="0" /></g><g
             id="g254"
             transform="translate(-51.256,-72.592)"><path
               d="M 0,0 C 3.601,0.657 26.014,0.817 28.222,0.165 L 28.026,-7.05 C 26.667,-7.851 1.8,-8.343 -0.164,-7.689 L 0,0"
               style="fill:#000000;fill-opacity:1;fill-rule:nonzero;stroke:none"
               id="path256"
               inkscape:connector-curvature="0" /></g><g
             id="g258"
             transform="translate(-165.776,-73.328001)"><path
               d="M 0,0 C 8.508,-0.521 21.236,-0.361 29.611,-0.164 L 29.448,-7.279 C 25.522,-7.084 5.252,-7.166 0.408,-7.102 L 0,0"
               style="fill:#000000;fill-opacity:1;fill-rule:nonzero;stroke:none"
               id="path260"
               inkscape:connector-curvature="0" /></g><g
             id="g262"
             transform="translate(-81.194002,-74.718)"><path
               d="m 0,0 c 3.926,0.13 20.205,0.113 20.727,0.113 0.524,-0.981 0.329,-2.485 0.131,-3.598 C 14.445,-4.077 7.902,-3.747 1.097,-3.811 L 0,0"
               style="fill:#000000;fill-opacity:1;fill-rule:nonzero;stroke:none"
               id="path264"
               inkscape:connector-curvature="0" /></g><g
             id="g266"
             transform="translate(-49.701998,-74.881003)"><path
               d="M 0,0 C 5.956,0.719 22.546,0.393 24.705,0.327 V -3.027 C 20.254,-4.205 3.683,-4.123 0.083,-3.599 L 0,0"
               style="fill:#000000;fill-opacity:1;fill-rule:nonzero;stroke:none"
               id="path268"
               inkscape:connector-curvature="0" /></g><g
             id="g270"
             transform="translate(-123.159,-75.619003)"><path
               d="m 0,0 c 0.235,0.293 17.801,0.492 20.614,0.557 l -1.57,-3.598 C 12.696,-3.631 6.136,-3.435 -0.08,-3.236 L 0,0"
               style="fill:#000000;fill-opacity:1;fill-rule:nonzero;stroke:none"
               id="path272"
               inkscape:connector-curvature="0" /></g><g
             id="g274"
             transform="translate(-137.663,-75.019003)"><path
               d="m 0,0 c -0.125,-0.655 0.308,-3.268 0,-4.035 -0.186,-0.46 -17.019,0.246 -25.986,0.246 -0.066,0.916 -0.639,2.754 -0.246,3.736 C -18.772,0.863 -1.049,-0.196 0,0"
               style="fill:#000000;fill-opacity:1;fill-rule:nonzero;stroke:none"
               id="path276"
               inkscape:connector-curvature="0" /></g><g
             id="g278"
             transform="translate(-54.188,-110.17)"><path
               d="m 0,0 c -3.232,-4.537 -14.116,-5.088 -18.291,-5.238 -6.027,-0.219 -14.859,-0.307 -19.268,4.682 -1.226,1.324 -1.962,3.697 0.784,5.496 12.239,0.328 24.145,0.59 36.774,0.918 C 0.919,5.881 0.91,2.274 0.8,1.776 0.655,1.123 0.379,0.533 0,0"
               style="fill:#b26e2d;fill-opacity:1;fill-rule:nonzero;stroke:none"
               id="path280"
               inkscape:connector-curvature="0" /></g><g
             id="g282"
             transform="translate(-175.444,-106.931)"><path
               d="m 0,0 c 11.713,0.13 23.952,0.261 35.01,0.457 0.786,-3.141 2.57,-6.155 -0.093,-8.795 -4.954,-4.907 -15.071,-5.877 -21.576,-5.694 -3.933,0.11 -7.878,0.887 -11.623,2.073 -2.112,0.668 -9.127,2.74 -10.031,5.023 -1.11,2.812 -0.784,6.086 0.656,8.637 C -5.368,0.98 -0.066,0.261 0,0"
               style="fill:#b26e2d;fill-opacity:1;fill-rule:nonzero;stroke:none"
               id="path284"
               inkscape:connector-curvature="0" /></g><g
             id="g286"
             transform="translate(-75.714,-121.392)"><path
               d="m 0,0 c -0.589,-8.508 0,-17.28 -1.113,-25.784 -0.827,-0.919 -4.828,-0.642 -6.024,-0.23 -0.589,4.58 0.266,9.326 0.201,14.037 0.327,5.105 0.654,10.143 0.982,15.248 0.065,0.131 0.196,0.197 0.326,0.326 C -3.729,2.484 2.487,4.97 0,0"
               style="fill:#fff463;fill-opacity:1;fill-rule:nonzero;stroke:none"
               id="path288"
               inkscape:connector-curvature="0" /></g><g
             id="g290"
             transform="translate(-162.095,-124.127)"><path
               d="m 0,0 c 0.352,-0.457 -1.063,-17.568 -1.063,-25.357 -1.702,-1.701 -4.173,-1.16 -6.463,-0.965 -0.195,0.131 -0.393,0.326 -0.326,0.59 -0.133,9.096 0.915,17.537 0.326,26.437 C -5.65,-0.359 -0.605,-0.197 0,0"
               style="fill:#fff463;fill-opacity:1;fill-rule:nonzero;stroke:none"
               id="path292"
               inkscape:connector-curvature="0" /></g><g
             id="g294"
             transform="translate(-76.872003,-154.26)"><path
               d="m 0,0 c -2.115,-0.505 -4.796,-0.312 -6.367,0.211 0.064,1.506 -0.131,3.534 0.13,5.17 C -4.403,4.792 -1.74,5.126 0.092,5.059 L 0,0"
               style="fill:#ffffff;fill-opacity:1;fill-rule:nonzero;stroke:none"
               id="path296"
               inkscape:connector-curvature="0" /></g><g
             id="g298"
             transform="translate(-169.702,-152.019)"><path
               d="M 0,0 C 2.027,-0.067 4.793,-0.655 6.494,0.457 L 6.379,-4.909 c -1.717,-0.816 -4.661,-0.654 -6.429,0 L 0,0"
               style="fill:#ffffff;fill-opacity:1;fill-rule:nonzero;stroke:none"
               id="path300"
               inkscape:connector-curvature="0" /></g><g
             id="g302"
             transform="translate(-77.056001,-160.193)"><path
               d="M 0,0 C -2.162,-0.551 -4.784,-0.643 -6.053,0.322 V 4.705 C -4.219,3.92 -1.537,4.246 0.229,4.377 L 0,0"
               style="fill:#ffffff;fill-opacity:1;fill-rule:nonzero;stroke:none"
               id="path304"
               inkscape:connector-curvature="0" /></g><g
             id="g306"
             transform="translate(-169.784,-158.318)"><path
               d="M 0,0 C 2.029,-0.588 4.662,-0.652 6.543,-0.326 L 6.6,-5.279 C 6.313,-5.631 1.407,-5.612 0.032,-4.893 L 0,0"
               style="fill:#ffffff;fill-opacity:1;fill-rule:nonzero;stroke:none"
               id="path308"
               inkscape:connector-curvature="0" /></g><g
             id="g310"
             transform="translate(-76.918001,-162.078)"><path
               d="m 0,0 c 0.59,-3.732 -0.76,-7.545 0.746,-10.818 -0.981,-2.028 -3.207,-1.766 -5.17,-1.766 -0.72,0.459 -1.833,0.785 -1.571,1.898 -0.522,3.467 -0.326,7.395 -0.196,10.993 C -4.83,-0.508 -1.767,-0.392 0,0"
               style="fill:#ffffff;fill-opacity:1;fill-rule:nonzero;stroke:none"
               id="path312"
               inkscape:connector-curvature="0" /></g><g
             id="g314"
             transform="translate(-76.872003,-154.26)"><path
               d="m 0,0 c -2.115,-0.505 -4.796,-0.312 -6.367,0.211 l 0.13,-1.439 c 1.834,-0.785 4.516,-0.459 6.282,-0.328 L 0,0"
               style="fill:#000000;fill-opacity:1;fill-rule:nonzero;stroke:none"
               id="path316"
               inkscape:connector-curvature="0" /></g><g
             id="g318"
             transform="translate(-77.056001,-160.193)"><path
               d="m 0,0 c -2.162,-0.551 -4.784,-0.643 -6.053,0.322 v -1.9 c 1.361,-0.815 4.424,-0.699 6.191,-0.307 L 0,0"
               style="fill:#000000;fill-opacity:1;fill-rule:nonzero;stroke:none"
               id="path320"
               inkscape:connector-curvature="0" /></g><g
             id="g322"
             transform="translate(-163.208,-165.564)"><path
               d="M 0,0 C 0.656,-1.375 0.13,-3.209 0.526,-4.715 0.13,-7.2 1.113,-9.491 1.44,-11.912 c -0.459,-1.244 -1.504,-2.684 -2.813,-3.141 -1.899,-0.262 -3.6,0.721 -5.171,1.701 -0.328,1.57 -0.131,3.404 -0.195,5.039 -0.197,2.879 -0.197,6.086 0,8.965 C -4.582,0.195 -2.355,-0.461 0,0"
               style="fill:#ffffff;fill-opacity:1;fill-rule:nonzero;stroke:none"
               id="path324"
               inkscape:connector-curvature="0" /></g><g
             id="g326"
             transform="translate(-163.323,-156.928)"><path
               d="m 0,0 c -1.717,-0.816 -4.661,-0.654 -6.429,0 l -0.032,-1.39 c 2.029,-0.588 4.662,-0.652 6.543,-0.326 L 0,0"
               style="fill:#000000;fill-opacity:1;fill-rule:nonzero;stroke:none"
               id="path328"
               inkscape:connector-curvature="0" /></g><g
             id="g330"
             transform="translate(-163.184,-163.597)"><path
               d="m 0,0 c -0.287,-0.352 -5.193,-0.333 -6.568,0.386 l -0.195,-1.701 c 2.157,-0.457 4.384,-1.113 6.739,-0.652 L 0,0"
               style="fill:#000000;fill-opacity:1;fill-rule:nonzero;stroke:none"
               id="path332"
               inkscape:connector-curvature="0" /></g><g
             id="g334"
             transform="translate(-76.171999,-175.578)"><path
               d="m 0,0 c 0.524,0.85 1.767,1.111 2.355,0.328 3.078,-3.076 7.396,-7.135 5.302,-11.648 0.524,-1.047 -1.636,-2.358 0,-2.489 2.486,5.172 8.048,7.592 13.22,8.639 4.971,-0.064 9.618,-2.683 11.909,-7.068 3.821,-10.699 -8.996,-19.227 -18.323,-16.227 -7.329,2.354 -13.089,8.573 -20.941,9.617 -2.357,0.065 -4.909,0.917 -7.199,1.704 -2.814,4.449 -1.702,10.794 0.917,14.919 1.635,1.047 3.402,4.647 5.497,2.358 C -5.3,-1.178 -1.962,-1.504 0,0"
               style="fill:#000000;fill-opacity:1;fill-rule:nonzero;stroke:none"
               id="path336"
               inkscape:connector-curvature="0" /></g><g
             id="g338"
             transform="translate(-165.235,-182.318)"><path
               d="m 0,0 c 2.027,-0.067 4.187,1.439 5.168,3.271 2.094,-0.849 3.47,-3.076 4.908,-4.711 0.918,-1.896 2.553,-3.468 2.815,-5.629 -2.03,-1.701 -3.927,-3.664 -4.253,-6.15 0.13,-0.133 0.196,-0.197 0.326,-0.328 3.991,4.647 9.03,8.967 15.379,7.527 3.664,-0.851 7.984,-3.209 9.095,-7.199 2.095,-5.17 -0.523,-10.537 -4.188,-14.135 -3.074,-2.617 -7.459,-3.404 -11.32,-2.488 -7.395,1.442 -12.369,8.901 -18.716,12.826 -4.515,0.328 -8.639,3.6 -11.452,7.397 -1.506,4.056 -0.329,8.506 2.683,11.451 0.784,0.654 1.57,1.375 2.486,1.766 C -5.171,1.832 -3.077,-0.59 0,0"
               style="fill:#000000;fill-opacity:1;fill-rule:nonzero;stroke:none"
               id="path340"
               inkscape:connector-curvature="0" /></g><g
             id="g342"
             transform="translate(-51.828998,-186.115)"><path
               d="m 0,0 c 0.852,-0.719 0.983,-2.092 0.459,-3.01 -2.028,-1.896 -4.45,-4.056 -7.394,-3.597 -0.982,0.195 -1.963,0.785 -2.487,1.765 -0.132,2.489 1.702,4.777 3.927,5.76 C -3.599,1.832 -1.635,0.787 0,0"
               style="fill:#000000;fill-opacity:1;fill-rule:nonzero;stroke:none"
               id="path344"
               inkscape:connector-curvature="0" /></g><g
             id="g346"
             transform="translate(-52.809003,-188.142)"><path
               d="m 0,0 c -0.262,-1.245 -1.702,-1.965 -2.619,-2.684 -1.176,-0.521 -2.616,-1.504 -3.795,-1.111 -1.177,0.785 -0.72,2.42 -0.326,3.469 1.439,1.439 3.467,2.419 5.496,1.57 C -0.784,0.849 0,0.718 0,0"
               style="fill:#ffffff;fill-opacity:1;fill-rule:nonzero;stroke:none"
               id="path348"
               inkscape:connector-curvature="0" /></g><g
             id="g350"
             transform="translate(-142.734,-200.377)"><path
               d="M 0,0 C -1.993,-0.129 -4.628,0.699 -5.029,2.813 -5.489,5.231 -2.448,6.27 -0.656,6.569 0.784,6.807 3.389,6.637 3.998,5.043 4.008,5.016 5.262,0.34 0,0"
               style="fill:#000000;fill-opacity:1;fill-rule:nonzero;stroke:none"
               id="path352"
               inkscape:connector-curvature="0" /></g><g
             id="g354"
             transform="translate(-78.855001,-197.566)"><path
               d="m 0,0 c 0.131,-0.918 0.327,-1.832 0.459,-2.684 -3.862,0.067 -8.181,0.657 -11.126,3.141 0.328,1.047 -0.589,1.703 -0.457,2.683 C -7.722,1.375 -3.534,1.504 0,0"
               style="fill:#000000;fill-opacity:1;fill-rule:nonzero;stroke:none"
               id="path356"
               inkscape:connector-curvature="0" /></g><g
             id="g358"
             transform="translate(-168.705,-200.707)"><path
               d="m 0,0 c -0.261,-1.439 -0.72,-2.879 -0.784,-4.254 -3.141,1.375 -6.021,3.336 -8.771,5.627 -0.064,1.701 0.263,2.619 0.131,4.254 C -9.227,5.627 -3.697,0.918 0,0"
               style="fill:#000000;fill-opacity:1;fill-rule:nonzero;stroke:none"
               id="path360"
               inkscape:connector-curvature="0" /></g><g
             id="g362"
             transform="translate(-140.546,-196.693)"><path
               d="m 0,0 c 0.711,-2.422 -4.445,-3.205 -5.386,-1.33 -0.261,0.521 -0.13,1.242 0.329,1.699 1.108,1.109 3.554,1.674 4.675,0.31 C -0.187,0.443 -0.063,0.217 0,0"
               style="fill:#ffffff;fill-opacity:1;fill-rule:nonzero;stroke:none"
               id="path364"
               inkscape:connector-curvature="0" /></g><g
             id="g366"
             transform="translate(-163.667,-204.174)"><path
               d="m 0,0 c -0.98,-0.72 -2.583,-1 -3.828,-1.261 -0.243,1.308 -0.08,2.209 0.23,4.072 C -3.533,2.944 -0.521,1.44 0,0"
               style="fill:#808d92;fill-opacity:1;fill-rule:nonzero;stroke:none"
               id="path368"
               inkscape:connector-curvature="0" /></g><g
             id="g370"
             transform="translate(-73.938003,-199.914)"><path
               d="M 0,0 C -0.982,-0.72 -2.081,-0.83 -3.323,-1.092 -3.57,0.219 -4.308,1.24 -3.996,3.106 -3.932,3.234 -0.524,1.44 0,0"
               style="fill:#808d92;fill-opacity:1;fill-rule:nonzero;stroke:none"
               id="path372"
               inkscape:connector-curvature="0" /></g><g
             id="g374"
             transform="translate(-160.067,74.273003)"><path
               d="m 0,0 c -5.301,-2.922 -5.954,-8.179 -5.496,-10.993 0.304,-1.638 1.635,-3.731 3.468,-4.712 0.656,-0.305 1.244,-0.721 0.981,0.326 -2.224,2.029 -4.471,10.602 3.927,13.678 8.18,2.487 23.557,-1.898 30.299,-11.976 2.29,-4.058 -1.244,-7.395 -3.6,-10.21 0.131,-0.129 0.262,-0.326 0.459,-0.456 2.422,0.786 4.32,3.403 5.496,5.497 0.539,0.653 0.502,1.957 0.589,2.487 C 36.908,-10.339 24.474,4.494 2.116,0.458 1.464,0.458 0.331,0.13 0,0"
               style="fill:#ef5240;fill-opacity:1;fill-rule:nonzero;stroke:none"
               id="path376"
               inkscape:connector-curvature="0" /></g><g
             id="g378"
             transform="translate(-76.872003,-154.26)"><path
               d="m 0,0 c -2.115,-0.505 -4.796,-0.312 -6.367,0.211 l 0.132,-1.439 c 1.832,-0.785 4.514,-0.459 6.28,-0.328 L 0,0"
               style="fill:#467ec0;fill-opacity:1;fill-rule:nonzero;stroke:none"
               id="path380"
               inkscape:connector-curvature="0" /></g><g
             id="g382"
             transform="translate(-77.056001,-160.193)"><path
               d="m 0,0 c -2.161,-0.551 -4.784,-0.643 -6.051,0.322 v -1.9 c 1.359,-0.815 4.422,-0.699 6.189,-0.307 L 0,0"
               style="fill:#eb1c22;fill-opacity:1;fill-rule:nonzero;stroke:none"
               id="path384"
               inkscape:connector-curvature="0" /></g><g
             id="g386"
             transform="translate(-163.323,-156.928)"><path
               d="m 0,0 c -1.717,-0.816 -4.661,-0.654 -6.429,0 l -0.032,-1.39 c 2.029,-0.588 4.662,-0.652 6.543,-0.326 L 0,0"
               style="fill:#467ec0;fill-opacity:1;fill-rule:nonzero;stroke:none"
               id="path388"
               inkscape:connector-curvature="0" /></g><g
             id="g390"
             transform="translate(-163.184,-163.597)"><path
               d="m 0,0 c -0.287,-0.352 -5.193,-0.333 -6.568,0.386 l -0.195,-1.701 c 2.157,-0.457 4.384,-1.113 6.739,-0.652 L 0,0"
               style="fill:#eb1c22;fill-opacity:1;fill-rule:nonzero;stroke:none"
               id="path392"
               inkscape:connector-curvature="0" /></g><g
             id="g394"
             transform="translate(-218.882,159.906)"><path
               d="m 0,0 c 1.935,-4.344 3.082,-9.052 3.402,-13.796 0.323,-4.768 -0.329,-9.569 1.58,-14.1 1.503,-3.569 3.731,-6.735 5.879,-9.935 2.224,-3.32 3.925,-6.995 4.975,-10.855 1.964,-7.199 0.328,-14.855 0.132,-22.12 0.196,-5.955 3.141,-10.732 4.711,-16.033 1.082,-3.404 1.165,-6.998 1.111,-10.538 -0.096,-6.199 -0.043,-12.435 1.622,-18.457 0.684,-2.477 1.544,-4.898 2.412,-7.317 1.522,-4.233 3.12,-8.46 3.923,-12.904 0.817,-4.507 0.271,-8.957 0.057,-13.491 -0.198,-4.188 -0.055,-8.414 1.295,-12.415 2.325,-6.884 5.151,-12.589 4.958,-20.091 -0.103,-3.912 -1.404,-11.918 1.701,-14.877 0.282,-2.008 2.351,-9.635 2.351,-9.635 -5.755,0.947 -11.205,2.932 -17.336,2.389 -2.094,0.135 -4.122,0.33 -6.151,0.461 -2.553,11.972 -4.859,32.394 -15.707,32.523 -1.635,-0.064 -3.271,-0.656 -4.58,0.457 -4.908,5.76 -1.111,15.118 -6.282,20.746 -3.076,4.924 -10.143,8.637 -9.424,15.574 0.131,7.46 -0.195,15.052 -4.514,20.876 -3.404,5.103 -7.33,10.012 -8.181,16.164 -0.916,5.972 -1.161,11.371 -4.843,17.604 -2.86,4.842 -6.216,9.488 -9.292,14.265 -2.356,5.693 -0.131,11.778 3.469,16.165 2.094,3.009 6.216,3.729 7.394,7.263 1.418,4.255 2.586,9.294 5.223,12.99 2.699,3.783 7.54,5.206 10.72,8.517 3.807,3.965 6.181,9.098 8.858,13.83 2.654,4.689 4.666,10.802 10.571,12.13 L 0,0"
               style="fill:#e6e076;fill-opacity:1;fill-rule:nonzero;stroke:none"
               id="path396"
               inkscape:connector-curvature="0" /></g><g
             id="g398"
             transform="translate(-220.534,128.589)"><path
               d="m 0,0 c 4.734,-9.388 -3.401,-37.933 -12.368,-32 -4.709,3.118 -6.348,8.376 -7.264,13.48 0,8.64 1.375,17.734 9.162,22.643 C -5.147,8.202 -1.329,2.639 0,0"
               style="fill:#919107;fill-opacity:1;fill-rule:nonzero;stroke:none"
               id="path400"
               inkscape:connector-curvature="0" /></g><g
             id="g402"
             transform="translate(-221.091,125.1)"><path
               d="m 0,0 c 0.91,-3.175 0.632,-6.204 0.024,-9.557 -1.888,-10.382 -6.032,-17.908 -10.231,-17.242 -1.6,0.251 -3.418,1.907 -4.282,3.206 -1.165,1.751 -1.681,3.951 -2.134,5.976 -0.947,4.24 -0.824,8.477 0.314,12.673 0.565,2.085 1.37,4.476 2.6,6.273 1.702,2.488 3.993,4.647 6.938,5.17 3.621,0.645 5.345,-2.476 6.399,-5.36 C -0.232,0.758 -0.11,0.378 0,0"
               style="fill:#919107;fill-opacity:1;fill-rule:nonzero;stroke:none"
               id="path404"
               inkscape:connector-curvature="0" /></g><g
             id="g406"
             transform="translate(-219.095,74.273003)"><path
               d="m 0,0 c 7.375,-4.886 1.812,-28.771 -6.609,-28.727 -2.732,0.012 -6.499,1.111 -7.656,8.768 -1.156,7.656 1.375,12.108 4.188,17.276 C -7.458,0.131 -3.654,2.421 0,0"
               style="fill:#919107;fill-opacity:1;fill-rule:nonzero;stroke:none"
               id="path408"
               inkscape:connector-curvature="0" /></g><g
             id="g410"
             transform="translate(-218.44,70.018997)"><path
               d="m 0,0 c 3.885,-8.265 -4.623,-25.826 -10.077,-21.005 -4.06,3.588 -3.599,9.423 -2.815,14.266 2.052,5.999 3.274,9.357 8.639,10.078 C -2.094,3.798 -0.851,1.506 0,0"
               style="fill:#919107;fill-opacity:1;fill-rule:nonzero;stroke:none"
               id="path412"
               inkscape:connector-curvature="0" /></g><g
             id="g414"
             transform="translate(-200.814,16.707998)"><path
               d="m 0,0 c -1.853,-2.509 -3.926,-4.909 -6.631,-5.585 -3.338,-0.326 -4.648,3.534 -6.021,5.693 -3.599,7.592 -5.999,30.867 5.038,30.3 C 11.56,30.646 3.021,4.089 0,0"
               style="fill:#919107;fill-opacity:1;fill-rule:nonzero;stroke:none"
               id="path416"
               inkscape:connector-curvature="0" /></g><g
             id="g418"
             transform="translate(-199.331,40.178999)"><path
               d="m 0,0 c 1.178,-2.421 1.899,-20.527 -6.283,-25.718 -0.983,-0.624 -2.094,-1.374 -3.271,-0.982 -3.271,1.155 -8.289,27.443 -1.702,30.037 2.949,1.162 5.301,1.244 7.658,0.459 C -1.832,3.075 -0.85,1.571 0,0"
               style="fill:#919107;fill-opacity:1;fill-rule:nonzero;stroke:none"
               id="path420"
               inkscape:connector-curvature="0" /></g><g
             id="g422"
             transform="translate(-194.292,-2.2260023)"><path
               d="m 0,0 c 1.636,-3.6 0.655,-8.444 -1.57,-11.584 -1.245,-3.27 -4.449,-6.215 -7.656,-7.395 -1.899,-0.98 -2.683,1.506 -3.47,2.488 -1.372,4.778 0.851,9.293 2.357,13.545 1.439,2.881 4.188,4.321 7.068,5.172 C -1.831,2.29 -0.588,1.242 0,0"
               style="fill:#919107;fill-opacity:1;fill-rule:nonzero;stroke:none"
               id="path424"
               inkscape:connector-curvature="0" /></g><g
             id="g426"
             transform="translate(-195.535,-3.4699999)"><path
               d="m 0,0 c 1.44,-4.188 -0.263,-8.639 -2.813,-11.911 -2.029,-1.439 -3.273,-4.187 -5.956,-3.466 -2.159,1.832 -0.655,4.908 -0.655,7.199 1.179,3.664 2.292,8.898 7.068,9.619 C -1.374,1.374 -0.263,1.113 0,0"
               style="fill:#919107;fill-opacity:1;fill-rule:nonzero;stroke:none"
               id="path428"
               inkscape:connector-curvature="0" /></g><g
             id="g430"
             transform="translate(-214.401,150.426)"><path
               d="m 0,0 c 0.082,-0.35 0.154,-0.706 0.214,-1.07 1.112,-6.641 1.097,-13.715 4.092,-19.891 1.278,-2.637 3.482,-4.923 4.876,-7.541 1.399,-2.624 2.416,-5.413 3.105,-8.305 1.441,-6.039 1.668,-12.269 2.075,-18.439 0.233,-3.508 0.511,-7.051 1.051,-10.531 0.753,-4.845 2.917,-9.452 3.663,-14.348 1.151,-7.55 -1.079,-15.07 0.32,-22.71 0.987,-5.376 2.992,-10.012 5.251,-14.938 2.535,-5.537 3.799,-12.438 3.042,-18.507 -1.244,-9.957 1.695,-17.306 4.322,-26.749 1.125,-4.041 1.348,-7.836 0.886,-11.989 -0.477,-4.269 0.283,-8.195 0.38,-12.431 -3.104,2.959 -1.803,10.965 -1.701,14.877 0.193,7.502 -2.632,13.207 -4.956,20.091 -1.352,4.001 -1.494,8.227 -1.297,12.415 0.215,4.534 0.76,8.984 -0.057,13.491 -0.803,4.444 -2.4,8.671 -3.921,12.904 -0.87,2.417 -1.73,4.84 -2.414,7.317 -1.665,6.02 -1.716,12.258 -1.622,18.457 0.054,3.54 -0.029,7.134 -1.11,10.538 -1.57,5.301 -4.515,10.078 -4.712,16.033 0.197,7.265 1.832,14.921 -0.13,22.12 -1.052,3.86 -2.752,7.535 -4.977,10.855 -2.147,3.2 -4.375,6.366 -5.879,9.935 -1.909,4.531 -1.257,9.332 -1.578,14.1 C -1.399,0.428 -2.546,5.136 -4.481,9.48 -4.59,9.727 -4.46,10.087 -4.309,10.269 -1.81,9.222 -0.549,2.375 0,0"
               style="fill:#7e862d;fill-opacity:1;fill-rule:nonzero;stroke:none"
               id="path432"
               inkscape:connector-curvature="0" /></g><path
             sodipodi:nodetypes="cccccccccccccccccccccccccccccccccccccccccccccccccccccccccccccccccccccsccccccccccccccccccccccccccccccccccccccc"
             d="m 0,0 c 1.899,5.823 1.243,13.349 -0.654,18.976 -1.638,9.352 3.406,18.32 5.176,27.27 1.411,7.142 1.361,14.915 -1.38,21.745 -1.388,6.822 1.126,13.14 2.971,19.589 1.887,6.596 2.601,13.927 0.425,20.543 -1.573,4.782 -3.212,8.985 -2.284,14.053 2.422,13.219 8.049,31.411 -5.693,40.705 -5.497,3.009 -13.023,2.028 -18.847,0.26 -8.441,-1.832 -14.527,3.927 -22.903,3.141 -6.958,0.142 -13.452,-4.5 -20.409,-2.276 -2.873,0.919 -5.758,1.781 -8.722,2.358 -6.017,1.171 -12.381,1.398 -18.184,-0.867 -9.881,-2.879 -20.417,0.328 -29.512,3.338 -9.36,3.665 -19.633,0.065 -28.402,-2.356 -9.357,0.066 -17.014,4.057 -26.242,4.386 -7.133,0.392 -11.975,-4.909 -19.174,-4.583 -8.114,1.44 -16.031,5.236 -24.932,2.881 -12.805,-4.015 -16.687,-20.681 -18.521,-23.429 -3.01,-7.002 -11.32,-6.544 -14.92,-12.563 -1.869,-3.127 -2.559,-6.743 -3.036,-10.309 -0.496,-3.709 -0.598,-4.822 -4.16,-6.321 -1.662,-0.7 -3.01,-1.359 -4.339,-2.617 -5.925,-5.614 -8.433,-15.017 -4.167,-22.367 1.923,-3.316 3.561,-6.78 5.863,-9.862 2.55,-3.412 5.36,-6.997 6.071,-11.302 0.682,-4.132 -0.808,-8.648 1.413,-12.479 3.534,-6.153 8.769,-11.257 12.826,-17.276 2.88,-6.48 -0.852,-13.154 0.982,-19.764 2.945,-6.085 11.582,-9.554 11.582,-16.62 -0.85,-3.797 -0.065,-8.443 2.357,-11.65 0.916,-1.637 3.337,-2.815 3.01,-4.713 0,0 0.929,0.746 3.609,0.557 -4.736,5.523 -3.462,15.842 -8.633,21.47 -3.075,4.924 -10.143,8.637 -9.423,15.574 0.13,7.46 -0.196,15.052 -4.515,20.876 -3.404,5.105 -7.33,10.012 -8.181,16.164 -0.916,5.972 -1.161,11.369 -4.843,17.604 -2.86,4.842 -6.216,9.488 -9.292,14.265 -2.355,5.693 -0.131,11.778 3.469,16.165 2.094,3.01 6.217,3.729 7.394,7.263 1.418,4.255 2.586,9.294 5.222,12.99 2.7,3.783 7.542,5.206 10.721,8.516 3.807,3.966 6.181,9.099 8.858,13.831 2.654,4.689 4.666,10.802 10.571,12.13 7.307,1.641 15.151,-2.454 22.543,-2.118 5.366,-0.064 10.471,2.292 16.032,2.683 7.473,0.527 14.657,-2.019 22.031,-2.675 7.784,-0.691 14.527,2.714 22.151,3.136 4.565,0.254 8.839,-0.759 13.055,-2.004 6.229,-1.842 12.33,-4.198 19.069,-3.757 6.05,0.397 11.925,2.226 17.983,2.529 6.22,0.308 11.885,-1.81 17.882,-2.986 8.109,-1.591 15.98,2.224 24.084,2.504 5.112,0.178 9.912,-1.766 14.903,-2.49 6.525,-0.942 12.998,1.829 19.528,1.485 8.559,-0.449 12.178,-6.672 12.418,-14.915 C 2.939,142.955 2.377,139.25 1.984,135.547 1.63,132.231 1.821,128.793 1.184,125.52 0.414,121.553 1.31,117.575 2.117,113.692 3.53,106.909 3.852,99.136 2.59,92.305 1.341,85.531 -1.132,78.949 -0.115,71.955 0.598,67.065 2.075,61.908 1.638,56.936 1.159,51.516 -0.198,46.221 -1.569,40.971 -2.755,36.431 -4.622,31.495 -4.236,26.735 -4.027,24.141 -3.693,21.826 -3.071,19.284 -2.28,16.044 -1.347,11.739 -1.728,8.402 -2.12,4.961 -3.851,1.785 -5.304,-1.302 -8.33,-7.738 -9.029,-15.49 -9.059,-22.968 c -0.017106,-4.2324 0.042298,-8.688729 -1.066675,-12.748367 -0.706301,-2.585568 -1.886537,-5.010225 -3.862325,-7.113633 -2.797,-3.648 -7.078,-3.486 -11.204,-2.961 -4.958,0.627 -9.724,0.092 -14.52,-1.236 -6.936,-1.92 -12.471,-1.877 -19.482,0.049 -6.739,1.853 -14.213,2.211 -20.889,-0.102 -6.478,-1.508 -13.611,-3.142 -20.548,-1.572 -8.376,2.681 -17.866,4.777 -27.027,2.812 -4.189,-0.894 -8.421,-1.924 -12.723,-2.041 -4.098,-0.111 -7.787,1.149 -11.785,1.684 -7.409,0.99 -14.811,-1.19 -22.234,-0.922 -7.454,0.266 -14.052,3.527 -21.708,2.85 -2.095,0.132 -4.123,0.33 -6.152,0.461 l 0.443,-2.721 c 6.823,-0.855 11.256,2.553 17.276,-0.131 3.168,-0.971 4.123,-1.506 5.824,-3.271 0.62,-0.895 1.465,-1.166 2.159,-1.311 6.022,0.983 11.649,2.619 17.93,2.881 3.404,-0.523 6.374,-0.596 9.425,-1.898 1.981,-0.846 7.315,-2.2 8.769,-1.243 0.916,0.848 2.945,0.26 4.253,0.784 7.461,2.488 16.753,3.14 24.671,1.57 2.859,-0.131 4.603,-0.676 7.657,-1.111 1.617,-0.288 4.45,-1.112 4.45,-1.112 5.235,0.326 10.732,-0.197 15.706,1.44 1.858,0.502 2.579,-0.68 4.384,0.261 2.75,1.7 6.609,0.721 10.013,1.44 5.234,-0.654 10.143,-2.162 15.247,-3.141 1.833,-0.295 3.631,-0.443 5.039,0.457 1.406,0.899 5.001,0.85 6.717,1.252 2.33,0.551 4.647,1.164 7.016,1.537 3.031,0.479 6.082,0.559 9.043,-0.334 2.913,-0.877 5.485,-2.05 8.595,-1.715 1.466,0.184 3.969,-0.462 3.837,0.7 -0.174,1.525 3.368,3.922 4.213,5.193 0.743,1.119 1.029,2.305 1.398,3.588 0.172,0.599 1.607,7.264 2.045,7.25 0.313,0.638 0.195,2.945 0.195,2.945 -0.914,7.92 -0.85,17.016 2.945,23.756 0.945,1.32 2.843,5.873 3.01,6.742"
             style="fill:#7e862d;fill-opacity:1;fill-rule:nonzero;stroke:#7e862d;stroke-width:0.71950209;stroke-miterlimit:4;stroke-dasharray:none;stroke-opacity:1"
             id="path436"
             inkscape:connector-curvature="0" /></g></g></g></g></svg>